<svg width="52" height="60" viewBox="0 0 52 60" fill="none" xmlns="http://www.w3.org/2000/svg">
<g filter="url(#filter0_d_1301_19247)">
<path d="M46 24C46 40 26 52 26 52C26 52 6 40 6 24C6 12.9543 14.9543 4 26 4C37.0457 4 46 12.9543 46 24Z" fill="#1B86FF"/>
<path d="M31.4545 15H20.5455L18.3636 18.375H14L17.2727 21.75H34.7273L38 18.375H33.6364L31.4545 15Z" fill="white"/>
<path d="M17.2727 22.875V28.5H20V22.875H17.2727Z" fill="white"/>
<path d="M34.7273 22.875V28.5H32V22.875H34.7273Z" fill="white"/>
<path d="M21.0909 22.875H23.2727V28.5H21.0909V22.875Z" fill="white"/>
<path d="M28.7273 22.875V25.125H23.2727V22.875H28.7273Z" fill="white"/>
<path d="M28.7273 22.875H30.9091V28.5H28.7273V22.875Z" fill="white"/>
<path d="M15.0909 29.625H36.9091V33H15.0909V29.625Z" fill="white"/>
</g>
<defs>
<filter id="filter0_d_1301_19247" x="0" y="0" width="52" height="60" filterUnits="userSpaceOnUse" color-interpolation-filters="sRGB">
<feFlood flood-opacity="0" result="BackgroundImageFix"/>
<feColorMatrix in="SourceAlpha" type="matrix" values="0 0 0 0 0 0 0 0 0 0 0 0 0 0 0 0 0 0 127 0" result="hardAlpha"/>
<feOffset dy="2"/>
<feGaussianBlur stdDeviation="3"/>
<feComposite in2="hardAlpha" operator="out"/>
<feColorMatrix type="matrix" values="0 0 0 0 0 0 0 0 0 0 0 0 0 0 0 0 0 0 0.3 0"/>
<feBlend mode="normal" in2="BackgroundImageFix" result="effect1_dropShadow_1301_19247"/>
<feBlend mode="normal" in="SourceGraphic" in2="effect1_dropShadow_1301_19247" result="shape"/>
</filter>
</defs>
</svg>
