<svg width="24" height="24" viewBox="0 0 24 24" fill="none" xmlns="http://www.w3.org/2000/svg">
<path fill-rule="evenodd" clip-rule="evenodd" d="M5.25 4L3 10.8571V18.2857C3 19.2325 3.75552 20 4.6875 20C5.61948 20 6.375 19.2325 6.375 18.2857V17.7143H17.625V18.2857C17.625 19.2325 18.3805 20 19.3125 20C20.2445 20 21 19.2325 21 18.2857V10.8571L18.75 4H5.25ZM6.375 5.14286L4.6875 10.8571H19.3125L17.625 5.14286H6.375ZM8.625 14.2824C8.625 15.2291 7.86948 15.9967 6.9375 15.9967C6.00552 15.9967 5.25 15.2291 5.25 14.2824C5.25 13.3356 6.00552 12.5681 6.9375 12.5681C7.86948 12.5681 8.625 13.3356 8.625 14.2824ZM17.0625 15.9967C17.9945 15.9967 18.75 15.2291 18.75 14.2824C18.75 13.3356 17.9945 12.5681 17.0625 12.5681C16.1305 12.5681 15.375 13.3356 15.375 14.2824C15.375 15.2291 16.1305 15.9967 17.0625 15.9967Z" fill="white"/>
</svg>
