<svg width="20" height="20" viewBox="0 0 20 20" fill="none" xmlns="http://www.w3.org/2000/svg">
<path fill-rule="evenodd" clip-rule="evenodd" d="M10.0004 8.82188L12.7445 6.0778L13.923 7.25631L11.1789 10.0004L13.923 12.7445L12.7445 13.923L10.0004 11.1789L7.25631 13.923L6.0778 12.7445L8.82188 10.0004L6.0778 7.25631L7.25631 6.0778L10.0004 8.82188Z" fill="#FAFAFA"/>
<path fill-rule="evenodd" clip-rule="evenodd" d="M10.0003 18.3337C14.6027 18.3337 18.3337 14.6027 18.3337 10.0003C18.3337 5.39795 14.6027 1.66699 10.0003 1.66699C5.39795 1.66699 1.66699 5.39795 1.66699 10.0003C1.66699 14.6027 5.39795 18.3337 10.0003 18.3337ZM12.7445 6.0778L10.0004 8.82188L7.25631 6.0778L6.0778 7.25631L8.82188 10.0004L6.0778 12.7445L7.25631 13.923L10.0004 11.1789L12.7445 13.923L13.923 12.7445L11.1789 10.0004L13.923 7.25631L12.7445 6.0778Z" fill="#DDDDDD"/>
</svg>
