<svg width="24" height="24" viewBox="0 0 24 24" fill="none" xmlns="http://www.w3.org/2000/svg">
<path fill-rule="evenodd" clip-rule="evenodd" d="M12.0001 10.5859L15.293 7.29297L16.7072 8.70718L13.4143 12.0001L16.7072 15.293L15.293 16.7072L12.0001 13.4143L8.70718 16.7072L7.29297 15.293L10.5859 12.0001L7.29297 8.70718L8.70718 7.29297L12.0001 10.5859Z" fill="black"/>
<path fill-rule="evenodd" clip-rule="evenodd" d="M12 22C17.5228 22 22 17.5228 22 12C22 6.47715 17.5228 2 12 2C6.47715 2 2 6.47715 2 12C2 17.5228 6.47715 22 12 22ZM15.293 7.29297L12.0001 10.5859L8.70718 7.29297L7.29297 8.70718L10.5859 12.0001L7.29297 15.293L8.70718 16.7072L12.0001 13.4143L15.293 16.7072L16.7072 15.293L13.4143 12.0001L16.7072 8.70718L15.293 7.29297Z" fill="#333333"/>
</svg>
