<svg width="16" height="16" viewBox="0 0 16 16" fill="none" xmlns="http://www.w3.org/2000/svg">
<path fill-rule="evenodd" clip-rule="evenodd" d="M7.99992 14.6663C11.6818 14.6663 14.6666 11.6816 14.6666 7.99967C14.6666 4.31778 11.6818 1.33301 7.99992 1.33301C4.31802 1.33301 1.33325 4.31778 1.33325 7.99967C1.33325 11.6816 4.31802 14.6663 7.99992 14.6663ZM7.33325 9.66634V4.33301H8.66659V9.66634H7.33325ZM8.66659 10.9997C8.66659 11.3679 8.36811 11.6663 7.99992 11.6663C7.63173 11.6663 7.33325 11.3679 7.33325 10.9997C7.33325 10.6315 7.63173 10.333 7.99992 10.333C8.36811 10.333 8.66659 10.6315 8.66659 10.9997Z" fill="#AAAAAA"/>
</svg>
