<svg width="24" height="24" viewBox="0 0 24 24" fill="none" xmlns="http://www.w3.org/2000/svg">
<path fill-rule="evenodd" clip-rule="evenodd" d="M17.772 6.51875C16.6634 6.60413 15.1025 7.18869 14.3153 10.4277C13.8812 12.2137 14.1711 15.132 14.1711 15.132L18.3535 16.2636C18.3535 16.2636 20.2503 13.5688 20.8284 11.8718C21.4065 10.1747 21.4534 8.47448 20.5234 7.53828C19.8965 6.90722 18.8806 6.43337 17.772 6.51875ZM13.9494 16.0626C13.9494 16.0626 13.5932 16.8621 13.4794 17.2842C13.3075 17.9218 13.2115 18.5493 13.4073 19.1042C13.6236 19.7168 14.1858 20.2163 14.9514 20.4244C15.5683 20.592 16.9717 20.6033 17.6632 19.0636C17.9581 18.4071 18.1177 17.2169 18.1177 17.2169L13.9494 16.0626Z" fill="white"/>
<path fill-rule="evenodd" clip-rule="evenodd" d="M6.22794 3.50996C7.33653 3.59534 8.89748 4.1799 9.68468 7.41894C10.1187 9.20493 9.82892 12.1232 9.82892 12.1232L5.64648 13.2548C5.64648 13.2548 3.74964 10.56 3.17158 8.86299C2.59353 7.16596 2.5466 5.46569 3.4766 4.5295C4.10349 3.89844 5.11936 3.42459 6.22794 3.50996ZM10.0506 13.0538C10.0506 13.0538 10.4068 13.8533 10.5206 14.2754C10.6924 14.913 10.7885 15.5406 10.5926 16.0954C10.3764 16.708 9.81419 17.2075 9.04859 17.4156C8.43171 17.5832 7.02829 17.5945 6.33674 16.0548C6.0419 15.3983 5.8823 14.2082 5.8823 14.2082L10.0506 13.0538Z" fill="white"/>
</svg>
