<svg width="48" height="48" viewBox="0 0 48 48" fill="none" xmlns="http://www.w3.org/2000/svg">
<path fill-rule="evenodd" clip-rule="evenodd" d="M16.575 24.904C17.3206 23.9497 18.7309 23.7562 19.725 24.472C23.582 27.2491 26.8335 27.2468 29.8176 26.7694C31.0433 26.5733 32.2026 27.3682 32.4069 28.5449C32.6112 29.7216 31.7831 30.8345 30.5574 31.0306C26.7915 31.6332 22.168 31.6309 17.025 27.928C16.0309 27.2122 15.8294 25.8583 16.575 24.904Z" fill="white"/>
<path d="M7.18811 35.443L7.19644 35.4531L7.20501 35.463C8.05736 36.448 9.16661 37 10.4811 37C12.5087 37 14.5949 36.0765 16.7089 34.4732C17.7655 33.6719 18.9502 32.6248 20.2606 31.3423C20.6112 31.0071 20.971 30.6543 21.34 30.2839C20.2398 29.867 19.1074 29.3035 17.9468 28.5565C16.8233 29.6109 15.8913 30.4343 15.1471 31.0332L15.1392 31.0396L15.1314 31.0461C14.245 31.7863 13.8443 32.1423 12.9479 32.7544C11.5649 33.6989 10.5297 33.8703 10.0849 33.8259C9.76201 33.7936 9.6208 33.5676 9.6208 33.1404C9.6208 32.1971 10.125 30.6977 11.3669 28.5521C12.6064 26.4652 14.3455 24.2382 16.6023 21.8716C17.7608 20.6734 18.824 19.5934 19.7923 18.6312C20.7796 17.6812 21.6973 16.8683 22.5459 16.1894L22.5535 16.1832C24.2087 14.8349 25.9799 13.7128 27.8679 12.8143C28.0446 12.7417 28.2562 12.6226 28.4348 12.4226C28.6513 12.1801 28.7647 11.8784 28.7647 11.5653C28.7647 11.0327 28.4937 10.5535 28.0017 10.2729C27.6019 10.0448 27.1471 10 26.7889 10C25.6879 10 24.4722 10.3993 23.1893 11.0524C21.8895 11.7142 20.4251 12.6864 18.8021 13.9463L18.7978 13.9497C17.1807 15.2176 15.6459 16.6051 14.1933 18.1116C12.7436 19.6151 11.3606 21.2366 10.0439 22.9752L10.0427 22.9767C7.45285 26.4088 6 29.4656 6 32.0815C6 33.3396 6.39149 34.4763 7.18811 35.443Z" fill="white"/>
<path d="M21.1847 25.4111C22.3988 26.0989 23.5526 26.5203 24.658 26.7564C24.6743 26.7381 24.6907 26.7198 24.7071 26.7015C26.2714 24.9935 27.5465 23.5938 28.5321 22.5031C28.4166 23.7778 28.3582 24.9561 28.3582 26.0369C28.3582 26.3492 28.3632 26.6543 28.3733 26.9519C28.8624 26.9093 29.3434 26.8453 29.8176 26.7694C31.0433 26.5733 32.2026 27.3682 32.4069 28.5449C32.6112 29.7216 31.7831 30.8345 30.5574 31.0306C30.0763 31.1076 29.5813 31.1748 29.073 31.2256C29.1835 31.5298 29.3079 31.8151 29.4468 32.0807C29.837 32.8269 30.3589 33.4508 31.0412 33.8857C31.7302 34.3249 32.5173 34.5292 33.3592 34.5292C36.0715 34.5292 38.1847 32.9864 39.7276 30.3622L39.7305 30.3573C41.2566 27.73 42 24.6898 42 21.2719C42 19.1276 41.6752 17.3089 40.9376 15.8949C40.2095 14.4702 39.149 13.5576 37.4716 13.4414C36.8988 13.4018 36.4252 13.4773 36.0101 13.5984C35.6731 13.6967 34.834 14.0402 34.834 14.9626C34.834 15.2432 34.9432 15.45 35.0105 15.5546C35.0818 15.6655 35.1223 15.708 35.2102 15.7921C35.3911 15.9651 35.5488 16.0117 35.7642 16.1255C36.485 16.5064 36.8945 16.7313 37.2738 17.5365C37.6697 18.3769 37.9065 19.6125 37.9065 21.316C37.9065 23.4744 37.8275 25.5939 36.7667 28.1409C36.2401 29.3902 35.5295 30.4 35.0298 30.9189C34.5703 31.396 34.3755 31.4731 33.9682 31.4731C33.2494 31.4731 33.0547 30.7075 32.9195 30.176C32.9075 30.129 32.896 30.0839 32.8847 30.0412C32.6492 29.1556 32.5935 27.0013 32.5935 24.1839C32.5935 22.8984 32.6858 20.9282 32.8745 18.2565L32.8771 18.22V18.1834C32.8771 17.7579 32.7202 17.2734 32.2656 16.9339C32.0458 16.7698 31.8642 16.6926 31.5749 16.6275C31.4795 16.6061 31.3273 16.5883 31.3273 16.5883C31.227 16.5778 31.1313 16.574 31.0431 16.574C30.6601 16.574 30.3466 16.7438 30.2227 16.8125C30.0453 16.9109 29.8591 17.0389 29.6733 17.1784C29.2981 17.4603 28.8274 17.8631 28.2706 18.3716C27.1519 19.3932 25.6101 20.9112 23.6521 22.9157C22.7782 23.8103 21.9557 24.6421 21.1847 25.4111Z" fill="white"/>
</svg>
