<svg width="66" height="32" viewBox="0 0 66 32" fill="none" xmlns="http://www.w3.org/2000/svg">
<path d="M25.4202 21.1C24.5935 21.1 23.9335 20.8 23.4402 20.2C22.9469 19.6 22.7002 18.8133 22.7002 17.84C22.7002 16.7733 22.9469 15.7666 23.4402 14.82C23.9335 13.86 24.5869 13.0933 25.4002 12.52C26.2269 11.9333 27.1002 11.64 28.0202 11.64C28.3135 11.64 28.5069 11.7 28.6002 11.82C28.7069 11.9266 28.7935 12.1266 28.8602 12.42C29.1402 12.3666 29.4335 12.34 29.7402 12.34C30.3935 12.34 30.7202 12.5733 30.7202 13.04C30.7202 13.32 30.6202 13.9866 30.4202 15.04C30.1135 16.5733 29.9602 17.64 29.9602 18.24C29.9602 18.44 30.0069 18.6 30.1002 18.72C30.2069 18.84 30.3402 18.9 30.5002 18.9C30.7535 18.9 31.0602 18.74 31.4202 18.42C31.7802 18.0866 32.2669 17.5533 32.8802 16.82C33.0402 16.6333 33.2202 16.54 33.4202 16.54C33.5935 16.54 33.7269 16.62 33.8202 16.78C33.9269 16.94 33.9802 17.16 33.9802 17.44C33.9802 17.9733 33.8535 18.3866 33.6002 18.68C33.0535 19.36 32.4735 19.9333 31.8602 20.4C31.2469 20.8666 30.6535 21.1 30.0802 21.1C29.6402 21.1 29.2335 20.9533 28.8602 20.66C28.5002 20.3533 28.2269 19.94 28.0402 19.42C27.3469 20.54 26.4735 21.1 25.4202 21.1ZM26.1402 19.08C26.4335 19.08 26.7135 18.9066 26.9802 18.56C27.2469 18.2133 27.4402 17.7533 27.5602 17.18L28.3002 13.5C27.7402 13.5133 27.2202 13.7266 26.7402 14.14C26.2735 14.54 25.9002 15.0733 25.6202 15.74C25.3402 16.4066 25.2002 17.1133 25.2002 17.86C25.2002 18.2733 25.2802 18.58 25.4402 18.78C25.6135 18.98 25.8469 19.08 26.1402 19.08Z" fill="black"/>
<path d="M42.5947 16.58C42.7681 16.58 42.9014 16.6666 42.9947 16.84C43.1014 17 43.1547 17.2066 43.1547 17.46C43.1547 17.7666 43.1081 18.0066 43.0147 18.18C42.9214 18.3533 42.7747 18.5066 42.5747 18.64C41.4281 19.4133 40.5881 19.9866 40.0547 20.36L38.7747 21.22C38.2681 23.98 37.6014 26.1466 36.7747 27.72C35.9614 29.3066 34.9214 30.1 33.6547 30.1C32.9747 30.1 32.4214 29.8866 31.9947 29.46C31.5681 29.0466 31.3547 28.5 31.3547 27.82C31.3547 26.8733 31.7281 25.8533 32.4747 24.76C33.2214 23.68 34.6214 22.3466 36.6747 20.76L36.7947 19.98C36.5681 20.34 36.2681 20.62 35.8947 20.82C35.5347 21.0066 35.1747 21.1 34.8147 21.1C33.9881 21.1 33.3281 20.8 32.8347 20.2C32.3414 19.6 32.0947 18.8133 32.0947 17.84C32.0947 16.7733 32.3414 15.7666 32.8347 14.82C33.3281 13.86 33.9814 13.0933 34.7947 12.52C35.6214 11.9333 36.4947 11.64 37.4147 11.64C37.7081 11.64 37.9014 11.7 37.9947 11.82C38.1014 11.9266 38.1881 12.1266 38.2547 12.42C38.5081 12.3666 38.8014 12.34 39.1347 12.34C39.4681 12.34 39.7014 12.3933 39.8347 12.5C39.9814 12.5933 40.0547 12.7866 40.0547 13.08C40.0547 13.24 40.0481 13.3666 40.0347 13.46C39.9814 13.8733 39.8147 14.92 39.5347 16.6C39.4814 16.92 39.4214 17.2733 39.3547 17.66C39.3014 18.0333 39.2414 18.4333 39.1747 18.86C40.2014 18.06 41.1881 17.3533 42.1347 16.74C42.3081 16.6333 42.4614 16.58 42.5947 16.58ZM35.5347 19.08C35.8414 19.08 36.1347 18.8933 36.4147 18.52C36.6947 18.1466 36.8947 17.6133 37.0147 16.92L37.6547 13.5C37.1081 13.5133 36.6014 13.7266 36.1347 14.14C35.6681 14.54 35.2947 15.0733 35.0147 15.74C34.7347 16.4066 34.5947 17.1133 34.5947 17.86C34.5947 18.2733 34.6747 18.58 34.8347 18.78C35.0081 18.98 35.2414 19.08 35.5347 19.08ZM33.8747 28.16C34.2081 28.16 34.5814 27.76 34.9947 26.96C35.4214 26.16 35.8281 24.8866 36.2147 23.14C35.1881 24.02 34.4481 24.8133 33.9947 25.52C33.5414 26.2266 33.3147 26.8466 33.3147 27.38C33.3147 27.6066 33.3547 27.7933 33.4347 27.94C33.5281 28.0866 33.6747 28.16 33.8747 28.16Z" fill="black"/>
<path d="M51.9697 16.58C52.1431 16.58 52.2764 16.6666 52.3697 16.84C52.4764 17 52.5297 17.2066 52.5297 17.46C52.5297 17.7666 52.4831 18.0066 52.3897 18.18C52.2964 18.3533 52.1497 18.5066 51.9497 18.64C50.8031 19.4133 49.9631 19.9866 49.4297 20.36L48.1497 21.22C47.6431 23.98 46.9764 26.1466 46.1497 27.72C45.3364 29.3066 44.2964 30.1 43.0297 30.1C42.3497 30.1 41.7964 29.8866 41.3697 29.46C40.9431 29.0466 40.7297 28.5 40.7297 27.82C40.7297 26.8733 41.1031 25.8533 41.8497 24.76C42.5964 23.68 43.9964 22.3466 46.0497 20.76L46.1697 19.98C45.9431 20.34 45.6431 20.62 45.2697 20.82C44.9097 21.0066 44.5497 21.1 44.1897 21.1C43.3631 21.1 42.7031 20.8 42.2097 20.2C41.7164 19.6 41.4697 18.8133 41.4697 17.84C41.4697 16.7733 41.7164 15.7666 42.2097 14.82C42.7031 13.86 43.3564 13.0933 44.1697 12.52C44.9964 11.9333 45.8697 11.64 46.7897 11.64C47.0831 11.64 47.2764 11.7 47.3697 11.82C47.4764 11.9266 47.5631 12.1266 47.6297 12.42C47.8831 12.3666 48.1764 12.34 48.5097 12.34C48.8431 12.34 49.0764 12.3933 49.2097 12.5C49.3564 12.5933 49.4297 12.7866 49.4297 13.08C49.4297 13.24 49.4231 13.3666 49.4097 13.46C49.3564 13.8733 49.1897 14.92 48.9097 16.6C48.8564 16.92 48.7964 17.2733 48.7297 17.66C48.6764 18.0333 48.6164 18.4333 48.5497 18.86C49.5764 18.06 50.5631 17.3533 51.5097 16.74C51.6831 16.6333 51.8364 16.58 51.9697 16.58ZM44.9097 19.08C45.2164 19.08 45.5097 18.8933 45.7897 18.52C46.0697 18.1466 46.2697 17.6133 46.3897 16.92L47.0297 13.5C46.4831 13.5133 45.9764 13.7266 45.5097 14.14C45.0431 14.54 44.6697 15.0733 44.3897 15.74C44.1097 16.4066 43.9697 17.1133 43.9697 17.86C43.9697 18.2733 44.0497 18.58 44.2097 18.78C44.3831 18.98 44.6164 19.08 44.9097 19.08ZM43.2497 28.16C43.5831 28.16 43.9564 27.76 44.3697 26.96C44.7964 26.16 45.2031 24.8866 45.5897 23.14C44.5631 24.02 43.8231 24.8133 43.3697 25.52C42.9164 26.2266 42.6897 26.8466 42.6897 27.38C42.6897 27.6066 42.7297 27.7933 42.8097 27.94C42.9031 28.0866 43.0497 28.16 43.2497 28.16Z" fill="black"/>
<path d="M58.88 16.54C59.0534 16.54 59.1867 16.62 59.28 16.78C59.3867 16.94 59.44 17.16 59.44 17.44C59.44 17.9733 59.3134 18.3866 59.06 18.68C58.4867 19.3866 57.86 19.9666 57.18 20.42C56.5134 20.8733 55.7534 21.1 54.9 21.1C53.7267 21.1 52.8534 20.5666 52.28 19.5C51.72 18.4333 51.44 17.0533 51.44 15.36C51.44 13.7333 51.6467 11.88 52.06 9.79995C52.4867 7.71995 53.1067 5.93328 53.92 4.43995C54.7467 2.94662 55.7267 2.19995 56.86 2.19995C57.5 2.19995 58 2.49995 58.36 3.09995C58.7334 3.68662 58.92 4.53329 58.92 5.63995C58.92 7.22662 58.48 9.06662 57.6 11.16C56.72 13.2533 55.5267 15.3266 54.02 17.38C54.1134 17.9266 54.2667 18.32 54.48 18.56C54.6934 18.7866 54.9734 18.9 55.32 18.9C55.8667 18.9 56.3467 18.7466 56.76 18.44C57.1734 18.12 57.7 17.58 58.34 16.82C58.5 16.6333 58.68 16.54 58.88 16.54ZM56.42 4.17995C56.1134 4.17995 55.7667 4.73329 55.38 5.83995C54.9934 6.94662 54.6534 8.31995 54.36 9.95995C54.0667 11.6 53.9067 13.1733 53.88 14.68C54.8267 13.12 55.58 11.56 56.14 9.99995C56.7 8.42662 56.98 6.99328 56.98 5.69995C56.98 4.68662 56.7934 4.17995 56.42 4.17995Z" fill="black"/>
<path d="M64.9835 17.14C65.1568 17.14 65.2901 17.22 65.3835 17.38C65.4901 17.54 65.5435 17.76 65.5435 18.04C65.5435 18.52 65.4301 18.9333 65.2035 19.28C64.8301 19.8533 64.3368 20.3 63.7235 20.62C63.1235 20.94 62.4035 21.1 61.5635 21.1C60.2835 21.1 59.2901 20.72 58.5835 19.96C57.8768 19.1866 57.5235 18.1466 57.5235 16.84C57.5235 15.92 57.7168 15.0666 58.1035 14.28C58.4901 13.48 59.0235 12.8466 59.7035 12.38C60.3968 11.9133 61.1768 11.68 62.0435 11.68C62.8168 11.68 63.4368 11.9133 63.9035 12.38C64.3701 12.8333 64.6035 13.4533 64.6035 14.24C64.6035 15.16 64.2701 15.9533 63.6035 16.62C62.9501 17.2733 61.8301 17.7933 60.2435 18.18C60.5635 18.7933 61.1035 19.1 61.8635 19.1C62.4101 19.1 62.8568 18.9733 63.2035 18.72C63.5635 18.4666 63.9768 18.04 64.4435 17.44C64.6035 17.24 64.7835 17.14 64.9835 17.14ZM61.7035 13.64C61.2101 13.64 60.7901 13.9266 60.4435 14.5C60.1101 15.0733 59.9435 15.7666 59.9435 16.58V16.62C60.7301 16.4333 61.3501 16.1533 61.8035 15.78C62.2568 15.4066 62.4835 14.9733 62.4835 14.48C62.4835 14.2266 62.4101 14.0266 62.2635 13.88C62.1301 13.72 61.9435 13.64 61.7035 13.64Z" fill="black"/>
<path fill-rule="evenodd" clip-rule="evenodd" d="M7.05 14.6C7.54706 13.9373 8.48726 13.8029 9.15 14.3C11.7213 16.2285 13.889 16.227 15.8784 15.8954C16.6956 15.7592 17.4684 16.3112 17.6046 17.1284C17.7408 17.9456 17.1888 18.7184 16.3716 18.8546C13.861 19.273 10.7786 19.2715 7.35 16.7C6.68726 16.2029 6.55294 15.2627 7.05 14.6Z" fill="black"/>
<path d="M0.792071 21.9187L0.797624 21.9257L0.803343 21.9326C1.37157 22.6166 2.11107 23 2.9874 23C4.33915 23 5.7299 22.3587 7.13929 21.2453C7.84364 20.6888 8.63349 19.9616 9.50705 19.071C9.74081 18.8383 9.98069 18.5933 10.2267 18.3361C9.49322 18.0465 8.73828 17.6552 7.96456 17.1365C7.21554 17.8687 6.59423 18.4405 6.09805 18.8564L6.09277 18.8608L6.08758 18.8653C5.49669 19.3794 5.22953 19.6266 4.63196 20.0517C3.70996 20.7075 3.01979 20.8266 2.72327 20.7958C2.50801 20.7733 2.41387 20.6164 2.41387 20.3197C2.41387 19.6646 2.74998 18.6234 3.57796 17.1334C4.40426 15.6841 5.56364 14.1376 7.06822 12.4942C7.84052 11.6621 8.54936 10.9121 9.1949 10.2439C9.85305 9.58418 10.4649 9.01968 11.0306 8.5482L11.0357 8.54389C12.1391 7.60758 13.3199 6.82834 14.5786 6.20441C14.6964 6.15399 14.8375 6.07124 14.9565 5.93235C15.1009 5.76394 15.1765 5.55448 15.1765 5.33703C15.1765 4.96713 14.9958 4.63438 14.6678 4.43949C14.4012 4.28112 14.0981 4.25 13.8592 4.25C13.1252 4.25 12.3148 4.52726 11.4595 4.98084C10.593 5.4404 9.61676 6.11553 8.53471 6.99052L8.53188 6.99283C7.45382 7.87331 6.43061 8.83688 5.46221 9.88307C4.49574 10.9272 3.57372 12.0532 2.6959 13.2606L2.69515 13.2616C0.968566 15.645 0 17.7677 0 19.5844C0 20.4581 0.260995 21.2474 0.792071 21.9187Z" fill="black"/>
<path d="M10.1231 14.9521C10.9325 15.4298 11.7017 15.7224 12.4387 15.8864C12.4496 15.8737 12.4605 15.861 12.4714 15.8483C13.5142 14.6622 14.3644 13.6902 15.0214 12.9327C14.9444 13.8179 14.9055 14.6362 14.9055 15.3868C14.9055 15.6036 14.9088 15.8155 14.9155 16.0221C15.2416 15.9925 15.5622 15.9481 15.8784 15.8954C16.6956 15.7592 17.4684 16.3112 17.6046 17.1284C17.7408 17.9456 17.1888 18.7184 16.3716 18.8546C16.0509 18.908 15.7209 18.9547 15.382 18.99C15.4557 19.2012 15.5386 19.3993 15.6312 19.5838C15.8913 20.102 16.2393 20.5353 16.6941 20.8373C17.1535 21.1423 17.6782 21.2842 18.2395 21.2842C20.0477 21.2842 21.4565 20.2128 22.4851 18.3904L22.487 18.387C23.5044 16.5625 24 14.4513 24 12.0777C24 10.5886 23.7835 9.32559 23.2917 8.34367C22.8063 7.35431 22.0993 6.72053 20.9811 6.63988C20.5992 6.61233 20.2835 6.66479 20.0068 6.74887C19.7821 6.81713 19.2227 7.05566 19.2227 7.69627C19.2227 7.89109 19.2955 8.03469 19.3403 8.10736C19.3879 8.18441 19.4149 8.21386 19.4735 8.27229C19.5941 8.39243 19.6992 8.4248 19.8428 8.50381C20.3233 8.7683 20.5963 8.92449 20.8492 9.48367C21.1131 10.0673 21.271 10.9254 21.271 12.1083C21.271 13.6072 21.2184 15.0791 20.5111 16.8478C20.1601 17.7154 19.6863 18.4166 19.3532 18.777C19.0469 19.1083 18.917 19.1619 18.6455 19.1619C18.1663 19.1619 18.0364 18.6302 17.9463 18.2611C17.9384 18.2285 17.9307 18.1971 17.9231 18.1675C17.7661 17.5525 17.729 16.0564 17.729 14.0999C17.729 13.2072 17.7905 11.839 17.9163 9.98369L17.9181 9.95835V9.93295C17.9181 9.63743 17.8135 9.30097 17.5104 9.0652C17.3639 8.95125 17.2428 8.89765 17.0499 8.85246C16.9863 8.83756 16.8849 8.82519 16.8849 8.82519C16.818 8.81793 16.7542 8.81528 16.6954 8.81528C16.44 8.81528 16.231 8.93322 16.1485 8.98089C16.0302 9.04921 15.906 9.13813 15.7822 9.23503C15.532 9.43076 15.2182 9.71049 14.847 10.0636C14.1013 10.7731 13.0734 11.8272 11.768 13.2192C11.1854 13.8405 10.6371 14.4181 10.1231 14.9521Z" fill="black"/>
</svg>
