<svg width="48" height="48" viewBox="0 0 48 48" fill="none" xmlns="http://www.w3.org/2000/svg">
<rect width="48" height="48" rx="24" fill="black"/>
<path fill-rule="evenodd" clip-rule="evenodd" d="M18.225 24.592C18.8049 23.8497 19.9018 23.6993 20.675 24.256C23.6749 26.4159 26.2038 26.4142 28.5248 26.0429C29.4781 25.8903 30.3798 26.5086 30.5387 27.4238C30.6976 28.339 30.0535 29.2046 29.1002 29.3571C26.1712 29.8258 22.5751 29.8241 18.575 26.944C17.8018 26.3873 17.6451 25.3343 18.225 24.592Z" fill="white"/>
<path d="M10.9241 32.789L10.9306 32.7968L10.9372 32.8045C11.6002 33.5706 12.4629 34 13.4853 34C15.0623 34 16.6849 33.2817 18.3292 32.0347C19.1509 31.4115 20.0724 30.597 21.0916 29.5996C21.3643 29.3389 21.6441 29.0645 21.9311 28.7764C21.0754 28.4521 20.1947 28.0138 19.292 27.4328C18.4181 28.253 17.6933 28.8934 17.1144 29.3591L17.1082 29.3641L17.1022 29.3692C16.4128 29.9449 16.1011 30.2218 15.404 30.6979C14.3283 31.4324 13.5231 31.5658 13.1771 31.5312C12.926 31.5062 12.8162 31.3304 12.8162 30.9981C12.8162 30.2644 13.2083 29.0982 14.1743 27.4294C15.1383 25.8062 16.4909 24.0741 18.2463 22.2335C19.1473 21.3016 19.9742 20.4616 20.7274 19.7132C21.4952 18.9743 22.209 18.342 22.869 17.814L22.875 17.8092C24.1623 16.7605 25.5399 15.8877 27.0084 15.1889C27.1458 15.1325 27.3104 15.0398 27.4493 14.8842C27.6177 14.6956 27.7059 14.461 27.7059 14.2175C27.7059 13.8032 27.4951 13.4305 27.1124 13.2122C26.8014 13.0349 26.4478 13 26.1691 13C25.3128 13 24.3673 13.3105 23.3694 13.8185C22.3585 14.3333 21.2196 15.0894 19.9572 16.0694L19.9539 16.072C18.6961 17.0581 17.5024 18.1373 16.3726 19.309C15.245 20.4784 14.1693 21.7396 13.1452 23.0918L13.1443 23.093C11.13 25.7624 10 28.1399 10 30.1745C10 31.1531 10.3045 32.0371 10.9241 32.789Z" fill="white"/>
<path d="M21.8103 24.9864C22.7546 25.5213 23.652 25.8491 24.5118 26.0327C24.5245 26.0185 24.5372 26.0043 24.55 25.9901C25.7666 24.6616 26.7584 23.573 27.5249 22.7246C27.4351 23.716 27.3897 24.6325 27.3897 25.4732C27.3897 25.716 27.3936 25.9533 27.4014 26.1848C27.7818 26.1517 28.156 26.1019 28.5248 26.0429C29.4781 25.8903 30.3798 26.5086 30.5387 27.4238C30.6976 28.339 30.0535 29.2046 29.1002 29.3571C28.726 29.417 28.341 29.4693 27.9456 29.5088C28.0316 29.7454 28.1283 29.9673 28.2364 30.1739C28.5399 30.7542 28.9458 31.2395 29.4765 31.5778C30.0124 31.9194 30.6246 32.0783 31.2794 32.0783C33.3889 32.0783 35.0326 30.8783 36.2326 28.8373L36.2348 28.8335C37.4218 26.79 38 24.4254 38 21.767C38 20.0993 37.7474 18.6847 37.1737 17.5849C36.6074 16.4768 35.7826 15.767 34.4779 15.6767C34.0324 15.6458 33.664 15.7046 33.3412 15.7987C33.0791 15.8752 32.4265 16.1423 32.4265 16.8598C32.4265 17.078 32.5114 17.2389 32.5637 17.3202C32.6192 17.4065 32.6507 17.4395 32.7191 17.505C32.8597 17.6395 32.9824 17.6758 33.1499 17.7643C33.7106 18.0605 34.029 18.2354 34.3241 18.8617C34.632 19.5154 34.8162 20.4764 34.8162 21.8013C34.8162 23.4801 34.7547 25.1286 33.9296 27.1096C33.5201 28.0812 32.9674 28.8666 32.5787 29.2702C32.2214 29.6413 32.0698 29.7013 31.7531 29.7013C31.194 29.7013 31.0425 29.1058 30.9374 28.6924C30.9281 28.6559 30.9191 28.6208 30.9103 28.5876C30.7271 27.8988 30.6838 26.2232 30.6838 24.0319C30.6838 23.0321 30.7556 21.4997 30.9024 19.4217L30.9044 19.3934V19.3649C30.9044 19.0339 30.7824 18.6571 30.4288 18.393C30.2579 18.2654 30.1166 18.2054 29.8916 18.1548C29.8174 18.1381 29.699 18.1242 29.699 18.1242C29.621 18.1161 29.5466 18.1131 29.4779 18.1131C29.1801 18.1131 28.9362 18.2452 28.8399 18.2986C28.7019 18.3751 28.557 18.4747 28.4126 18.5832C28.1207 18.8024 27.7546 19.1158 27.3215 19.5113C26.4515 20.3058 25.2523 21.4865 23.7294 23.0455C23.0497 23.7414 22.41 24.3883 21.8103 24.9864Z" fill="white"/>
</svg>
