<svg width="24" height="24" viewBox="0 0 24 24" fill="none" xmlns="http://www.w3.org/2000/svg">
<path d="M4.29727 18.4961C4.12123 19.0689 3.99609 20 3.99609 20H19.9961C19.9961 20 19.871 19.0689 19.695 18.4961C18.743 15.3982 16.2953 13.5988 13.3303 13.1094C12.4469 12.9635 11.5453 12.9635 10.662 13.1094C7.69688 13.5988 5.24931 15.3982 4.29727 18.4961Z" fill="white"/>
<path d="M16 8C16 10.2091 14.2091 12 12 12C9.79086 12 8 10.2091 8 8C8 5.79086 9.79086 4 12 4C14.2091 4 16 5.79086 16 8Z" fill="white"/>
<path d="M16 8C16 10.2091 14.2091 12 12 12C9.79086 12 8 10.2091 8 8C8 5.79086 9.79086 4 12 4C14.2091 4 16 5.79086 16 8Z" fill="white"/>
<path d="M16 8C16 10.2091 14.2091 12 12 12C9.79086 12 8 10.2091 8 8C8 5.79086 9.79086 4 12 4C14.2091 4 16 5.79086 16 8Z" fill="white"/>
</svg>
