<svg width="24" height="24" viewBox="0 0 24 24" fill="none" xmlns="http://www.w3.org/2000/svg">
<path fill-rule="evenodd" clip-rule="evenodd" d="M10.6477 4C6.98188 4 4 6.98258 4 10.6491C4 14.3155 6.98188 17.2981 10.6477 17.2981C12.1319 17.2981 13.5045 16.8089 14.6118 15.9837L19.6017 21.0001L21 19.6104L16.002 14.5859C16.8146 13.4832 17.2955 12.121 17.2955 10.6491C17.2955 6.98258 14.3136 4 10.6477 4ZM5.97122 10.6491C5.97122 8.07004 8.0694 5.97151 10.6477 5.97151C13.2261 5.97151 15.3243 8.07004 15.3243 10.6491C15.3243 13.2281 13.2261 15.3266 10.6477 15.3266C8.0694 15.3266 5.97122 13.2281 5.97122 10.6491Z" fill="white"/>
</svg>
