<svg width="24" height="24" viewBox="0 0 24 24" fill="none" xmlns="http://www.w3.org/2000/svg">
<path d="M12 6C8.68629 6 6 8.68629 6 12C6 15.3137 8.68629 18 12 18C14.6112 18 16.8351 16.3312 17.6589 14H19.7477C19.7231 14.0958 19.6967 14.1909 19.6686 14.2853C18.6853 17.5891 15.6255 20 12 20C7.58172 20 4 16.4183 4 12C4 7.58172 7.58172 4 12 4C14.1794 4 16.157 4.87283 17.5989 6.28576C17.6183 6.30479 17.6376 6.32392 17.6569 6.34315L20 4.00018V10H14L16.2426 7.75736C16.2282 7.74291 16.2137 7.72854 16.1991 7.71424C15.1159 6.65279 13.6352 6 12 6Z" fill="white"/>
</svg>
