<svg width="327" height="262" viewBox="0 0 327 262" fill="none" xmlns="http://www.w3.org/2000/svg">
<ellipse cx="63" cy="198" rx="33" ry="16" fill="#FF8934"/>
<ellipse cx="112" cy="92" rx="33" ry="16" fill="#F4B000"/>
<ellipse cx="263" cy="128" rx="33" ry="16" fill="#07BE75"/>
<ellipse cx="231" cy="232" rx="33" ry="16" fill="#1B86FF"/>
<path d="M146.556 128.172C147.267 123.582 150.389 117.018 158.634 117L170.759 117C180.139 117.018 184.174 125.114 184.885 129.705L190.726 166.755C191.684 169.002 192.085 174.091 191.985 176.529C191.58 186.377 186.461 195 176.108 195L153.957 195C142.341 195 133.458 184.72 135.224 173.32L146.556 128.172Z" fill="black"/>
<path d="M160 132C160 132.552 159.552 133 159 133C158.448 133 158 132.552 158 132C158 131.448 158.448 131 159 131C159.552 131 160 131.448 160 132Z" fill="white"/>
<path d="M172 132C172 132.552 171.552 133 171 133C170.448 133 170 132.552 170 132C170 131.448 170.448 131 171 131C171.552 131 172 131.448 172 132Z" fill="white"/>
<path d="M166.93 133L164.07 133C163.084 133 162.625 133.722 163.367 134.105L164.797 134.844C165.199 135.052 165.801 135.052 166.203 134.844L167.633 134.105C168.375 133.722 167.916 133 166.93 133Z" fill="white"/>
<path d="M161.326 203.172C162.868 207.606 170.042 209.153 177.35 206.629C184.658 204.104 189.333 198.463 187.791 194.029C186.25 189.595 179.076 188.047 171.767 190.571C164.459 193.096 159.785 198.737 161.326 203.172Z" fill="black"/>
<path d="M121.963 195.316C123.116 199.867 130.345 201.972 138.112 200.018C145.878 198.064 151.239 192.791 150.087 188.24C148.934 183.689 141.704 181.584 133.938 183.538C126.172 185.492 120.811 190.766 121.963 195.316Z" fill="black"/>
<path d="M159.538 108.624C152.044 110.014 150.951 116.444 149 119.92L183 121L181.784 115.058C180.264 109.712 175.897 109.203 174.336 108.624C171.004 107.964 167.426 107.636 159.538 108.624Z" fill="#FF8934"/>
<path d="M172.434 89.0016C165.699 91.1362 167.21 109.024 168.807 117.701C169.241 120.059 171.626 121.783 173.569 118.847C179.094 112.627 180.853 86.3332 172.434 89.0016Z" fill="black"/>
<path d="M158.566 89.0016C165.301 91.1362 163.79 109.024 162.193 117.701C161.759 120.059 159.374 121.783 157.431 118.847C151.906 112.627 150.147 86.3332 158.566 89.0016Z" fill="black"/>
<path d="M185.527 121.769C185.527 121.162 185.124 120.613 184.5 120.369L183.027 119.815C171.651 115.376 159.192 114.751 147.413 118.254C146.782 118.441 146.357 118.967 146.357 119.56L146 122.385C146 123.422 147.093 124.184 148.222 123.932C159.392 121.442 171.139 121.966 181.974 125.439L183.401 125.896C184.667 126.302 186 125.466 186 124.267L185.527 121.769Z" fill="#FFDABF"/>
<path fill-rule="evenodd" clip-rule="evenodd" d="M160.302 143.355C161.488 143.096 162.383 143.315 163.041 143.659C164.413 144.376 165.481 146.915 163.104 150.395L163.1 150.401L163.096 150.407C160.547 153.528 159.23 154.966 156.075 156.735C155.99 156.783 155.881 156.756 155.831 156.674C155.781 156.593 155.81 156.489 155.895 156.441C158.991 154.706 160.275 153.308 162.811 150.203C165.12 146.816 163.986 144.541 162.87 143.958C162.283 143.651 161.477 143.448 160.381 143.687C159.279 143.927 157.874 144.616 156.103 146.119C154.517 147.465 153.041 147.79 150.198 148.227C150.101 148.242 150.01 148.179 149.994 148.086C149.979 147.993 150.045 147.905 150.142 147.89C152.982 147.454 154.364 147.139 155.867 145.864C157.664 144.339 159.121 143.612 160.302 143.355Z" fill="white"/>
<path fill-rule="evenodd" clip-rule="evenodd" d="M160.25 143.119C161.495 142.848 162.448 143.076 163.153 143.445C164.704 144.255 165.727 146.984 163.304 150.531L163.294 150.546L163.283 150.56C160.727 153.689 159.388 155.155 156.193 156.946C155.998 157.055 155.744 156.996 155.625 156.8C155.501 156.598 155.576 156.343 155.776 156.231C158.831 154.519 160.092 153.149 162.616 150.059C164.871 146.746 163.696 144.662 162.758 144.172C162.219 143.89 161.47 143.697 160.432 143.923C159.382 144.152 158.012 144.816 156.259 146.303C154.617 147.697 153.079 148.028 150.235 148.465C150.016 148.499 149.795 148.357 149.756 148.126C149.716 147.891 149.884 147.686 150.105 147.652C152.944 147.216 154.264 146.907 155.71 145.68C157.525 144.14 159.018 143.387 160.25 143.119Z" fill="white"/>
<circle cx="194" cy="169" r="5" fill="black"/>
<path fill-rule="evenodd" clip-rule="evenodd" d="M42 172C42 170.895 42.8954 170 44 170C45.1046 170 46 170.895 46 172L46 177.001C46.028 177 46.056 177 46.0841 177L47.9159 177C48.2859 177 48.6482 177.033 49 177.096L49 172C49 170.895 49.8954 170 51 170C52.1046 170 53 170.895 53 172L53 179.741C53.6321 180.7 54 181.849 54 183.084L54 193.916C54 197.276 51.276 200 47.9159 200L46.0841 200C42.724 200 40 197.276 40 193.916L40 183.084C40 181.296 40.7716 179.688 42 178.574L42 172Z" fill="#333333"/>
<path d="M50 182.5C50 182.776 49.7761 183 49.5 183C49.2239 183 49 182.776 49 182.5C49 182.224 49.2239 182 49.5 182C49.7761 182 50 182.224 50 182.5Z" fill="white"/>
<path d="M46 182.5C46 182.776 45.7761 183 45.5 183C45.2239 183 45 182.776 45 182.5C45 182.224 45.2239 182 45.5 182C45.7761 182 46 182.224 46 182.5Z" fill="white"/>
<path fill-rule="evenodd" clip-rule="evenodd" d="M58 164C58 162.895 58.8954 162 60 162C61.1046 162 62 162.895 62 164L62 169.001C62.028 169 62.056 169 62.0841 169L63.9159 169C64.2859 169 64.6482 169.033 65 169.096L65 164C65 162.895 65.8954 162 67 162C68.1046 162 69 162.895 69 164L69 171.741C69.6321 172.7 70 173.849 70 175.084L70 185.916C70 189.276 67.276 192 63.9159 192L62.0841 192C58.724 192 56 189.276 56 185.916L56 175.084C56 173.296 56.7716 171.688 58 170.574L58 164Z" fill="#333333"/>
<path d="M66 174.5C66 174.776 65.7761 175 65.5 175C65.2239 175 65 174.776 65 174.5C65 174.224 65.2239 174 65.5 174C65.7761 174 66 174.224 66 174.5Z" fill="white"/>
<path d="M62 174.5C62 174.776 61.7761 175 61.5 175C61.2239 175 61 174.776 61 174.5C61 174.224 61.2239 174 61.5 174C61.7761 174 62 174.224 62 174.5Z" fill="white"/>
<path fill-rule="evenodd" clip-rule="evenodd" d="M75 172C75 170.895 75.8954 170 77 170C78.1046 170 79 170.895 79 172L79 177.001C79.028 177 79.056 177 79.0841 177L80.9159 177C81.2859 177 81.6482 177.033 82 177.096L82 172C82 170.895 82.8954 170 84 170C85.1046 170 86 170.895 86 172L86 179.741C86.6321 180.7 87 181.849 87 183.084L87 193.916C87 197.276 84.276 200 80.9159 200L79.0841 200C75.724 200 73 197.276 73 193.916L73 183.084C73 181.296 73.7716 179.688 75 178.574L75 172Z" fill="#333333"/>
<path d="M83 182.5C83 182.776 82.7761 183 82.5 183C82.2239 183 82 182.776 82 182.5C82 182.224 82.2239 182 82.5 182C82.7761 182 83 182.224 83 182.5Z" fill="white"/>
<path d="M79 182.5C79 182.776 78.7761 183 78.5 183C78.2239 183 78 182.776 78 182.5C78 182.224 78.2239 182 78.5 182C78.7761 182 79 182.224 79 182.5Z" fill="white"/>
<path fill-rule="evenodd" clip-rule="evenodd" d="M116 63C116 61.8954 116.895 61 118 61C119.105 61 120 61.8954 120 63L120 68.0006C120.028 68.0002 120.056 68 120.084 68L121.916 68C122.286 68 122.648 68.033 123 68.0963L123 63C123 61.8954 123.895 61 125 61C126.105 61 127 61.8954 127 63L127 70.741C127.632 71.7004 128 72.8493 128 74.0841L128 84.9159C128 88.276 125.276 91 121.916 91L120.084 91C116.724 91 114 88.276 114 84.9159L114 74.0841C114 72.2958 114.772 70.6876 116 69.5745L116 63Z" fill="#333333"/>
<path d="M124 73.5C124 73.7761 123.776 74 123.5 74C123.224 74 123 73.7761 123 73.5C123 73.2239 123.224 73 123.5 73C123.776 73 124 73.2239 124 73.5Z" fill="white"/>
<path d="M120 73.5C120 73.7761 119.776 74 119.5 74C119.224 74 119 73.7761 119 73.5C119 73.2239 119.224 73 119.5 73C119.776 73 120 73.2239 120 73.5Z" fill="white"/>
<path fill-rule="evenodd" clip-rule="evenodd" d="M100 63C100 61.8954 100.895 61 102 61C103.105 61 104 61.8954 104 63L104 68.0006C104.028 68.0002 104.056 68 104.084 68L105.916 68C106.286 68 106.648 68.033 107 68.0963L107 63C107 61.8954 107.895 61 109 61C110.105 61 111 61.8954 111 63L111 70.741C111.632 71.7004 112 72.8493 112 74.0841L112 84.9159C112 88.276 109.276 91 105.916 91L104.084 91C100.724 91 98 88.276 98 84.9159L98 74.0841C98 72.2958 98.7716 70.6876 100 69.5745L100 63Z" fill="#333333"/>
<path d="M108 73.5C108 73.7761 107.776 74 107.5 74C107.224 74 107 73.7761 107 73.5C107 73.2239 107.224 73 107.5 73C107.776 73 108 73.2239 108 73.5Z" fill="white"/>
<path d="M104 73.5C104 73.7761 103.776 74 103.5 74C103.224 74 103 73.7761 103 73.5C103 73.2239 103.224 73 103.5 73C103.776 73 104 73.2239 104 73.5Z" fill="white"/>
<path fill-rule="evenodd" clip-rule="evenodd" d="M226 201C226 199.895 226.895 199 228 199C229.105 199 230 199.895 230 201L230 206.001C230.028 206 230.056 206 230.084 206L231.916 206C232.286 206 232.648 206.033 233 206.096L233 201C233 199.895 233.895 199 235 199C236.105 199 237 199.895 237 201L237 208.741C237.632 209.7 238 210.849 238 212.084L238 222.916C238 226.276 235.276 229 231.916 229L230.084 229C226.724 229 224 226.276 224 222.916L224 212.084C224 210.296 224.772 208.688 226 207.574L226 201Z" fill="#333333"/>
<path d="M234 211.5C234 211.776 233.776 212 233.5 212C233.224 212 233 211.776 233 211.5C233 211.224 233.224 211 233.5 211C233.776 211 234 211.224 234 211.5Z" fill="white"/>
<path d="M230 211.5C230 211.776 229.776 212 229.5 212C229.224 212 229 211.776 229 211.5C229 211.224 229.224 211 229.5 211C229.776 211 230 211.224 230 211.5Z" fill="white"/>
<path fill-rule="evenodd" clip-rule="evenodd" d="M251 99C251 97.8954 251.895 97 253 97C254.105 97 255 97.8954 255 99L255 104.001C255.028 104 255.056 104 255.084 104L256.916 104C257.286 104 257.648 104.033 258 104.096L258 99C258 97.8954 258.895 97 260 97C261.105 97 262 97.8954 262 99L262 106.741C262.632 107.7 263 108.849 263 110.084L263 120.916C263 124.276 260.276 127 256.916 127L255.084 127C251.724 127 249 124.276 249 120.916L249 110.084C249 108.296 249.772 106.688 251 105.574L251 99Z" fill="#333333"/>
<path d="M259 109.5C259 109.776 258.776 110 258.5 110C258.224 110 258 109.776 258 109.5C258 109.224 258.224 109 258.5 109C258.776 109 259 109.224 259 109.5Z" fill="white"/>
<path d="M255 109.5C255 109.776 254.776 110 254.5 110C254.224 110 254 109.776 254 109.5C254 109.224 254.224 109 254.5 109C254.776 109 255 109.224 255 109.5Z" fill="white"/>
<path fill-rule="evenodd" clip-rule="evenodd" d="M267 99C267 97.8954 267.895 97 269 97C270.105 97 271 97.8954 271 99L271 104.001C271.028 104 271.056 104 271.084 104L272.916 104C273.286 104 273.648 104.033 274 104.096L274 99C274 97.8954 274.895 97 276 97C277.105 97 278 97.8954 278 99L278 106.741C278.632 107.7 279 108.849 279 110.084L279 120.916C279 124.276 276.276 127 272.916 127L271.084 127C267.724 127 265 124.276 265 120.916L265 110.084C265 108.296 265.772 106.688 267 105.574L267 99Z" fill="#333333"/>
<path d="M275 109.5C275 109.776 274.776 110 274.5 110C274.224 110 274 109.776 274 109.5C274 109.224 274.224 109 274.5 109C274.776 109 275 109.224 275 109.5Z" fill="white"/>
<path d="M271 109.5C271 109.776 270.776 110 270.5 110C270.224 110 270 109.776 270 109.5C270 109.224 270.224 109 270.5 109C270.776 109 271 109.224 271 109.5Z" fill="white"/>
<path d="M132 33.3592C132 43.2854 122.604 51.7578 115.427 52.5875C114.102 52.7406 113.085 55.3791 112.5 57C111.853 55.3485 110.775 52.7299 109.543 52.5875C101.564 51.6652 93.4313 43.4211 93 33.3592C93 22.6674 101.73 14 112.5 14C123.27 14 132 22.6674 132 33.3592Z" fill="#1C1C1C"/>
<path d="M112.114 28.5107V26.0808C112.237 26.1129 112.367 26.1301 112.5 26.1301C112.633 26.1301 112.763 26.1129 112.886 26.0808V28.5107C112.761 28.4894 112.632 28.4783 112.5 28.4783C112.368 28.4783 112.239 28.4894 112.114 28.5107Z" fill="white"/>
<path d="M111.157 28.9122L109.195 26.9252C109.062 27.1531 108.874 27.3439 108.649 27.4786L110.611 29.4655C110.761 29.2516 110.946 29.0644 111.157 28.9122Z" fill="white"/>
<path d="M113.843 28.9122C114.054 29.0645 114.239 29.2517 114.389 29.4655L116.351 27.4786C116.126 27.3439 115.938 27.1531 115.805 26.9252L113.843 28.9122Z" fill="white"/>
<path d="M114.786 30.4344C114.807 30.5618 114.818 30.6926 114.818 30.8261C114.818 30.9593 114.807 31.0899 114.786 31.217H117.958C117.926 31.092 117.909 30.9608 117.909 30.8257C117.909 30.6906 117.926 30.5595 117.958 30.4344H114.786Z" fill="white"/>
<path d="M114.39 32.1862C114.239 32.4001 114.055 32.5874 113.843 32.7397L115.805 34.7263C115.938 34.4983 116.126 34.3075 116.351 34.1729L114.39 32.1862Z" fill="white"/>
<path d="M111.157 32.7397C110.945 32.5874 110.761 32.4002 110.61 32.1863L108.649 34.1729C108.874 34.3076 109.062 34.4984 109.195 34.7263L111.157 32.7397Z" fill="white"/>
<path d="M110.214 31.217C110.193 31.0899 110.182 30.9593 110.182 30.8261C110.182 30.6926 110.193 30.5618 110.214 30.4344H107.042C107.074 30.5595 107.091 30.6906 107.091 30.8257C107.091 30.9608 107.074 31.092 107.042 31.217H110.214Z" fill="white"/>
<path d="M114.045 30.8261C114.045 31.6905 113.354 32.3913 112.5 32.3913C111.646 32.3913 110.955 31.6905 110.955 30.8261C110.955 29.9616 111.646 29.2609 112.5 29.2609C113.354 29.2609 114.045 29.9616 114.045 30.8261Z" fill="white"/>
<path d="M113.912 23.9279C113.671 23.3811 113.129 23 112.5 23C111.871 23 111.329 23.3811 111.088 23.9279C110.256 24.1017 109.478 24.4263 108.783 24.8721C108.526 24.6792 108.208 24.5652 107.864 24.5652C107.01 24.5652 106.318 25.266 106.318 26.1304C106.318 26.4791 106.431 26.8012 106.621 27.0614C106.203 27.7299 105.893 28.4746 105.716 29.2703C105.66 29.2641 105.603 29.2609 105.545 29.2609C104.692 29.2609 104 29.9616 104 30.8261C104 31.6905 104.692 32.3913 105.545 32.3913C105.603 32.3913 105.66 32.3881 105.716 32.3819C105.893 33.1776 106.203 33.9223 106.621 34.5908C106.431 34.851 106.318 35.173 106.318 35.5217C106.318 36.3862 107.01 37.087 107.864 37.087C108.208 37.087 108.526 36.9729 108.783 36.7801C109.191 37.0421 109.628 37.2621 110.088 37.4344L110.316 36.6849C109.95 36.545 109.601 36.371 109.272 36.1667C109.36 35.9701 109.409 35.7517 109.409 35.5217C109.409 34.6573 108.717 33.9565 107.864 33.9565C107.637 33.9565 107.421 34.0061 107.227 34.0952C106.86 33.4899 106.592 32.8166 106.446 32.0983C106.836 31.8143 107.091 31.3499 107.091 30.8257C107.091 30.3015 106.836 29.8379 106.446 29.5538C106.592 28.8356 106.86 28.1623 107.227 27.557C107.421 27.6461 107.637 27.6957 107.864 27.6957C108.717 27.6957 109.409 26.9949 109.409 26.1304C109.409 25.9005 109.36 25.6821 109.272 25.4854C109.791 25.163 110.361 24.9159 110.966 24.7594C111.061 25.5322 111.711 26.1301 112.5 26.1301C113.289 26.1301 113.939 25.5322 114.034 24.7594C114.639 24.9159 115.209 25.163 115.728 25.4854C115.64 25.6821 115.591 25.9005 115.591 26.1304C115.591 26.9949 116.283 27.6957 117.136 27.6957C117.363 27.6957 117.579 27.6461 117.773 27.557C118.14 28.1623 118.408 28.8356 118.554 29.5538C118.164 29.8379 117.909 30.3015 117.909 30.8257C117.909 31.3499 118.164 31.8143 118.554 32.0983C118.408 32.8166 118.14 33.4899 117.773 34.0952C117.579 34.0061 117.363 33.9565 117.136 33.9565C116.283 33.9565 115.591 34.6573 115.591 35.5217C115.591 35.7517 115.64 35.9701 115.728 36.1667C115.399 36.371 115.05 36.545 114.684 36.6849L114.912 37.4344C115.372 37.2621 115.809 37.0421 116.217 36.7801C116.474 36.9729 116.792 37.087 117.136 37.087C117.99 37.087 118.682 36.3862 118.682 35.5217C118.682 35.173 118.569 34.851 118.379 34.5908C118.797 33.9223 119.107 33.1776 119.284 32.3819C119.34 32.3881 119.397 32.3913 119.455 32.3913C120.308 32.3913 121 31.6905 121 30.8261C121 29.9616 120.308 29.2609 119.455 29.2609C119.397 29.2609 119.34 29.2641 119.284 29.2703C119.107 28.4746 118.797 27.7299 118.379 27.0614C118.569 26.8012 118.682 26.4791 118.682 26.1304C118.682 25.266 117.99 24.5652 117.136 24.5652C116.792 24.5652 116.474 24.6792 116.217 24.8721C115.522 24.4263 114.744 24.1017 113.912 23.9279Z" fill="white"/>
<path d="M114.173 37.6643L113.946 36.9148C113.482 37.0273 112.998 37.087 112.5 37.087C112.002 37.087 111.518 37.0273 111.054 36.9148L110.827 37.6643C111.363 37.7984 111.923 37.8696 112.5 37.8696C113.077 37.8696 113.637 37.7984 114.173 37.6643Z" fill="white"/>
<path d="M113.542 32.924C113.315 33.04 113.066 33.1193 112.803 33.154L114.949 40.2174H110.051L112.197 33.154C111.934 33.1193 111.685 33.04 111.458 32.924L109.242 40.2174H105.545V41H119.455V40.2174H115.758L113.542 32.924Z" fill="white"/>
<path d="M82 134.359C82 144.285 72.6043 152.758 65.4265 153.587C64.1019 153.741 63.0853 156.379 62.5 158C61.8531 156.349 60.7749 153.73 59.5427 153.587C51.564 152.665 43.4313 144.421 43 134.359C43 123.667 51.7304 115 62.5 115C73.2696 115 82 123.667 82 134.359Z" fill="#1C1C1C"/>
<path d="M68.2222 130.5H55.7778L55 141H69L68.2222 130.5Z" fill="white"/>
<path d="M59.6667 129.75C59.6667 128.507 60.7113 127.5 62 127.5C63.2887 127.5 64.3333 128.507 64.3333 129.75V130.5H65.8889V129.75C65.8889 127.679 64.1478 126 62 126C59.8522 126 58.1111 127.679 58.1111 129.75V130.5H59.6667V129.75Z" fill="white"/>
<path d="M284 65.3592C284 75.2854 274.604 83.7578 267.427 84.5875C266.102 84.7406 265.085 87.3791 264.5 89C263.853 87.3485 262.775 84.7299 261.543 84.5875C253.564 83.6652 245.431 75.4211 245 65.3592C245 54.6674 253.73 46 264.5 46C275.27 46 284 54.6674 284 65.3592Z" fill="#1C1C1C"/>
<path d="M260.8 60.6646L265 55L269.2 60.6646H267.8L270.6 64.913H269.278L272 69.8696H258L260.722 64.913H259.4L262.2 60.6646H260.8Z" fill="white"/>
<path fill-rule="evenodd" clip-rule="evenodd" d="M264.222 73V69.8696H265.778V73H264.222Z" fill="white"/>
<path d="M251 169.359C251 179.285 241.604 187.758 234.427 188.587C233.102 188.741 232.085 191.379 231.5 193C230.853 191.349 229.775 188.73 228.543 188.587C220.564 187.665 212.431 179.421 212 169.359C212 158.667 220.73 150 231.5 150C242.27 150 251 158.667 251 169.359Z" fill="#1C1C1C"/>
<path fill-rule="evenodd" clip-rule="evenodd" d="M225.778 162H238.222V173.25H236.667L239 177H237.444L236.665 175.748L227.335 175.748L226.556 177H225L227.333 173.25H225.778V162ZM228.889 173.25L228.189 174.375L235.811 174.375L235.111 173.25H228.889ZM227.333 163.5H236.667V168H227.333V163.5ZM228.5 171.75C229.144 171.75 229.667 171.246 229.667 170.625C229.667 170.004 229.144 169.5 228.5 169.5C227.856 169.5 227.333 170.004 227.333 170.625C227.333 171.246 227.856 171.75 228.5 171.75ZM236.667 170.625C236.667 171.246 236.144 171.75 235.5 171.75C234.856 171.75 234.333 171.246 234.333 170.625C234.333 170.004 234.856 169.5 235.5 169.5C236.144 169.5 236.667 170.004 236.667 170.625Z" fill="white"/>
</svg>
