<svg width="52" height="60" viewBox="0 0 52 60" fill="none" xmlns="http://www.w3.org/2000/svg">
<g filter="url(#filter0_d_1301_19222)">
<path d="M46 24C46 40 26 52 26 52C26 52 6 40 6 24C6 12.9543 14.9543 4 26 4C37.0457 4 46 12.9543 46 24Z" fill="#07BE75"/>
<path d="M25.5 19.0415V15.9365C25.6598 15.9777 25.8274 15.9995 26 15.9995C26.1727 15.9995 26.3402 15.9777 26.5 15.9365V19.0415C26.3374 19.0142 26.1704 19 26 19C25.8297 19 25.6626 19.0142 25.5 19.0415Z" fill="white"/>
<path d="M24.262 19.5544L21.7231 17.0155C21.551 17.3067 21.3072 17.5505 21.016 17.7226L23.5548 20.2614C23.7495 19.9882 23.9887 19.749 24.262 19.5544Z" fill="white"/>
<path d="M27.738 19.5545C28.0113 19.749 28.2506 19.9883 28.4452 20.2615L30.9841 17.7227C30.6929 17.5506 30.449 17.3068 30.277 17.0156L27.738 19.5545Z" fill="white"/>
<path d="M28.9584 21.4995C28.9858 21.6623 29 21.8295 29 22C29 22.1702 28.9858 22.3371 28.9586 22.4995H33.063C33.0219 22.3397 33 22.1722 33 21.9995C33 21.8269 33.0219 21.6593 33.063 21.4995H28.9584Z" fill="white"/>
<path d="M28.4456 23.738C28.251 24.0113 28.0118 24.2505 27.7386 24.4452L30.2769 26.9835C30.449 26.6923 30.6928 26.4485 30.984 26.2764L28.4456 23.738Z" fill="white"/>
<path d="M24.2615 24.4452C23.9883 24.2506 23.749 24.0113 23.5545 23.7381L21.0161 26.2765C21.3073 26.4486 21.5511 26.6924 21.7231 26.9836L24.2615 24.4452Z" fill="white"/>
<path d="M23.0414 22.4995C23.0142 22.3371 23 22.1702 23 22C23 21.8295 23.0142 21.6623 23.0416 21.4995H18.937C18.9781 21.6593 19 21.8269 19 21.9995C19 22.1722 18.9781 22.3397 18.937 22.4995H23.0414Z" fill="white"/>
<path d="M28 22C28 23.1046 27.1046 24 26 24C24.8954 24 24 23.1046 24 22C24 20.8954 24.8954 20 26 20C27.1046 20 28 20.8954 28 22Z" fill="white"/>
<path d="M27.8272 13.1856C27.5154 12.4869 26.8145 12 26 12C25.1855 12 24.4846 12.4869 24.1728 13.1856C23.0955 13.4078 22.0886 13.8224 21.1896 14.3921C20.8571 14.1457 20.4456 14 20 14C18.8954 14 18 14.8954 18 16C18 16.4456 18.1457 16.8571 18.3921 17.1896C17.8509 18.0437 17.4495 18.9953 17.2203 20.012C17.148 20.0041 17.0745 20 17 20C15.8954 20 15 20.8954 15 22C15 23.1046 15.8954 24 17 24C17.0745 24 17.148 23.9959 17.2203 23.988C17.4495 25.0047 17.8509 25.9563 18.3921 26.8104C18.1457 27.1429 18 27.5544 18 28C18 29.1046 18.8954 30 20 30C20.4456 30 20.8571 29.8543 21.1896 29.6079C21.7178 29.9426 22.2833 30.2238 22.8785 30.4439L23.1731 29.4862C22.7 29.3075 22.2483 29.0852 21.8228 28.8242C21.9366 28.5729 22 28.2938 22 28C22 26.8954 21.1046 26 20 26C19.7062 26 19.4271 26.0634 19.1758 26.1772C18.7014 25.4037 18.3547 24.5434 18.1653 23.6256C18.6708 23.2627 19 22.6693 19 21.9995C19 21.3297 18.6708 20.7373 18.1653 20.3744C18.3547 19.4566 18.7014 18.5963 19.1758 17.8228C19.4271 17.9366 19.7062 18 20 18C21.1046 18 22 17.1046 22 16C22 15.7062 21.9366 15.4271 21.8228 15.1758C22.4945 14.7638 23.2318 14.4481 24.0152 14.2481C24.1374 15.2356 24.9795 15.9995 26 15.9995C27.0206 15.9995 27.8626 15.2356 27.9848 14.2481C28.7683 14.4481 29.5055 14.7638 30.1772 15.1758C30.0634 15.4272 30 15.7062 30 16C30 17.1046 30.8954 18 32 18C32.2938 18 32.5729 17.9366 32.8242 17.8228C33.2986 18.5963 33.6453 19.4566 33.8347 20.3744C33.3292 20.7373 33 21.3297 33 21.9995C33 22.6693 33.3292 23.2627 33.8347 23.6256C33.6453 24.5434 33.2986 25.4037 32.8242 26.1772C32.5729 26.0634 32.2938 26 32 26C30.8954 26 30 26.8954 30 28C30 28.2938 30.0634 28.5729 30.1772 28.8242C29.7517 29.0852 29.3 29.3075 28.8269 29.4862L29.1215 30.4439C29.7167 30.2238 30.2822 29.9426 30.8104 29.6079C31.1429 29.8543 31.5544 30 32 30C33.1046 30 34 29.1046 34 28C34 27.5544 33.8543 27.1429 33.6079 26.8104C34.1491 25.9563 34.5505 25.0047 34.7797 23.988C34.852 23.9959 34.9255 24 35 24C36.1046 24 37 23.1046 37 22C37 20.8954 36.1046 20 35 20C34.9255 20 34.852 20.0041 34.7797 20.012C34.5505 18.9953 34.1491 18.0437 33.6079 17.1896C33.8543 16.8571 34 16.4456 34 16C34 14.8954 33.1046 14 32 14C31.5544 14 31.1429 14.1457 30.8104 14.3921C29.9114 13.8224 28.9045 13.4078 27.8272 13.1856Z" fill="white"/>
<path d="M28.1657 30.7377L27.871 29.78C27.2708 29.9238 26.6443 30 26 30C25.3557 30 24.7292 29.9238 24.129 29.78L23.8343 30.7377C24.528 30.9091 25.2534 31 26 31C26.7466 31 27.472 30.9091 28.1657 30.7377Z" fill="white"/>
<path d="M27.3482 24.6807C27.0541 24.8289 26.7322 24.9302 26.3924 24.9746L29.1694 34H22.8306L25.6076 24.9746C25.2678 24.9302 24.9459 24.8289 24.6518 24.6807L21.7843 34H17V35H35V34H30.2157L27.3482 24.6807Z" fill="white"/>
</g>
<defs>
<filter id="filter0_d_1301_19222" x="0" y="0" width="52" height="60" filterUnits="userSpaceOnUse" color-interpolation-filters="sRGB">
<feFlood flood-opacity="0" result="BackgroundImageFix"/>
<feColorMatrix in="SourceAlpha" type="matrix" values="0 0 0 0 0 0 0 0 0 0 0 0 0 0 0 0 0 0 127 0" result="hardAlpha"/>
<feOffset dy="2"/>
<feGaussianBlur stdDeviation="3"/>
<feComposite in2="hardAlpha" operator="out"/>
<feColorMatrix type="matrix" values="0 0 0 0 0 0 0 0 0 0 0 0 0 0 0 0 0 0 0.3 0"/>
<feBlend mode="normal" in2="BackgroundImageFix" result="effect1_dropShadow_1301_19222"/>
<feBlend mode="normal" in="SourceGraphic" in2="effect1_dropShadow_1301_19222" result="shape"/>
</filter>
</defs>
</svg>
