<svg width="21" height="20" viewBox="0 0 21 20" fill="none" xmlns="http://www.w3.org/2000/svg">
<path d="M13.8611 17.5C13.2438 17.5 12.7191 17.2812 12.287 16.8438C11.8549 16.4063 11.6389 15.875 11.6389 15.25C11.6389 15.1625 11.6451 15.0717 11.6574 14.9777C11.6698 14.8842 11.6883 14.8 11.713 14.725L6.49074 11.65C6.28086 11.8375 6.0463 11.9842 5.78704 12.0902C5.52778 12.1967 5.25617 12.25 4.97222 12.25C4.35494 12.25 3.83025 12.0312 3.39815 11.5938C2.96605 11.1563 2.75 10.625 2.75 10C2.75 9.375 2.96605 8.84375 3.39815 8.40625C3.83025 7.96875 4.35494 7.75 4.97222 7.75C5.25617 7.75 5.52778 7.803 5.78704 7.909C6.0463 8.0155 6.28086 8.1625 6.49074 8.35L11.713 5.275C11.6883 5.2 11.6698 5.11575 11.6574 5.02225C11.6451 4.92825 11.6389 4.8375 11.6389 4.75C11.6389 4.125 11.8549 3.59375 12.287 3.15625C12.7191 2.71875 13.2438 2.5 13.8611 2.5C14.4784 2.5 15.0031 2.71875 15.4352 3.15625C15.8673 3.59375 16.0833 4.125 16.0833 4.75C16.0833 5.375 15.8673 5.90625 15.4352 6.34375C15.0031 6.78125 14.4784 7 13.8611 7C13.5772 7 13.3056 6.94675 13.0463 6.84025C12.787 6.73425 12.5525 6.5875 12.3426 6.4L7.12037 9.475C7.14506 9.55 7.16358 9.63425 7.17593 9.72775C7.18827 9.82175 7.19444 9.9125 7.19444 10C7.19444 10.0875 7.18827 10.178 7.17593 10.2715C7.16358 10.3655 7.14506 10.45 7.12037 10.525L12.3426 13.6C12.5525 13.4125 12.787 13.2655 13.0463 13.159C13.3056 13.053 13.5772 13 13.8611 13C14.4784 13 15.0031 13.2188 15.4352 13.6562C15.8673 14.0937 16.0833 14.625 16.0833 15.25C16.0833 15.875 15.8673 16.4063 15.4352 16.8438C15.0031 17.2812 14.4784 17.5 13.8611 17.5Z" fill="black"/>
</svg>
