<svg width="800" height="400" viewBox="0 0 800 400" fill="none" xmlns="http://www.w3.org/2000/svg">
<g clip-path="url(#clip0_488_6835)">
<rect width="800" height="400" fill="#050930"/>
<path d="M466.864 438.066C499.678 419.466 527.163 375.897 527.556 359.912C548.522 346.066 568.7 336.378 555.664 380.6C542.628 424.823 504.799 449.249 487.514 455.934C470.031 467.273 434.05 456.667 466.864 438.066Z" fill="#FFADAD"/>
<path d="M587.23 485.331C620.044 466.731 629.033 430.112 629.425 414.127C650.392 400.281 689.066 383.644 676.03 427.866C662.994 472.088 625.165 496.514 607.88 503.199C590.397 514.538 554.416 503.932 587.23 485.331Z" fill="#FFADAD"/>
<path d="M681.799 476.063C662.988 453.554 656.811 426.287 656.074 415.467C672.678 375.125 704.058 400.554 717.672 418.311C710.925 433.207 706.423 448.48 714.259 473.851C722.094 499.223 690.114 539.773 664.546 534.592C638.978 529.411 638.543 522.893 658.054 512.652C674.658 503.938 688.175 490.402 681.799 476.063Z" fill="#FFCFCF"/>
<path d="M534.238 276.036C546.859 248.191 570.717 258.897 584.614 266.613C597.377 271.701 601.118 284.029 603.334 288.4C607.731 307.931 606.855 341.691 552.65 329.749C498.444 317.806 502.267 289.451 510.954 276.766C519.98 279.427 530.624 284.011 534.238 276.036Z" fill="#FFCFCF"/>
<path d="M513.663 282.82C511.435 284.326 508.387 283.428 507.332 280.954L506.893 279.924C505.474 276.597 508.568 273.12 512.037 274.143L513.405 274.546C516.874 275.569 517.587 280.167 514.591 282.193L513.663 282.82Z" fill="black"/>
<path d="M564.609 422.651C507.249 409.89 527.035 338.003 544.097 303.655C560.863 302.819 596.522 305.578 605.031 323.297C613.54 341.016 654.775 354.147 674.33 358.497C692.415 362.369 726.892 378.652 720.118 412.814C711.65 455.516 675.787 450.124 657.974 442.966C640.161 435.807 636.308 438.602 564.609 422.651Z" fill="#FFCFCF"/>
<path d="M494.844 466.896C527.658 448.295 536.646 411.676 537.039 395.692C558.005 381.845 596.679 365.208 583.643 409.43C570.607 453.652 532.779 478.078 515.494 484.764C498.011 496.102 462.03 485.496 494.844 466.896Z" fill="#FFCFCF"/>
<path d="M782.169 355.863C767.212 384.35 734.175 387.505 719.123 385.41C712.798 383.094 705.019 381.97 724.503 396.005C737.1 405.077 745.546 401.871 747.266 398.552C753.668 401.367 765.281 404.129 764.533 389.762C791.857 392.882 790.537 379.635 786.461 372.622C792.336 370.291 797.663 356.182 786.307 353.643C784.607 353.263 782.979 354.321 782.169 355.863Z" fill="#FFCFCF"/>
<path d="M612.89 315.951C618.122 269.428 600.209 267.054 590.598 271.682C571.156 280.088 572.658 300.556 577.818 315.036C587.329 334.725 607.658 362.473 612.89 315.951Z" fill="#FFADAD"/>
<path d="M559.291 292.195C558.761 293.991 556.876 295.018 555.081 294.488C553.285 293.959 552.258 292.074 552.788 290.278C553.317 288.482 555.202 287.456 556.998 287.985C558.794 288.514 559.82 290.399 559.291 292.195Z" fill="black"/>
<path d="M580.781 321.207C564.748 327.184 543.52 326.575 534.911 325.524C534.306 327.576 533.096 331.679 531.887 335.784C560.756 340.726 582.22 336.497 588.619 332.437C587.173 329.781 582.228 323.863 580.781 321.207Z" fill="#111111"/>
<circle cx="281.287" cy="186.311" r="1.4594" fill="#888888"/>
<circle cx="457.145" cy="101.666" r="1.4594" fill="#888888"/>
<circle cx="557.844" cy="8.26507" r="1.4594" fill="#888888"/>
<circle cx="427.957" cy="130.854" r="1.4594" fill="#888888"/>
<circle cx="734.459" cy="83.4594" r="1.4594" fill="#888888"/>
<circle cx="133.888" cy="106.043" r="1.4594" fill="#888888"/>
<circle cx="44.1349" cy="227.173" r="1.4594" fill="#888888"/>
<circle cx="32.4594" cy="5.34612" r="1.4594" fill="#888888"/>
<circle cx="432.336" cy="281.172" r="2.9188" fill="#888888"/>
<circle cx="306.827" cy="38.911" r="2.9188" fill="#888888"/>
<circle cx="755.919" cy="199.919" r="2.9188" fill="#888888"/>
<path d="M421.405 318.36L409.815 349.92C399.478 353.419 367.26 391.792 393.936 420.876C404.067 429.858 398.389 428.337 459.619 444.743C536.995 471.744 539.972 425.535 538.252 396.871C541.063 393.338 542.355 390.862 542.598 387.686C542.788 385.206 539.724 384.091 537.374 384.904C530.755 387.195 524.804 383.102 520.919 379.69C507.117 369.771 490.412 364.715 473.425 365.316L467.99 365.508L472.95 335.306C475.832 323.348 474.938 304.496 454.47 299.015C434.003 293.533 424.278 307.639 421.405 318.36Z" fill="white"/>
<path d="M446.363 340.91C446.821 339.2 445.806 337.443 444.097 336.985L409.355 327.676C407.645 327.218 405.888 328.232 405.429 329.942L403.955 335.446C403.497 337.156 404.511 338.913 406.221 339.371L440.963 348.68C442.673 349.138 444.43 348.124 444.888 346.414L446.363 340.91Z" fill="#FF8934"/>
<path d="M454.819 321.047C453.204 320.614 451.544 321.573 451.111 323.187L449.544 329.035C449.112 330.65 450.07 332.31 451.685 332.742C453.3 333.175 454.959 332.217 455.392 330.602L456.959 324.754C457.392 323.14 456.433 321.48 454.819 321.047Z" fill="#111111"/>
<path d="M437.308 316.355C435.693 315.922 434.033 316.88 433.6 318.495L432.033 324.343C431.601 325.958 432.559 327.617 434.174 328.05C435.789 328.483 437.448 327.524 437.881 325.91L439.448 320.062C439.881 318.447 438.922 316.787 437.308 316.355Z" fill="#111111"/>
<path d="M225.652 244.461C221.774 233.218 210.273 226.485 198.571 228.608L144.414 238.433C132.712 240.556 124.309 250.899 124.628 262.788L127.261 360.933L128.941 423.588C129.733 453.114 156.657 474.987 185.719 469.715L241.142 459.66C270.204 454.388 287.728 424.451 278.098 396.528L225.652 244.461Z" fill="white"/>
<path d="M207.321 228.554C208.361 234.282 213.847 238.084 219.576 237.045C225.305 236.005 229.106 230.519 228.067 224.79C227.028 219.061 221.541 215.26 215.812 216.299C210.084 217.338 206.282 222.825 207.321 228.554Z" fill="white"/>
<path d="M112.491 245.758C113.53 251.486 119.017 255.288 124.746 254.249C130.475 253.209 134.276 247.723 133.237 241.994C132.198 236.265 126.711 232.464 120.982 233.503C115.253 234.542 111.452 240.029 112.491 245.758Z" fill="white"/>
<path d="M199.493 261.352C199.715 262.579 200.891 263.394 202.119 263.171C203.346 262.948 204.161 261.773 203.938 260.545C203.715 259.317 202.54 258.503 201.312 258.726C200.085 258.948 199.27 260.124 199.493 261.352Z" fill="#111111"/>
<path d="M169.86 266.727C170.083 267.955 171.258 268.77 172.486 268.547C173.713 268.324 174.528 267.149 174.305 265.921C174.083 264.693 172.907 263.879 171.679 264.101C170.452 264.324 169.637 265.5 169.86 266.727Z" fill="#111111"/>
<path d="M196.328 274.92L204.263 273.48C206.999 272.984 208.889 276.145 207.156 278.32L203.819 282.511C202.879 283.691 201.211 283.994 199.916 283.219L195.319 280.468C192.933 279.039 193.592 275.416 196.328 274.92Z" fill="#111111"/>
<path d="M246.707 292.661C246.222 291.441 244.829 290.858 243.619 291.367L-nan -nanL243.619 291.367C205.907 307.247 165.164 314.638 124.277 313.018L-nan -nanL124.277 313.018C122.965 312.966 121.866 314.002 121.839 315.315L121.309 341.89C121.278 343.446 122.513 344.732 124.069 344.763L-nan -nanL124.069 344.763C168.849 345.67 213.357 337.595 254.965 321.017L-nan -nanL254.965 321.017C256.41 320.441 257.115 318.802 256.54 317.357L246.707 292.661Z" fill="#FF3535"/>
<path d="M265.913 367.386C265.913 367.386 245.918 335.16 241.794 319.518C232.881 312.94 215.389 305.87 216.719 330.213C223.427 353.562 237.105 378.758 237.105 378.758L265.913 367.386Z" fill="#FF3535"/>
<path d="M424.81 440.917C394.942 424.733 369.444 385.973 368.815 371.587C349.697 359.479 331.361 351.103 343.86 390.699C356.36 430.295 390.843 451.639 406.523 457.362C422.461 467.271 454.678 457.102 424.81 440.917Z" fill="#8A93E2"/>
<path d="M317.238 485.548C287.37 469.364 278.646 436.544 278.018 422.157C258.9 410.05 223.789 395.734 236.288 435.33C248.787 474.926 283.271 496.27 298.95 501.993C314.888 511.902 347.106 501.733 317.238 485.548Z" fill="#8A93E2"/>
<path d="M231.923 478.829C248.474 458.236 253.567 433.577 254.045 423.821C238.399 387.78 210.58 411.217 198.626 427.442C204.958 440.739 209.275 454.415 202.656 477.395C196.036 500.376 225.531 536.34 248.466 531.235C271.4 526.13 271.679 520.253 253.933 511.367C238.833 503.806 226.428 491.849 231.923 478.829Z" fill="#E2E5FF"/>
<path d="M361.355 296.175C349.511 271.318 328.212 281.369 315.831 288.556C304.426 293.357 301.269 304.523 299.349 308.496C295.726 326.159 297.096 356.544 345.7 344.857C394.305 333.171 390.375 307.704 382.334 296.431C374.252 298.983 364.747 303.293 361.355 296.175Z" fill="#E2E5FF"/>
<path d="M379.999 301.929C382.031 303.247 384.761 302.385 385.668 300.139L386.046 299.204C387.266 296.184 384.42 293.107 381.314 294.087L380.089 294.474C376.983 295.454 376.42 299.607 379.153 301.38L379.999 301.929Z" fill="black"/>
<path d="M336.529 428.718C387.96 416.24 368.907 351.849 352.952 321.212C337.841 320.749 305.779 323.846 298.422 339.948C291.064 356.05 254.159 368.583 236.626 372.837C220.407 376.634 189.642 391.889 196.33 422.535C204.689 460.841 236.89 455.369 252.807 448.617C268.724 441.864 272.241 444.315 336.529 428.718Z" fill="#E2E5FF"/>
<path d="M400.112 467.358C370.244 451.173 361.521 418.354 360.892 403.967C341.774 391.859 306.663 377.543 319.163 417.14C331.662 456.736 366.145 478.08 381.825 483.803C397.763 493.712 429.98 483.542 400.112 467.358Z" fill="#E2E5FF"/>
<path d="M139.475 372.318C153.434 397.713 183.237 399.985 196.754 397.84C202.41 395.646 209.396 394.5 192.092 407.472C180.906 415.859 173.245 413.117 171.639 410.158C165.923 412.803 155.513 415.49 155.94 402.54C131.388 405.819 132.349 393.869 135.899 387.483C130.569 385.486 125.529 372.872 135.711 370.391C137.235 370.019 138.72 370.944 139.475 372.318Z" fill="#E2E5FF"/>
<path d="M291.219 333.468C285.707 291.666 301.796 289.22 310.53 293.222C328.182 300.457 327.181 318.914 322.784 332.041C314.559 349.934 296.73 375.27 291.219 333.468Z" fill="#8A93E2"/>
<path d="M339.074 311.154C339.582 312.762 341.297 313.654 342.905 313.146C344.513 312.639 345.405 310.924 344.897 309.316C344.39 307.708 342.675 306.816 341.067 307.323C339.459 307.831 338.567 309.546 339.074 311.154Z" fill="black"/>
<path d="M320.222 337.645C334.762 342.752 353.866 341.839 361.6 340.744C362.18 342.581 363.34 346.254 364.5 349.93C338.589 354.877 319.189 351.439 313.356 347.893C314.613 345.476 318.964 340.062 320.222 337.645Z" fill="#FF1818"/>
<path d="M134.346 448.204C125.369 445.928 113.161 403.173 114.274 394.439C113.943 383.698 101.476 386.574 91.6037 399.979C82.4168 420.187 108.503 445.502 116.212 457.876C122.379 467.775 129.362 463.815 134.544 461.052C143.178 456.446 143.584 446.809 134.346 448.204Z" fill="#DDDDDD"/>
<path d="M133.586 318.495C132.34 312.21 126.701 307.721 120.54 308.109L111.526 308.676C105.696 309.043 99.8674 307.004 95.3243 303.009L94.7358 302.492C87.1258 295.8 76.499 294.404 67.9356 298.972L57.4197 304.581C45.4589 310.96 40.2762 325.712 45.1965 339.066C46.1041 341.529 47.3386 343.884 48.8523 346.03L51.4006 349.641C59.247 360.762 73.4012 364.989 85.2625 359.754L87.8007 358.634C101.163 352.736 113.494 344.753 124.376 334.957L129.925 329.962C133.049 327.15 134.439 322.797 133.586 318.495Z" fill="white"/>
<path d="M22.4465 387.801C52.5712 365.692 53.0286 354.065 49.574 348.686C51.4321 336.566 85.6028 309.596 108.334 361.864C131.416 414.941 84.1257 456.855 41.9139 476.387C15.0172 488.833 -14.6258 508.131 -39.0517 482.406C-62.928 448.716 -44.9075 425.313 -27.2678 420.475C-18.1764 416.753 -7.67817 409.91 22.4465 387.801Z" fill="white"/>
<path d="M83.3789 348.566C78.7341 339.857 65.4341 317.743 59.3647 307.775C58.2963 306.018 56.317 306.294 52.2443 309.242C42.4709 316.319 41.8768 327.201 42.8014 331.757C42.7154 337.24 44.3287 350.284 51.4701 358.593C58.6114 366.903 71.0626 366.398 76.3955 365.108C80.6586 363.222 88.0237 357.274 83.3789 348.566Z" fill="#DDDDDD"/>
<path d="M105.288 463.564C96.1196 461.318 89.8288 431.151 91.0273 422.29C90.7623 411.402 72.0851 401.311 61.8943 414.967C52.3576 435.517 78.8698 461.002 86.6709 473.493C92.9118 483.486 100.082 479.424 105.402 476.587C114.266 471.859 114.748 462.086 105.288 463.564Z" fill="white"/>
<path d="M84.0864 323.286C84.8417 324.702 86.6019 325.238 88.018 324.483C89.434 323.728 89.9697 321.967 89.2145 320.551C88.4592 319.135 86.699 318.6 85.2829 319.355C83.8668 320.11 83.3312 321.87 84.0864 323.286Z" fill="black"/>
<path d="M129.215 309.099C128.459 307.683 126.699 307.147 125.283 307.903L122.719 309.27C121.303 310.025 120.767 311.786 121.523 313.202C122.278 314.618 124.038 315.154 125.454 314.398L128.018 313.031C129.434 312.275 129.97 310.515 129.215 309.099Z" fill="black"/>
<path d="M22.8971 295.001C42.1099 274.215 68.5653 284.915 79.3913 292.863L40.589 325.085C37.2557 321.922 36.572 320.64 33.2391 317.479C31.221 316.535 29.2726 316.69 27.3816 317.475C22.8004 319.377 17.0876 316.698 17.6429 311.769C18.3898 305.14 19.4346 298.747 22.8971 295.001Z" fill="#07BE75"/>
<path d="M83.671 288.75C81.0693 285.696 76.4842 285.329 73.4298 287.931L34.7478 320.88C31.6935 323.482 31.3265 328.067 33.9282 331.121C36.5299 334.175 41.1151 334.542 44.1694 331.941L82.8514 298.991C85.9057 296.39 86.2727 291.804 83.671 288.75Z" fill="white"/>
<path d="M82.8528 298.991L44.1708 331.94C41.1164 334.542 36.5313 334.175 33.9296 331.121L83.6724 288.75C86.2741 291.804 85.9071 296.389 82.8528 298.991Z" fill="#F2F2F2"/>
<path d="M11.4465 329.104C12.9571 331.936 16.4775 333.008 19.3096 331.497C22.1418 329.986 23.2131 326.466 21.7026 323.634C20.1921 320.802 16.6716 319.73 13.8395 321.241C11.0074 322.751 9.93601 326.272 11.4465 329.104Z" fill="white"/>
<path d="M665.123 315.659C668.448 306.396 682.401 291.631 699.437 294.902L724.481 299.771C743.846 303.575 748.907 322.036 748.52 331.869L744.329 392.941L749.835 418.975C750.904 424.035 751.588 429.269 750.395 434.301C745.576 454.622 725.374 468.327 703.99 464.17L658.238 455.277C634.246 450.614 620.057 425.663 628.314 402.659L665.123 315.659Z" fill="white"/>
<path d="M688.499 320.076C688.302 321.089 687.321 321.751 686.307 321.554C685.294 321.357 684.632 320.376 684.829 319.362C685.026 318.349 686.007 317.687 687.02 317.884C688.034 318.081 688.696 319.062 688.499 320.076Z" fill="black"/>
<path d="M712.961 324.83C712.764 325.844 711.783 326.506 710.77 326.309C709.756 326.112 709.094 325.131 709.291 324.117C709.488 323.104 710.469 322.442 711.483 322.639C712.496 322.836 713.158 323.817 712.961 324.83Z" fill="black"/>
<path d="M694.914 332.33L688.365 331.057C686.105 330.617 684.509 333.213 685.92 335.031L688.638 338.533C689.403 339.52 690.781 339.787 691.86 339.16L695.692 336.931C697.681 335.774 697.173 332.769 694.914 332.33Z" fill="black"/>
<path d="M679.404 279.56L685.88 299.961L698.647 299.892L695.39 279.287C694.52 273.789 694.835 268.169 696.313 262.803L702.739 239.472C704.173 232.099 703.162 226.801 695.297 225.272C687.432 223.743 683.873 231.554 683.077 235.65L678.291 260.274C677.043 266.695 677.426 273.326 679.404 279.56Z" fill="white"/>
<path d="M703.564 274.593C687.287 274.347 682.466 286.903 677.004 293.136L745.683 307.225L747.733 296.681C749.544 287.361 736.107 282.133 733.058 280.325C728.483 277.614 719.84 274.839 703.564 274.593Z" fill="#FFD028"/>
<path d="M731.904 284.57L727.011 296.496L738.345 303.795L745.756 294.159C751.938 286.122 761.059 280.869 771.114 279.557C778.964 278.532 787.184 272.993 786.746 264.746C786.309 256.499 774.093 255.484 768.039 256.008L766.511 256.3C750.94 259.271 737.922 269.905 731.904 284.57Z" fill="white"/>
<path d="M749.847 312.055C750.099 310.758 749.559 309.435 748.472 308.684L745.08 306.341C725.255 292.65 701.057 286.797 677.166 289.915C675.888 290.082 674.86 291.048 674.614 292.313L673.485 298.121C673.054 300.337 674.821 302.367 677.075 302.248C699.385 301.064 721.544 306.534 740.74 317.963L743.269 319.468C745.511 320.803 748.397 319.51 748.895 316.949L749.847 312.055Z" fill="#FFE587"/>
<path fill-rule="evenodd" clip-rule="evenodd" d="M299.25 136.68C301.735 133.499 306.436 132.854 309.75 135.24C322.607 144.497 333.445 144.489 343.392 142.898C347.478 142.244 351.342 144.894 352.023 148.816C352.704 152.739 349.944 156.448 345.858 157.102C333.305 159.111 317.893 159.103 300.75 146.76C297.436 144.374 296.765 139.861 299.25 136.68Z" fill="white"/>
<path d="M267.96 171.81L267.988 171.844L268.017 171.877C270.858 175.16 274.555 177 278.937 177C285.696 177 292.65 173.922 299.696 168.577C303.218 165.906 307.167 162.416 311.535 158.141C312.704 157.024 313.903 155.848 315.133 154.613C311.466 153.223 307.691 151.345 303.823 148.855C300.078 152.37 296.971 155.114 294.49 157.111L294.464 157.132L294.438 157.154C291.483 159.621 290.148 160.808 287.16 162.848C282.55 165.996 279.099 166.568 277.616 166.42C276.54 166.312 276.069 165.559 276.069 164.135C276.069 160.99 277.75 155.992 281.89 148.84C286.021 141.884 291.818 134.461 299.341 126.572C303.203 122.578 306.747 118.978 309.974 115.771C313.265 112.604 316.324 109.894 319.153 107.631L319.178 107.611C324.695 103.116 330.6 99.376 336.893 96.3812C337.482 96.1391 338.188 95.7419 338.783 95.0753C339.504 94.2669 339.882 93.2615 339.882 92.2178C339.882 90.4422 338.979 88.845 337.339 87.9095C336.006 87.1494 334.49 87 333.296 87C329.626 87 325.574 88.3309 321.298 90.508C316.965 92.7139 312.084 95.9545 306.674 100.154L306.659 100.166C301.269 104.392 296.153 109.017 291.311 114.039C286.479 119.05 281.869 124.455 277.48 130.251L277.476 130.256C268.843 141.696 264 151.885 264 160.605C264 164.799 265.305 168.588 267.96 171.81Z" fill="white"/>
<path d="M314.616 138.37C318.663 140.663 322.509 142.068 326.193 142.855C326.248 142.794 326.302 142.733 326.357 142.672C331.571 136.978 335.822 132.313 339.107 128.677C338.722 132.926 338.527 136.854 338.527 140.456C338.527 141.497 338.544 142.514 338.578 143.506C340.208 143.364 341.811 143.151 343.392 142.898C347.478 142.244 351.342 144.894 352.023 148.816C352.704 152.739 349.944 156.448 345.858 157.102C344.254 157.359 342.604 157.583 340.91 157.752C341.278 158.766 341.693 159.717 342.156 160.602C343.457 163.09 345.196 165.169 347.471 166.619C349.767 168.083 352.391 168.764 355.197 168.764C364.238 168.764 371.282 163.621 376.425 154.874L376.435 154.858C381.522 146.1 384 135.966 384 124.573C384 117.425 382.917 111.363 380.459 106.65C378.032 101.901 374.497 98.8585 368.905 98.4714C366.996 98.3392 365.417 98.591 364.034 98.9946C362.91 99.3222 360.113 100.467 360.113 103.542C360.113 104.477 360.478 105.167 360.702 105.515C360.939 105.885 361.074 106.027 361.367 106.307C361.97 106.884 362.496 107.039 363.214 107.418C365.617 108.688 366.982 109.438 368.246 112.122C369.566 114.923 370.355 119.042 370.355 124.72C370.355 131.915 370.092 138.98 366.556 147.47C364.8 151.634 362.432 155 360.766 156.73C359.234 158.32 358.585 158.577 357.227 158.577C354.831 158.577 354.182 156.025 353.732 154.253C353.692 154.097 353.653 153.946 353.616 153.804C352.831 150.852 352.645 143.671 352.645 134.28C352.645 129.995 352.953 123.427 353.582 114.522L353.59 114.4V114.278C353.59 112.86 353.067 111.245 351.552 110.113C350.819 109.566 350.214 109.309 349.25 109.092C348.932 109.02 348.424 108.961 348.424 108.961C348.09 108.926 347.771 108.913 347.477 108.913C346.2 108.913 345.155 109.479 344.742 109.708C344.151 110.036 343.53 110.463 342.911 110.928C341.66 111.868 340.091 113.21 338.235 114.905C334.506 118.311 329.367 123.371 322.84 130.052C319.927 133.034 317.186 135.807 314.616 138.37Z" fill="white"/>
<path d="M405.668 139.789C404.447 140.445 403.28 141.165 402.168 141.949C401.056 142.733 400.072 143.535 399.215 144.355C398.358 145.176 397.93 145.887 397.93 146.488C397.93 147.09 398.413 147.391 399.379 147.391C400.053 147.391 401.038 147.062 402.332 146.406L408.266 143.262C409.359 142.697 410.335 142.031 411.191 141.266L413.133 139.57C414.518 138.312 415.967 137.684 417.48 137.684C418.264 137.684 419.048 138.121 419.832 138.996C420.616 139.871 421.008 140.764 421.008 141.676C421.008 143.772 420.151 146.871 418.438 150.973L422.812 147.391L431.836 140.363C432.802 139.634 433.604 139.27 434.242 139.27C435.628 139.27 436.32 139.935 436.32 141.266C436.32 142.633 435.427 144.392 433.641 146.543C432.802 147.564 431.635 148.667 430.141 149.852L414.992 161.336C413.99 162.138 413.197 162.803 412.613 163.332C410.207 167.215 407.892 170.031 405.668 171.781C402.441 174.333 399.452 175.609 396.699 175.609C395.46 175.609 394.448 175.263 393.664 174.57C392.953 173.969 392.598 173.267 392.598 172.465C392.598 171.717 392.798 170.906 393.199 170.031C393.6 169.174 394.138 168.309 394.812 167.434C395.487 166.559 396.253 165.693 397.109 164.836C397.966 163.979 398.878 163.15 399.844 162.348C402.396 160.324 404.21 158.93 405.285 158.164L407.965 156.223C409.022 153.98 409.934 151.556 410.699 148.949C407.181 152.048 403.435 154.482 399.461 156.25C397.474 157.143 395.824 157.59 394.512 157.59C393.199 157.59 391.996 157.316 390.902 156.77C389.809 156.223 388.87 155.503 388.086 154.609C386.464 152.732 385.652 150.553 385.652 148.074C385.652 145.486 386.628 143.307 388.578 141.539C391.513 138.878 395.669 136.562 401.047 134.594C406.224 132.68 410.608 131.723 414.199 131.723C415.384 131.723 415.977 132.306 415.977 133.473C415.977 134.275 415.822 134.895 415.512 135.332C415.22 135.751 414.5 136.161 413.352 136.562C412.221 136.964 410.964 137.438 409.578 137.984C408.211 138.531 406.908 139.133 405.668 139.789ZM447.504 139.789C446.283 140.445 445.116 141.165 444.004 141.949C442.892 142.733 441.908 143.535 441.051 144.355C440.194 145.176 439.766 145.887 439.766 146.488C439.766 147.09 440.249 147.391 441.215 147.391C441.889 147.391 442.874 147.062 444.168 146.406L450.102 143.262C451.195 142.697 452.171 142.031 453.027 141.266L454.969 139.57C456.354 138.312 457.803 137.684 459.316 137.684C460.1 137.684 460.884 138.121 461.668 138.996C462.452 139.871 462.844 140.764 462.844 141.676C462.844 143.772 461.987 146.871 460.273 150.973L464.648 147.391L473.672 140.363C474.638 139.634 475.44 139.27 476.078 139.27C477.464 139.27 478.156 139.935 478.156 141.266C478.156 142.633 477.263 144.392 475.477 146.543C474.638 147.564 473.471 148.667 471.977 149.852L456.828 161.336C455.826 162.138 455.033 162.803 454.449 163.332C452.043 167.215 449.728 170.031 447.504 171.781C444.277 174.333 441.288 175.609 438.535 175.609C437.296 175.609 436.284 175.263 435.5 174.57C434.789 173.969 434.434 173.267 434.434 172.465C434.434 171.717 434.634 170.906 435.035 170.031C435.436 169.174 435.974 168.309 436.648 167.434C437.323 166.559 438.089 165.693 438.945 164.836C439.802 163.979 440.714 163.15 441.68 162.348C444.232 160.324 446.046 158.93 447.121 158.164L449.801 156.223C450.858 153.98 451.77 151.556 452.535 148.949C449.017 152.048 445.271 154.482 441.297 156.25C439.31 157.143 437.66 157.59 436.348 157.59C435.035 157.59 433.832 157.316 432.738 156.77C431.645 156.223 430.706 155.503 429.922 154.609C428.299 152.732 427.488 150.553 427.488 148.074C427.488 145.486 428.464 143.307 430.414 141.539C433.349 138.878 437.505 136.562 442.883 134.594C448.06 132.68 452.444 131.723 456.035 131.723C457.22 131.723 457.812 132.306 457.812 133.473C457.812 134.275 457.658 134.895 457.348 135.332C457.056 135.751 456.336 136.161 455.188 136.562C454.057 136.964 452.799 137.438 451.414 137.984C450.047 138.531 448.743 139.133 447.504 139.789ZM505.992 138.695C507.159 138.695 507.742 139.178 507.742 140.145C507.742 141.329 507.031 142.742 505.609 144.383C503.258 147.117 500.487 149.779 497.297 152.367C492.102 156.523 487.462 158.602 483.379 158.602C480.444 158.602 478.038 157.326 476.16 154.773C474.21 152.112 473.234 148.539 473.234 144.055C473.234 138.167 476.105 131.659 481.848 124.531C485.493 119.992 488.93 116.911 492.156 115.289C493.159 114.779 493.924 114.523 494.453 114.523C495 114.523 495.492 114.615 495.93 114.797C496.385 114.961 496.805 115.198 497.188 115.508C498.081 116.255 498.527 117.158 498.527 118.215C498.527 119.272 498.236 120.53 497.652 121.988C497.069 123.428 496.221 124.969 495.109 126.609C492.758 130.091 489.577 133.427 485.566 136.617C484.527 138.604 484.008 140.992 484.008 143.781C484.008 145.039 484.409 146.224 485.211 147.336C486.031 148.448 486.934 149.004 487.918 149.004C489.267 149.004 491.846 147.609 495.656 144.82L500.523 141.074C502.51 139.488 504.333 138.695 505.992 138.695ZM539.434 137.902C540.309 137.902 540.746 138.395 540.746 139.379C540.746 140.035 540.518 140.865 540.062 141.867C539.625 142.852 538.987 143.781 538.148 144.656C537.31 145.513 536.344 146.406 535.25 147.336C534.174 148.266 532.908 149.241 531.449 150.262C530.009 151.283 528.414 152.294 526.664 153.297C524.914 154.299 523.055 155.202 521.086 156.004C516.729 157.79 512.509 158.684 508.426 158.684C505.309 158.684 502.583 157.872 500.25 156.25C497.807 154.555 496.586 152.495 496.586 150.07C496.586 146.26 498.637 142.642 502.738 139.215C506.275 136.262 510.44 133.974 515.234 132.352C518.151 131.367 520.621 130.875 522.645 130.875C524.285 130.875 525.671 131.276 526.801 132.078C528.004 132.953 528.605 134.129 528.605 135.605C528.605 137.921 526.773 140.482 523.109 143.289C522.526 143.745 521.997 144.128 521.523 144.438L520.539 145.094C518.716 146.37 515.945 147.801 512.227 149.387C513.375 149.988 514.441 150.289 515.426 150.289C516.428 150.289 517.322 150.171 518.105 149.934C518.908 149.697 519.81 149.359 520.812 148.922C521.815 148.484 522.882 147.965 524.012 147.363C525.16 146.743 526.318 146.069 527.484 145.34C530.091 143.717 532.352 142.059 534.266 140.363C535.268 139.434 536.544 138.695 538.094 138.148C538.604 137.984 539.051 137.902 539.434 137.902ZM509.273 145.586L510.777 144.82C511.27 144.565 511.707 144.328 512.09 144.109C515.772 141.995 517.868 140.691 518.379 140.199C518.889 139.707 519.145 139.37 519.145 139.188C519.145 138.987 519.09 138.759 518.98 138.504C518.871 138.249 518.725 138.021 518.543 137.82C518.105 137.31 517.641 137.055 517.148 137.055C516.656 137.055 516.109 137.146 515.508 137.328C514.924 137.51 514.332 137.766 513.73 138.094C513.129 138.404 512.546 138.786 511.98 139.242C511.434 139.68 510.951 140.154 510.531 140.664C509.565 141.812 509.082 142.806 509.082 143.645C509.082 144.483 509.146 145.13 509.273 145.586Z" fill="white"/>
</g>
<defs>
<clipPath id="clip0_488_6835">
<rect width="800" height="400" fill="white"/>
</clipPath>
</defs>
</svg>
