<svg width="800" height="400" viewBox="0 0 800 400" fill="none" xmlns="http://www.w3.org/2000/svg">
<g clip-path="url(#clip0_509_3701)">
<rect width="800" height="400" fill="#050930"/>
<path fill-rule="evenodd" clip-rule="evenodd" d="M146.143 147.739C145.661 146.742 144.241 146.742 143.759 147.739L96.012 246.599C95.5876 247.478 96.2278 248.498 97.2037 248.498H103.59L69.714 306.725C69.2007 307.607 69.8372 308.714 70.8579 308.714H83.5246L54.969 355.669C54.4327 356.551 55.0675 357.68 56.0998 357.68H77.4809L37.1817 424.557C36.6502 425.439 37.2854 426.564 38.3152 426.564H252.538C253.568 426.564 254.203 425.439 253.672 424.557L213.372 357.68H232.478C233.511 357.68 234.145 356.551 233.609 355.669L205.054 308.714H216.397C217.418 308.714 218.054 307.607 217.541 306.725L183.665 248.498H192.698C193.674 248.498 194.314 247.478 193.89 246.599L146.143 147.739Z" fill="#2F378D"/>
<path d="M143.903 125.774C144.376 124.749 145.834 124.749 146.307 125.774L150.582 135.043C150.775 135.461 151.171 135.749 151.628 135.803L161.765 137.005C162.886 137.138 163.337 138.524 162.507 139.291L155.013 146.221C154.675 146.534 154.524 146.999 154.614 147.451L156.603 157.463C156.823 158.571 155.644 159.427 154.659 158.876L145.751 153.89C145.35 153.665 144.86 153.665 144.458 153.89L135.551 158.876C134.566 159.427 133.387 158.571 133.607 157.463L135.596 147.451C135.686 146.999 135.535 146.534 135.197 146.221L127.702 139.291C126.873 138.524 127.324 137.138 128.445 137.005L138.582 135.803C139.039 135.749 139.435 135.461 139.628 135.043L143.903 125.774Z" fill="#C5CAFF"/>
<path fill-rule="evenodd" clip-rule="evenodd" d="M141.567 199.432C132.583 201.038 123.856 201.47 117.655 201.581L117.619 199.596C123.77 199.486 132.38 199.058 141.218 197.478C150.068 195.895 159.069 193.169 166.053 188.514L167.154 190.165C159.845 195.038 150.538 197.827 141.567 199.432Z" fill="#FFCFCF"/>
<path d="M130.871 199.928C130.871 202.486 128.797 204.56 126.239 204.56C123.681 204.56 121.607 202.486 121.607 199.928C121.607 197.37 123.681 195.296 126.239 195.296C128.797 195.296 130.871 197.37 130.871 199.928Z" fill="#FFCFCF"/>
<path d="M148.075 197.281C148.075 199.84 146.001 201.913 143.443 201.913C140.885 201.913 138.811 199.84 138.811 197.281C138.811 194.723 140.885 192.649 143.443 192.649C146.001 192.649 148.075 194.723 148.075 197.281Z" fill="#FF3535"/>
<path d="M163.956 193.311C163.956 195.869 161.883 197.943 159.324 197.943C156.766 197.943 154.692 195.869 154.692 193.311C154.692 190.753 156.766 188.679 159.324 188.679C161.883 188.679 163.956 190.753 163.956 193.311Z" fill="#FFCFCF"/>
<path fill-rule="evenodd" clip-rule="evenodd" d="M108.409 220.547C129.645 237.782 155.874 245.924 191.803 243.927L191.693 241.945C156.158 243.92 130.443 235.873 109.66 219.006L108.409 220.547Z" fill="#FFCFCF"/>
<path d="M158.151 241.491C158.047 244.048 160.035 246.204 162.591 246.308C165.147 246.411 167.303 244.423 167.407 241.867C167.511 239.311 165.523 237.155 162.967 237.051C160.411 236.947 158.255 238.935 158.151 241.491Z" fill="#FFCFCF"/>
<path d="M141.068 238.149C140.964 240.705 142.952 242.861 145.508 242.965C148.064 243.069 150.22 241.081 150.324 238.525C150.428 235.969 148.44 233.812 145.884 233.709C143.328 233.605 141.172 235.593 141.068 238.149Z" fill="#FF3535"/>
<path d="M112.46 225.065C112.356 227.621 114.344 229.777 116.9 229.881C119.456 229.985 121.613 227.997 121.716 225.441C121.82 222.885 119.832 220.728 117.276 220.625C114.72 220.521 112.564 222.509 112.46 225.065Z" fill="#FF3535"/>
<path d="M174.019 242.135C173.915 244.691 175.903 246.847 178.459 246.951C181.015 247.055 183.172 245.067 183.275 242.511C183.379 239.955 181.391 237.799 178.835 237.695C176.279 237.591 174.123 239.579 174.019 242.135Z" fill="#FF3535"/>
<path d="M125.361 233.537C125.258 236.093 127.246 238.25 129.802 238.354C132.358 238.457 134.514 236.469 134.618 233.913C134.722 231.357 132.734 229.201 130.178 229.097C127.621 228.993 125.465 230.981 125.361 233.537Z" fill="#FFCFCF"/>
<path fill-rule="evenodd" clip-rule="evenodd" d="M78.4277 290.671C116.611 297.22 150.803 289.305 191.412 260.994L190.276 259.365C150.021 287.43 116.35 295.161 78.7633 288.714L78.4277 290.671Z" fill="#FFCFCF"/>
<path d="M83.8894 290.579C83.8894 293.137 85.9632 295.211 88.5214 295.211C91.0795 295.211 93.1533 293.137 93.1533 290.579C93.1533 288.021 91.0795 285.947 88.5214 285.947C85.9632 285.947 83.8894 288.021 83.8894 290.579Z" fill="#FFCFCF"/>
<path d="M101.094 291.903C101.094 294.462 103.168 296.535 105.726 296.535C108.284 296.535 110.358 294.462 110.358 291.903C110.358 289.345 108.284 287.271 105.726 287.271C103.168 287.271 101.094 289.345 101.094 291.903Z" fill="#FF3535"/>
<path d="M135.503 286.61C135.503 289.168 137.577 291.241 140.135 291.241C142.693 291.241 144.767 289.168 144.767 286.61C144.767 284.051 142.693 281.978 140.135 281.978C137.577 281.978 135.503 284.051 135.503 286.61Z" fill="#FF3535"/>
<path d="M165.941 273.375C165.941 275.933 168.015 278.007 170.573 278.007C173.132 278.007 175.205 275.933 175.205 273.375C175.205 270.817 173.132 268.743 170.573 268.743C168.015 268.743 165.941 270.817 165.941 273.375Z" fill="#FF3535"/>
<path d="M118.298 290.579C118.298 293.137 120.372 295.211 122.93 295.211C125.488 295.211 127.562 293.137 127.562 290.579C127.562 288.021 125.488 285.947 122.93 285.947C120.372 285.947 118.298 288.021 118.298 290.579Z" fill="#FFCFCF"/>
<path d="M151.384 279.992C151.384 282.55 153.458 284.624 156.016 284.624C158.574 284.624 160.648 282.55 160.648 279.992C160.648 277.434 158.574 275.36 156.016 275.36C153.458 275.36 151.384 277.434 151.384 279.992Z" fill="#FFCFCF"/>
<path d="M180.499 263.884C180.499 266.442 182.573 268.516 185.131 268.516C187.689 268.516 189.763 266.442 189.763 263.884C189.763 261.326 187.689 259.252 185.131 259.252C182.573 259.252 180.499 261.326 180.499 263.884Z" fill="#FFCFCF"/>
<path fill-rule="evenodd" clip-rule="evenodd" d="M133.15 396.37C163.737 391.713 194.874 381.165 215.603 360.769L214.211 359.354C193.916 379.323 163.266 389.777 132.851 394.407C102.456 399.034 72.4548 397.821 53.6171 394.59L53.2816 396.546C72.3289 399.813 102.544 401.029 133.15 396.37Z" fill="#FFCFCF"/>
<path d="M58.7446 396.456C58.7446 399.014 60.8184 401.088 63.3766 401.088C65.9347 401.088 68.0085 399.014 68.0085 396.456C68.0085 393.898 65.9347 391.824 63.3766 391.824C60.8184 391.824 58.7446 393.898 58.7446 396.456Z" fill="#FFCFCF"/>
<path d="M75.949 397.78C75.949 400.339 78.0228 402.412 80.5809 402.412C83.1391 402.412 85.2129 400.339 85.2129 397.78C85.2129 395.222 83.1391 393.148 80.5809 393.148C78.0228 393.148 75.949 395.222 75.949 397.78Z" fill="#FF3535"/>
<path d="M111.681 397.78C111.681 400.339 113.754 402.412 116.313 402.412C118.871 402.412 120.945 400.339 120.945 397.78C120.945 395.222 118.871 393.148 116.313 393.148C113.754 393.148 111.681 395.222 111.681 397.78Z" fill="#FF3535"/>
<path d="M146.091 391.163C146.091 393.721 148.165 395.795 150.723 395.795C153.281 395.795 155.355 393.721 155.355 391.163C155.355 388.605 153.281 386.531 150.723 386.531C148.165 386.531 146.091 388.605 146.091 391.163Z" fill="#FF3535"/>
<path d="M181.822 377.929C181.822 380.487 183.896 382.561 186.454 382.561C189.012 382.561 191.086 380.487 191.086 377.929C191.086 375.371 189.012 373.297 186.454 373.297C183.896 373.297 181.822 375.371 181.822 377.929Z" fill="#FF3535"/>
<path d="M199.026 369.988C199.026 372.547 201.1 374.62 203.658 374.62C206.216 374.62 208.29 372.547 208.29 369.988C208.29 367.43 206.216 365.356 203.658 365.356C201.1 365.356 199.026 367.43 199.026 369.988Z" fill="#FFCFCF"/>
<path d="M93.1528 397.78C93.1528 400.339 95.2266 402.412 97.7848 402.412C100.343 402.412 102.417 400.339 102.417 397.78C102.417 395.222 100.343 393.148 97.7848 393.148C95.2266 393.148 93.1528 395.222 93.1528 397.78Z" fill="#FFCFCF"/>
<path d="M127.562 393.81C127.562 396.368 129.636 398.442 132.194 398.442C134.752 398.442 136.826 396.368 136.826 393.81C136.826 391.252 134.752 389.178 132.194 389.178C129.636 389.178 127.562 391.252 127.562 393.81Z" fill="#FFCFCF"/>
<path d="M164.619 385.642C164.619 388.2 166.693 390.274 169.251 390.274C171.809 390.274 173.883 388.2 173.883 385.642C173.883 383.084 171.809 381.01 169.251 381.01C166.693 381.01 164.619 383.084 164.619 385.642Z" fill="#FFCFCF"/>
<path fill-rule="evenodd" clip-rule="evenodd" d="M153.623 339.658C127.652 335.416 101.295 326.816 80.9164 312.609L82.0517 310.98C102.105 324.961 128.149 333.486 153.943 337.699C179.733 341.911 205.185 341.798 224.004 338.57L224.339 340.527C205.273 343.797 179.597 343.901 153.623 339.658Z" fill="#FFCFCF"/>
<path d="M189.763 340.87C189.763 343.428 187.689 345.502 185.131 345.502C182.573 345.502 180.499 343.428 180.499 340.87C180.499 338.312 182.573 336.238 185.131 336.238C187.689 336.238 189.763 338.312 189.763 340.87Z" fill="#FFCFCF"/>
<path d="M221.525 339.547C221.525 342.105 219.451 344.179 216.893 344.179C214.335 344.179 212.261 342.105 212.261 339.547C212.261 336.989 214.335 334.915 216.893 334.915C219.451 334.915 221.525 336.989 221.525 339.547Z" fill="#FFCFCF"/>
<path d="M172.559 340.87C172.559 343.428 170.485 345.502 167.927 345.502C165.368 345.502 163.295 343.428 163.295 340.87C163.295 338.312 165.368 336.238 167.927 336.238C170.485 336.238 172.559 338.312 172.559 340.87Z" fill="#FF3535"/>
<path d="M206.968 340.87C206.968 343.428 204.894 345.502 202.336 345.502C199.777 345.502 197.704 343.428 197.704 340.87C197.704 338.312 199.777 336.238 202.336 336.238C204.894 336.238 206.968 338.312 206.968 340.87Z" fill="#FF3535"/>
<path d="M138.15 334.253C138.15 336.811 136.076 338.885 133.518 338.885C130.96 338.885 128.886 336.811 128.886 334.253C128.886 331.695 130.96 329.621 133.518 329.621C136.076 329.621 138.15 331.695 138.15 334.253Z" fill="#FF3535"/>
<path d="M107.711 323.666C107.711 326.224 105.637 328.298 103.079 328.298C100.521 328.298 98.447 326.224 98.447 323.666C98.447 321.108 100.521 319.034 103.079 319.034C105.637 319.034 107.711 321.108 107.711 323.666Z" fill="#FF3535"/>
<path d="M155.354 338.224C155.354 340.782 153.28 342.856 150.722 342.856C148.164 342.856 146.09 340.782 146.09 338.224C146.09 335.666 148.164 333.592 150.722 333.592C153.28 333.592 155.354 335.666 155.354 338.224Z" fill="#FFCFCF"/>
<path d="M122.269 330.283C122.269 332.842 120.195 334.915 117.637 334.915C115.078 334.915 113.005 332.842 113.005 330.283C113.005 327.725 115.078 325.651 117.637 325.651C120.195 325.651 122.269 327.725 122.269 330.283Z" fill="#FFCFCF"/>
<path d="M91.8294 315.5C91.8294 318.058 89.7556 320.132 87.1974 320.132C84.6392 320.132 82.5654 318.058 82.5654 315.5C82.5654 312.942 84.6392 310.868 87.1974 310.868C89.7556 310.868 91.8294 312.942 91.8294 315.5Z" fill="#FFCFCF"/>
<path fill-rule="evenodd" clip-rule="evenodd" d="M22.4287 123.739C21.9471 122.742 20.5269 122.742 20.0453 123.739L-27.7019 222.599C-28.1263 223.478 -27.4861 224.498 -26.5102 224.498H-20.1241L-53.9999 282.725C-54.5132 283.607 -53.8767 284.714 -52.856 284.714H-40.1893L-68.7449 331.669C-69.2812 332.551 -68.6463 333.68 -67.6141 333.68H-46.233L-86.5322 400.557C-87.0637 401.439 -86.4285 402.564 -85.3987 402.564H128.824C129.854 402.564 130.489 401.439 129.958 400.557L89.6585 333.68H108.765C109.797 333.68 110.432 332.551 109.895 331.669L81.3397 284.714H92.683C93.7037 284.714 94.3402 283.607 93.8269 282.725L59.9511 224.498H68.9841C69.96 224.498 70.6002 223.478 70.1758 222.599L22.4287 123.739Z" fill="#121A67"/>
<path d="M20.1893 101.774C20.6623 100.749 22.1198 100.749 22.5928 101.774L26.8682 111.043C27.061 111.461 27.4571 111.749 27.9142 111.803L38.0509 113.005C39.1723 113.138 39.6227 114.524 38.7936 115.291L31.2992 122.221C30.9613 122.534 30.81 122.999 30.8997 123.451L32.8891 133.463C33.1092 134.571 31.9301 135.427 30.9447 134.876L22.0375 129.89C21.6358 129.665 21.1462 129.665 20.7446 129.89L11.8374 134.876C10.852 135.427 9.67287 134.571 9.89297 133.463L11.8823 123.451C11.972 122.999 11.8207 122.534 11.4828 122.221L3.9885 115.291C3.15938 114.524 3.60976 113.138 4.73122 113.005L14.8679 111.803C15.325 111.749 15.7211 111.461 15.9138 111.043L20.1893 101.774Z" fill="#C5CAFF"/>
<path fill-rule="evenodd" clip-rule="evenodd" d="M17.8531 175.432C8.86888 177.038 0.141944 177.47 -6.05928 177.581L-6.09473 175.596C0.0559636 175.486 8.66583 175.058 17.5036 173.478C26.3546 171.895 35.3554 169.169 42.339 164.514L43.4401 166.165C36.1307 171.038 26.8243 173.827 17.8531 175.432Z" fill="#FFCFCF"/>
<path d="M7.157 175.928C7.157 178.486 5.0832 180.56 2.52504 180.56C-0.0331305 180.56 -2.10693 178.486 -2.10693 175.928C-2.10693 173.37 -0.0331305 171.296 2.52504 171.296C5.0832 171.296 7.157 173.37 7.157 175.928Z" fill="#FFCFCF"/>
<path d="M24.3613 173.281C24.3613 175.84 22.2875 177.913 19.7294 177.913C17.1712 177.913 15.0974 175.84 15.0974 173.281C15.0974 170.723 17.1712 168.649 19.7294 168.649C22.2875 168.649 24.3613 170.723 24.3613 173.281Z" fill="#FF3535"/>
<path d="M40.2425 169.311C40.2425 171.869 38.1687 173.943 35.6105 173.943C33.0523 173.943 30.9785 171.869 30.9785 169.311C30.9785 166.753 33.0523 164.679 35.6105 164.679C38.1687 164.679 40.2425 166.753 40.2425 169.311Z" fill="#FFCFCF"/>
<path fill-rule="evenodd" clip-rule="evenodd" d="M-15.3047 196.547C5.93072 213.782 32.1599 221.924 68.0896 219.927L67.9795 217.945C32.4446 219.92 6.72868 211.873 -14.0537 195.006L-15.3047 196.547Z" fill="#FFCFCF"/>
<path d="M34.4371 217.491C34.3333 220.048 36.3212 222.204 38.8773 222.308C41.4333 222.411 43.5896 220.423 43.6934 217.867C43.7972 215.311 41.8093 213.155 39.2532 213.051C36.6971 212.947 34.5409 214.935 34.4371 217.491Z" fill="#FFCFCF"/>
<path d="M17.3541 214.149C17.2503 216.705 19.2382 218.861 21.7943 218.965C24.3503 219.069 26.5066 217.081 26.6104 214.525C26.7142 211.969 24.7262 209.812 22.1702 209.709C19.6141 209.605 17.4579 211.593 17.3541 214.149Z" fill="#FF3535"/>
<path d="M50.3052 218.135C50.2014 220.691 52.1894 222.847 54.7454 222.951C57.3015 223.055 59.4577 221.067 59.5616 218.511C59.6654 215.955 57.6774 213.799 55.1214 213.695C52.5653 213.591 50.4091 215.579 50.3052 218.135Z" fill="#FF3535"/>
<path d="M1.64753 209.537C1.54372 212.093 3.53166 214.25 6.08772 214.354C8.64378 214.457 10.8 212.469 10.9038 209.913C11.0076 207.357 9.0197 205.201 6.46364 205.097C3.90758 204.993 1.75134 206.981 1.64753 209.537Z" fill="#FFCFCF"/>
<path fill-rule="evenodd" clip-rule="evenodd" d="M-45.2861 266.671C-7.10242 273.22 27.0892 265.305 67.6977 236.994L66.5624 235.365C26.3076 263.43 -7.36422 271.161 -44.9505 264.714L-45.2861 266.671Z" fill="#FFCFCF"/>
<path d="M11.789 262.61C11.789 265.168 13.8628 267.241 16.421 267.241C18.9792 267.241 21.053 265.168 21.053 262.61C21.053 260.051 18.9792 257.978 16.421 257.978C13.8628 257.978 11.789 260.051 11.789 262.61Z" fill="#FF3535"/>
<path d="M42.2275 249.375C42.2275 251.933 44.3013 254.007 46.8595 254.007C49.4177 254.007 51.4915 251.933 51.4915 249.375C51.4915 246.817 49.4177 244.743 46.8595 244.743C44.3013 244.743 42.2275 246.817 42.2275 249.375Z" fill="#FF3535"/>
<path d="M-5.41555 266.579C-5.41555 269.137 -3.34175 271.211 -0.78358 271.211C1.77459 271.211 3.84839 269.137 3.84839 266.579C3.84839 264.021 1.77459 261.947 -0.78358 261.947C-3.34175 261.947 -5.41555 264.021 -5.41555 266.579Z" fill="#FFCFCF"/>
<path d="M27.6699 255.992C27.6699 258.55 29.7437 260.624 32.3019 260.624C34.86 260.624 36.9338 258.55 36.9338 255.992C36.9338 253.434 34.86 251.36 32.3019 251.36C29.7437 251.36 27.6699 253.434 27.6699 255.992Z" fill="#FFCFCF"/>
<path d="M56.7851 239.884C56.7851 242.442 58.8589 244.516 61.4171 244.516C63.9753 244.516 66.0491 242.442 66.0491 239.884C66.0491 237.326 63.9753 235.252 61.4171 235.252C58.8589 235.252 56.7851 237.326 56.7851 239.884Z" fill="#FFCFCF"/>
<path fill-rule="evenodd" clip-rule="evenodd" d="M9.4362 372.37C40.0229 367.713 71.1598 357.165 91.8895 336.769L90.4973 335.354C70.2017 355.323 39.5521 365.777 9.13744 370.407C-21.258 375.034 -51.259 373.821 -70.0967 370.59L-70.4323 372.546C-51.385 375.813 -21.1697 377.029 9.4362 372.37Z" fill="#FFCFCF"/>
<path d="M22.3772 367.163C22.3772 369.721 24.451 371.795 27.0091 371.795C29.5673 371.795 31.6411 369.721 31.6411 367.163C31.6411 364.605 29.5673 362.531 27.0091 362.531C24.451 362.531 22.3772 364.605 22.3772 367.163Z" fill="#FF3535"/>
<path d="M58.1081 353.929C58.1081 356.487 60.1819 358.561 62.7401 358.561C65.2983 358.561 67.3721 356.487 67.3721 353.929C67.3721 351.371 65.2983 349.297 62.7401 349.297C60.1819 349.297 58.1081 351.371 58.1081 353.929Z" fill="#FF3535"/>
<path d="M75.3125 345.988C75.3125 348.547 77.3863 350.62 79.9444 350.62C82.5026 350.62 84.5764 348.547 84.5764 345.988C84.5764 343.43 82.5026 341.356 79.9444 341.356C77.3863 341.356 75.3125 343.43 75.3125 345.988Z" fill="#FFCFCF"/>
<path d="M3.84788 369.81C3.84788 372.368 5.92168 374.442 8.47985 374.442C11.038 374.442 13.1118 372.368 13.1118 369.81C13.1118 367.252 11.038 365.178 8.47985 365.178C5.92168 365.178 3.84788 367.252 3.84788 369.81Z" fill="#FFCFCF"/>
<path d="M40.905 361.642C40.905 364.2 42.9788 366.274 45.537 366.274C48.0951 366.274 50.1689 364.2 50.1689 361.642C50.1689 359.084 48.0951 357.01 45.537 357.01C42.9788 357.01 40.905 359.084 40.905 361.642Z" fill="#FFCFCF"/>
<path fill-rule="evenodd" clip-rule="evenodd" d="M29.909 315.658C3.93827 311.416 -22.4193 302.816 -42.7974 288.609L-41.6621 286.98C-21.6087 300.961 4.43506 309.486 30.229 313.699C56.0191 317.911 81.4711 317.798 100.29 314.57L100.626 316.527C81.5595 319.797 55.8835 319.901 29.909 315.658Z" fill="#FFCFCF"/>
<path d="M66.0491 316.87C66.0491 319.428 63.9753 321.502 61.4171 321.502C58.859 321.502 56.7852 319.428 56.7852 316.87C56.7852 314.312 58.859 312.238 61.4171 312.238C63.9753 312.238 66.0491 314.312 66.0491 316.87Z" fill="#FFCFCF"/>
<path d="M97.8113 315.547C97.8113 318.105 95.7375 320.179 93.1793 320.179C90.6212 320.179 88.5474 318.105 88.5474 315.547C88.5474 312.989 90.6212 310.915 93.1793 310.915C95.7375 310.915 97.8113 312.989 97.8113 315.547Z" fill="#FFCFCF"/>
<path d="M48.8447 316.87C48.8447 319.428 46.7709 321.502 44.2128 321.502C41.6546 321.502 39.5808 319.428 39.5808 316.87C39.5808 314.312 41.6546 312.238 44.2128 312.238C46.7709 312.238 48.8447 314.312 48.8447 316.87Z" fill="#FF3535"/>
<path d="M83.2537 316.87C83.2537 319.428 81.1799 321.502 78.6217 321.502C76.0635 321.502 73.9897 319.428 73.9897 316.87C73.9897 314.312 76.0635 312.238 78.6217 312.238C81.1799 312.238 83.2537 314.312 83.2537 316.87Z" fill="#FF3535"/>
<path d="M14.4358 310.253C14.4358 312.811 12.362 314.885 9.80384 314.885C7.24568 314.885 5.17188 312.811 5.17188 310.253C5.17188 307.695 7.24568 305.621 9.80384 305.621C12.362 305.621 14.4358 307.695 14.4358 310.253Z" fill="#FF3535"/>
<path d="M31.6402 314.224C31.6402 316.782 29.5664 318.856 27.0082 318.856C24.45 318.856 22.3762 316.782 22.3762 314.224C22.3762 311.666 24.45 309.592 27.0082 309.592C29.5664 309.592 31.6402 311.666 31.6402 314.224Z" fill="#FFCFCF"/>
<path fill-rule="evenodd" clip-rule="evenodd" d="M657.192 155.739C656.71 154.742 655.29 154.742 654.809 155.739L607.061 254.599C606.637 255.478 607.277 256.498 608.253 256.498H614.639L580.763 314.725C580.25 315.607 580.887 316.714 581.907 316.714H594.574L566.018 363.669C565.482 364.551 566.117 365.68 567.149 365.68H588.53L548.231 432.557C547.7 433.439 548.335 434.564 549.365 434.564H763.587C764.617 434.564 765.252 433.439 764.721 432.557L724.422 365.68H743.528C744.56 365.68 745.195 364.551 744.659 363.669L716.103 316.714H727.446C728.467 316.714 729.104 315.607 728.59 314.725L694.714 256.498H703.747C704.723 256.498 705.364 255.478 704.939 254.599L657.192 155.739Z" fill="#2F378D"/>
<path d="M654.953 133.774C655.426 132.749 656.883 132.749 657.356 133.774L661.632 143.043C661.824 143.461 662.221 143.749 662.678 143.803L672.814 145.005C673.936 145.138 674.386 146.524 673.557 147.291L666.063 154.221C665.725 154.534 665.573 154.999 665.663 155.451L667.653 165.463C667.873 166.571 666.694 167.427 665.708 166.876L656.801 161.89C656.399 161.665 655.91 161.665 655.508 161.89L646.601 166.876C645.615 167.427 644.436 166.571 644.656 165.463L646.646 155.451C646.735 154.999 646.584 154.534 646.246 154.221L638.752 147.291C637.923 146.524 638.373 145.138 639.495 145.005L649.631 143.803C650.088 143.749 650.484 143.461 650.677 143.043L654.953 133.774Z" fill="#C5CAFF"/>
<path fill-rule="evenodd" clip-rule="evenodd" d="M652.616 207.432C643.632 209.038 634.905 209.47 628.704 209.581L628.668 207.596C634.819 207.486 643.429 207.058 652.267 205.478C661.118 203.895 670.119 201.169 677.102 196.514L678.203 198.165C670.894 203.038 661.587 205.827 652.616 207.432Z" fill="#FFCFCF"/>
<path d="M641.92 207.928C641.92 210.486 639.846 212.56 637.288 212.56C634.73 212.56 632.656 210.486 632.656 207.928C632.656 205.37 634.73 203.296 637.288 203.296C639.846 203.296 641.92 205.37 641.92 207.928Z" fill="#FFCFCF"/>
<path d="M659.125 205.281C659.125 207.84 657.051 209.913 654.493 209.913C651.934 209.913 649.861 207.84 649.861 205.281C649.861 202.723 651.934 200.649 654.493 200.649C657.051 200.649 659.125 202.723 659.125 205.281Z" fill="#FF3535"/>
<path d="M675.006 201.311C675.006 203.869 672.932 205.943 670.374 205.943C667.816 205.943 665.742 203.869 665.742 201.311C665.742 198.753 667.816 196.679 670.374 196.679C672.932 196.679 675.006 198.753 675.006 201.311Z" fill="#FFCFCF"/>
<path fill-rule="evenodd" clip-rule="evenodd" d="M619.458 228.547C640.694 245.782 666.923 253.924 702.853 251.927L702.743 249.945C667.208 251.92 641.492 243.873 620.709 227.006L619.458 228.547Z" fill="#FFCFCF"/>
<path d="M669.2 249.491C669.097 252.048 671.085 254.204 673.641 254.308C676.197 254.411 678.353 252.423 678.457 249.867C678.561 247.311 676.573 245.155 674.016 245.051C671.46 244.947 669.304 246.935 669.2 249.491Z" fill="#FFCFCF"/>
<path d="M652.117 246.149C652.014 248.705 654.002 250.861 656.558 250.965C659.114 251.069 661.27 249.081 661.374 246.525C661.477 243.969 659.49 241.812 656.933 241.709C654.377 241.605 652.221 243.593 652.117 246.149Z" fill="#FF3535"/>
<path d="M623.509 233.065C623.406 235.621 625.394 237.777 627.95 237.881C630.506 237.985 632.662 235.997 632.766 233.441C632.87 230.885 630.882 228.728 628.326 228.625C625.77 228.521 623.613 230.509 623.509 233.065Z" fill="#FF3535"/>
<path d="M685.068 250.135C684.965 252.691 686.953 254.847 689.509 254.951C692.065 255.055 694.221 253.067 694.325 250.511C694.429 247.955 692.441 245.799 689.885 245.695C687.328 245.591 685.172 247.579 685.068 250.135Z" fill="#FF3535"/>
<path d="M636.411 241.537C636.307 244.093 638.295 246.25 640.851 246.354C643.407 246.457 645.563 244.469 645.667 241.913C645.771 239.357 643.783 237.201 641.227 237.097C638.671 236.993 636.515 238.981 636.411 241.537Z" fill="#FFCFCF"/>
<path fill-rule="evenodd" clip-rule="evenodd" d="M589.477 298.671C627.661 305.22 661.853 297.305 702.461 268.994L701.326 267.365C661.071 295.43 627.399 303.161 589.813 296.714L589.477 298.671Z" fill="#FFCFCF"/>
<path d="M594.939 298.579C594.939 301.137 597.013 303.211 599.571 303.211C602.129 303.211 604.203 301.137 604.203 298.579C604.203 296.021 602.129 293.947 599.571 293.947C597.013 293.947 594.939 296.021 594.939 298.579Z" fill="#FFCFCF"/>
<path d="M612.143 299.903C612.143 302.462 614.217 304.535 616.775 304.535C619.334 304.535 621.407 302.462 621.407 299.903C621.407 297.345 619.334 295.271 616.775 295.271C614.217 295.271 612.143 297.345 612.143 299.903Z" fill="#FF3535"/>
<path d="M646.552 294.61C646.552 297.168 648.626 299.241 651.184 299.241C653.742 299.241 655.816 297.168 655.816 294.61C655.816 292.051 653.742 289.978 651.184 289.978C648.626 289.978 646.552 292.051 646.552 294.61Z" fill="#FF3535"/>
<path d="M676.991 281.375C676.991 283.933 679.065 286.007 681.623 286.007C684.181 286.007 686.255 283.933 686.255 281.375C686.255 278.817 684.181 276.743 681.623 276.743C679.065 276.743 676.991 278.817 676.991 281.375Z" fill="#FF3535"/>
<path d="M629.348 298.579C629.348 301.137 631.422 303.211 633.98 303.211C636.538 303.211 638.612 301.137 638.612 298.579C638.612 296.021 636.538 293.947 633.98 293.947C631.422 293.947 629.348 296.021 629.348 298.579Z" fill="#FFCFCF"/>
<path d="M662.433 287.992C662.433 290.55 664.507 292.624 667.065 292.624C669.623 292.624 671.697 290.55 671.697 287.992C671.697 285.434 669.623 283.36 667.065 283.36C664.507 283.36 662.433 285.434 662.433 287.992Z" fill="#FFCFCF"/>
<path d="M691.549 271.884C691.549 274.442 693.622 276.516 696.181 276.516C698.739 276.516 700.812 274.442 700.812 271.884C700.812 269.326 698.739 267.252 696.181 267.252C693.622 267.252 691.549 269.326 691.549 271.884Z" fill="#FFCFCF"/>
<path fill-rule="evenodd" clip-rule="evenodd" d="M644.2 404.37C674.786 399.713 705.923 389.165 726.653 368.769L725.261 367.354C704.965 387.323 674.315 397.777 643.901 402.407C613.505 407.034 583.504 405.821 564.667 402.59L564.331 404.546C583.378 407.813 613.594 409.029 644.2 404.37Z" fill="#FFCFCF"/>
<path d="M569.794 404.456C569.794 407.014 571.868 409.088 574.426 409.088C576.984 409.088 579.058 407.014 579.058 404.456C579.058 401.898 576.984 399.824 574.426 399.824C571.868 399.824 569.794 401.898 569.794 404.456Z" fill="#FFCFCF"/>
<path d="M657.14 399.163C657.14 401.721 659.214 403.795 661.772 403.795C664.33 403.795 666.404 401.721 666.404 399.163C666.404 396.605 664.33 394.531 661.772 394.531C659.214 394.531 657.14 396.605 657.14 399.163Z" fill="#FF3535"/>
<path d="M692.871 385.929C692.871 388.487 694.945 390.561 697.503 390.561C700.062 390.561 702.135 388.487 702.135 385.929C702.135 383.371 700.062 381.297 697.503 381.297C694.945 381.297 692.871 383.371 692.871 385.929Z" fill="#FF3535"/>
<path d="M710.076 377.988C710.076 380.547 712.15 382.62 714.708 382.62C717.266 382.62 719.34 380.547 719.34 377.988C719.34 375.43 717.266 373.356 714.708 373.356C712.15 373.356 710.076 375.43 710.076 377.988Z" fill="#FFCFCF"/>
<path d="M638.611 401.81C638.611 404.368 640.685 406.442 643.243 406.442C645.801 406.442 647.875 404.368 647.875 401.81C647.875 399.252 645.801 397.178 643.243 397.178C640.685 397.178 638.611 399.252 638.611 401.81Z" fill="#FFCFCF"/>
<path d="M675.668 393.642C675.668 396.2 677.742 398.274 680.3 398.274C682.858 398.274 684.932 396.2 684.932 393.642C684.932 391.084 682.858 389.01 680.3 389.01C677.742 389.01 675.668 391.084 675.668 393.642Z" fill="#FFCFCF"/>
<path fill-rule="evenodd" clip-rule="evenodd" d="M664.672 347.658C638.702 343.416 612.344 334.816 591.966 320.609L593.101 318.98C613.155 332.961 639.198 341.486 664.992 345.699C690.782 349.911 716.234 349.798 735.053 346.57L735.389 348.527C716.323 351.797 690.647 351.901 664.672 347.658Z" fill="#FFCFCF"/>
<path d="M700.812 348.87C700.812 351.428 698.738 353.502 696.18 353.502C693.622 353.502 691.548 351.428 691.548 348.87C691.548 346.312 693.622 344.238 696.18 344.238C698.738 344.238 700.812 346.312 700.812 348.87Z" fill="#FFCFCF"/>
<path d="M732.574 347.547C732.574 350.105 730.501 352.179 727.942 352.179C725.384 352.179 723.31 350.105 723.31 347.547C723.31 344.989 725.384 342.915 727.942 342.915C730.501 342.915 732.574 344.989 732.574 347.547Z" fill="#FFCFCF"/>
<path d="M683.608 348.87C683.608 351.428 681.534 353.502 678.976 353.502C676.418 353.502 674.344 351.428 674.344 348.87C674.344 346.312 676.418 344.238 678.976 344.238C681.534 344.238 683.608 346.312 683.608 348.87Z" fill="#FF3535"/>
<path d="M718.017 348.87C718.017 351.428 715.943 353.502 713.385 353.502C710.827 353.502 708.753 351.428 708.753 348.87C708.753 346.312 710.827 344.238 713.385 344.238C715.943 344.238 718.017 346.312 718.017 348.87Z" fill="#FF3535"/>
<path d="M649.199 342.253C649.199 344.811 647.125 346.885 644.567 346.885C642.009 346.885 639.935 344.811 639.935 342.253C639.935 339.695 642.009 337.621 644.567 337.621C647.125 337.621 649.199 339.695 649.199 342.253Z" fill="#FF3535"/>
<path d="M618.76 331.666C618.76 334.224 616.686 336.298 614.128 336.298C611.57 336.298 609.496 334.224 609.496 331.666C609.496 329.108 611.57 327.034 614.128 327.034C616.686 327.034 618.76 329.108 618.76 331.666Z" fill="#FF3535"/>
<path d="M666.403 346.224C666.403 348.782 664.33 350.856 661.771 350.856C659.213 350.856 657.14 348.782 657.14 346.224C657.14 343.666 659.213 341.592 661.771 341.592C664.33 341.592 666.403 343.666 666.403 346.224Z" fill="#FFCFCF"/>
<path d="M633.318 338.283C633.318 340.842 631.244 342.915 628.686 342.915C626.128 342.915 624.054 340.842 624.054 338.283C624.054 335.725 626.128 333.651 628.686 333.651C631.244 333.651 633.318 335.725 633.318 338.283Z" fill="#FFCFCF"/>
<path d="M602.879 323.5C602.879 326.058 600.805 328.132 598.247 328.132C595.689 328.132 593.615 326.058 593.615 323.5C593.615 320.942 595.689 318.868 598.247 318.868C600.805 318.868 602.879 320.942 602.879 323.5Z" fill="#FFCFCF"/>
<path fill-rule="evenodd" clip-rule="evenodd" d="M780.906 123.739C780.424 122.742 779.004 122.742 778.522 123.739L730.775 222.599C730.351 223.478 730.991 224.498 731.967 224.498H738.353L704.477 282.725C703.964 283.607 704.6 284.714 705.621 284.714H718.288L689.732 331.669C689.196 332.551 689.831 333.68 690.863 333.68H712.244L671.945 400.557C671.413 401.439 672.049 402.564 673.079 402.564H887.301C888.331 402.564 888.966 401.439 888.435 400.557L848.136 333.68H867.242C868.274 333.68 868.909 332.551 868.372 331.669L839.817 284.714H851.16C852.181 284.714 852.817 283.607 852.304 282.725L818.428 224.498H827.461C828.437 224.498 829.077 223.478 828.653 222.599L780.906 123.739Z" fill="#121A67"/>
<path d="M778.667 101.774C779.14 100.749 780.597 100.749 781.07 101.774L785.346 111.043C785.538 111.461 785.934 111.749 786.391 111.803L796.528 113.005C797.65 113.138 798.1 114.524 797.271 115.291L789.777 122.221C789.439 122.534 789.287 122.999 789.377 123.451L791.366 133.463C791.586 134.571 790.407 135.427 789.422 134.876L780.515 129.89C780.113 129.665 779.624 129.665 779.222 129.89L770.315 134.876C769.329 135.427 768.15 134.571 768.37 133.463L770.36 123.451C770.449 122.999 770.298 122.534 769.96 122.221L762.466 115.291C761.637 114.524 762.087 113.138 763.209 113.005L773.345 111.803C773.802 111.749 774.198 111.461 774.391 111.043L778.667 101.774Z" fill="#C5CAFF"/>
<path fill-rule="evenodd" clip-rule="evenodd" d="M776.33 175.432C767.346 177.038 758.619 177.47 752.418 177.581L752.382 175.596C758.533 175.486 767.143 175.058 775.981 173.478C784.832 171.895 793.832 169.169 800.816 164.514L801.917 166.165C794.608 171.038 785.301 173.827 776.33 175.432Z" fill="#FFCFCF"/>
<path d="M765.634 175.928C765.634 178.486 763.56 180.56 761.002 180.56C758.444 180.56 756.37 178.486 756.37 175.928C756.37 173.37 758.444 171.296 761.002 171.296C763.56 171.296 765.634 173.37 765.634 175.928Z" fill="#FFCFCF"/>
<path d="M782.838 173.281C782.838 175.84 780.765 177.913 778.206 177.913C775.648 177.913 773.574 175.84 773.574 173.281C773.574 170.723 775.648 168.649 778.206 168.649C780.765 168.649 782.838 170.723 782.838 173.281Z" fill="#FF3535"/>
<path d="M798.72 169.311C798.72 171.869 796.646 173.943 794.088 173.943C791.529 173.943 789.456 171.869 789.456 169.311C789.456 166.753 791.529 164.679 794.088 164.679C796.646 164.679 798.72 166.753 798.72 169.311Z" fill="#FFCFCF"/>
<path fill-rule="evenodd" clip-rule="evenodd" d="M743.172 196.547C764.408 213.782 790.637 221.924 826.567 219.927L826.457 217.945C790.922 219.92 765.206 211.873 744.423 195.006L743.172 196.547Z" fill="#FFCFCF"/>
<path d="M792.914 217.491C792.81 220.048 794.798 222.204 797.354 222.308C799.911 222.411 802.067 220.423 802.171 217.867C802.274 215.311 800.286 213.155 797.73 213.051C795.174 212.947 793.018 214.935 792.914 217.491Z" fill="#FFCFCF"/>
<path d="M775.831 214.149C775.727 216.705 777.715 218.861 780.271 218.965C782.827 219.069 784.984 217.081 785.088 214.525C785.191 211.969 783.203 209.812 780.647 209.709C778.091 209.605 775.935 211.593 775.831 214.149Z" fill="#FF3535"/>
<path d="M747.223 201.065C747.12 203.621 749.107 205.777 751.664 205.881C754.22 205.985 756.376 203.997 756.48 201.441C756.583 198.885 754.596 196.728 752.039 196.625C749.483 196.521 747.327 198.509 747.223 201.065Z" fill="#FF3535"/>
<path d="M760.125 209.537C760.021 212.093 762.009 214.25 764.565 214.354C767.121 214.457 769.277 212.469 769.381 209.913C769.485 207.357 767.497 205.201 764.941 205.097C762.385 204.993 760.229 206.981 760.125 209.537Z" fill="#FFCFCF"/>
<path fill-rule="evenodd" clip-rule="evenodd" d="M713.191 266.671C751.375 273.22 785.566 265.305 826.175 236.994L825.04 235.365C784.785 263.43 751.113 271.161 713.527 264.714L713.191 266.671Z" fill="#FFCFCF"/>
<path d="M718.653 266.579C718.653 269.137 720.727 271.211 723.285 271.211C725.843 271.211 727.917 269.137 727.917 266.579C727.917 264.021 725.843 261.947 723.285 261.947C720.727 261.947 718.653 264.021 718.653 266.579Z" fill="#FFCFCF"/>
<path d="M735.857 267.903C735.857 270.462 737.931 272.535 740.489 272.535C743.047 272.535 745.121 270.462 745.121 267.903C745.121 265.345 743.047 263.271 740.489 263.271C737.931 263.271 735.857 265.345 735.857 267.903Z" fill="#FF3535"/>
<path d="M770.266 262.61C770.266 265.168 772.34 267.241 774.898 267.241C777.456 267.241 779.53 265.168 779.53 262.61C779.53 260.051 777.456 257.978 774.898 257.978C772.34 257.978 770.266 260.051 770.266 262.61Z" fill="#FF3535"/>
<path d="M753.062 266.579C753.062 269.137 755.136 271.211 757.694 271.211C760.252 271.211 762.326 269.137 762.326 266.579C762.326 264.021 760.252 261.947 757.694 261.947C755.136 261.947 753.062 264.021 753.062 266.579Z" fill="#FFCFCF"/>
<path d="M786.147 255.992C786.147 258.55 788.221 260.624 790.779 260.624C793.337 260.624 795.411 258.55 795.411 255.992C795.411 253.434 793.337 251.36 790.779 251.36C788.221 251.36 786.147 253.434 786.147 255.992Z" fill="#FFCFCF"/>
<path fill-rule="evenodd" clip-rule="evenodd" d="M767.913 372.37C798.5 367.713 829.637 357.165 850.367 336.769L848.974 335.354C828.679 355.323 798.029 365.777 767.615 370.407C737.219 375.034 707.218 373.821 688.38 370.59L688.045 372.546C707.092 375.813 737.307 377.029 767.913 372.37Z" fill="#FFCFCF"/>
<path d="M693.508 372.456C693.508 375.014 695.582 377.088 698.14 377.088C700.698 377.088 702.772 375.014 702.772 372.456C702.772 369.898 700.698 367.824 698.14 367.824C695.582 367.824 693.508 369.898 693.508 372.456Z" fill="#FFCFCF"/>
<path d="M710.712 373.78C710.712 376.339 712.786 378.412 715.344 378.412C717.903 378.412 719.976 376.339 719.976 373.78C719.976 371.222 717.903 369.148 715.344 369.148C712.786 369.148 710.712 371.222 710.712 373.78Z" fill="#FF3535"/>
<path d="M746.444 373.78C746.444 376.339 748.518 378.412 751.076 378.412C753.634 378.412 755.708 376.339 755.708 373.78C755.708 371.222 753.634 369.148 751.076 369.148C748.518 369.148 746.444 371.222 746.444 373.78Z" fill="#FF3535"/>
<path d="M780.854 367.163C780.854 369.721 782.928 371.795 785.486 371.795C788.044 371.795 790.118 369.721 790.118 367.163C790.118 364.605 788.044 362.531 785.486 362.531C782.928 362.531 780.854 364.605 780.854 367.163Z" fill="#FF3535"/>
<path d="M727.916 373.78C727.916 376.339 729.99 378.412 732.548 378.412C735.106 378.412 737.18 376.339 737.18 373.78C737.18 371.222 735.106 369.148 732.548 369.148C729.99 369.148 727.916 371.222 727.916 373.78Z" fill="#FFCFCF"/>
<path d="M762.325 369.81C762.325 372.368 764.399 374.442 766.957 374.442C769.515 374.442 771.589 372.368 771.589 369.81C771.589 367.252 769.515 365.178 766.957 365.178C764.399 365.178 762.325 367.252 762.325 369.81Z" fill="#FFCFCF"/>
<path d="M799.382 361.642C799.382 364.2 801.456 366.274 804.014 366.274C806.572 366.274 808.646 364.2 808.646 361.642C808.646 359.084 806.572 357.01 804.014 357.01C801.456 357.01 799.382 359.084 799.382 361.642Z" fill="#FFCFCF"/>
<path fill-rule="evenodd" clip-rule="evenodd" d="M788.386 315.658C762.415 311.416 736.058 302.816 715.68 288.609L716.815 286.98C736.869 300.961 762.912 309.486 788.706 313.699C814.496 317.911 839.948 317.798 858.767 314.57L859.103 316.527C840.037 319.797 814.361 319.901 788.386 315.658Z" fill="#FFCFCF"/>
<path d="M807.322 316.87C807.322 319.428 805.248 321.502 802.69 321.502C800.132 321.502 798.058 319.428 798.058 316.87C798.058 314.312 800.132 312.238 802.69 312.238C805.248 312.238 807.322 314.312 807.322 316.87Z" fill="#FF3535"/>
<path d="M772.913 310.253C772.913 312.811 770.839 314.885 768.281 314.885C765.723 314.885 763.649 312.811 763.649 310.253C763.649 307.695 765.723 305.621 768.281 305.621C770.839 305.621 772.913 307.695 772.913 310.253Z" fill="#FF3535"/>
<path d="M742.474 299.666C742.474 302.224 740.4 304.298 737.842 304.298C735.284 304.298 733.21 302.224 733.21 299.666C733.21 297.108 735.284 295.034 737.842 295.034C740.4 295.034 742.474 297.108 742.474 299.666Z" fill="#FF3535"/>
<path d="M790.117 314.224C790.117 316.782 788.044 318.856 785.485 318.856C782.927 318.856 780.853 316.782 780.853 314.224C780.853 311.666 782.927 309.592 785.485 309.592C788.044 309.592 790.117 311.666 790.117 314.224Z" fill="#FFCFCF"/>
<path d="M757.032 306.283C757.032 308.842 754.958 310.915 752.4 310.915C749.842 310.915 747.768 308.842 747.768 306.283C747.768 303.725 749.842 301.651 752.4 301.651C754.958 301.651 757.032 303.725 757.032 306.283Z" fill="#FFCFCF"/>
<path d="M726.593 291.5C726.593 294.058 724.519 296.132 721.961 296.132C719.402 296.132 717.329 294.058 717.329 291.5C717.329 288.942 719.402 286.868 721.961 286.868C724.519 286.868 726.593 288.942 726.593 291.5Z" fill="#FFCFCF"/>
<path d="M466.864 438.066C499.678 419.466 527.163 375.897 527.555 359.912C548.522 346.066 568.7 336.378 555.664 380.6C542.628 424.823 504.799 449.249 487.514 455.934C470.031 467.273 434.05 456.667 466.864 438.066Z" fill="#FFADAD"/>
<path d="M587.23 485.331C620.044 466.731 629.033 430.112 629.425 414.127C650.392 400.281 689.066 383.644 676.03 427.866C662.994 472.088 625.165 496.514 607.88 503.199C590.397 514.538 554.416 503.932 587.23 485.331Z" fill="#FFADAD"/>
<path d="M681.799 476.063C662.988 453.554 656.811 426.287 656.074 415.467C672.678 375.125 704.058 400.554 717.673 418.311C710.925 433.207 706.423 448.48 714.259 473.851C722.095 499.223 690.114 539.773 664.546 534.592C638.978 529.411 638.543 522.893 658.055 512.652C674.658 503.938 688.175 490.402 681.799 476.063Z" fill="#FFCFCF"/>
<path d="M534.238 276.036C546.859 248.191 570.717 258.897 584.614 266.613C597.377 271.701 601.118 284.029 603.334 288.4C607.731 307.931 606.855 341.691 552.65 329.749C498.444 317.806 502.267 289.451 510.954 276.766C519.98 279.427 530.624 284.011 534.238 276.036Z" fill="#FFCFCF"/>
<path d="M513.663 282.82C511.435 284.326 508.387 283.428 507.332 280.954L506.893 279.924C505.474 276.597 508.568 273.12 512.037 274.143L513.405 274.546C516.874 275.569 517.587 280.167 514.591 282.193L513.663 282.82Z" fill="black"/>
<path d="M564.609 422.651C507.249 409.89 527.035 338.003 544.097 303.655C560.863 302.819 596.522 305.578 605.031 323.297C613.539 341.016 654.775 354.147 674.33 358.497C692.415 362.369 726.892 378.652 720.118 412.814C711.65 455.516 675.787 450.124 657.974 442.966C640.161 435.807 636.308 438.602 564.609 422.651Z" fill="#FFCFCF"/>
<path d="M494.844 466.896C527.658 448.295 536.646 411.676 537.039 395.692C558.005 381.845 596.679 365.208 583.643 409.43C570.607 453.652 532.779 478.078 515.494 484.764C498.011 496.102 462.03 485.496 494.844 466.896Z" fill="#FFCFCF"/>
<path d="M782.169 355.863C767.211 384.35 734.174 387.505 719.123 385.41C712.798 383.094 705.019 381.97 724.503 396.005C737.099 405.077 745.546 401.871 747.266 398.552C753.667 401.367 765.281 404.129 764.532 389.762C791.857 392.882 790.537 379.635 786.461 372.622C792.336 370.291 797.663 356.182 786.307 353.643C784.607 353.263 782.979 354.321 782.169 355.863Z" fill="#FFCFCF"/>
<path d="M612.89 315.951C618.122 269.428 600.209 267.054 590.598 271.682C571.156 280.088 572.658 300.556 577.818 315.036C587.329 334.725 607.658 362.473 612.89 315.951Z" fill="#FFADAD"/>
<path d="M559.291 292.195C558.761 293.991 556.876 295.018 555.081 294.488C553.285 293.959 552.258 292.074 552.788 290.278C553.317 288.482 555.202 287.456 556.998 287.985C558.794 288.514 559.82 290.399 559.291 292.195Z" fill="black"/>
<path d="M580.781 321.207C564.748 327.184 543.52 326.575 534.911 325.524C534.306 327.576 533.096 331.679 531.887 335.784C560.756 340.726 582.22 336.497 588.619 332.437C587.173 329.781 582.228 323.863 580.781 321.207Z" fill="#111111"/>
<circle cx="281.287" cy="186.311" r="1.4594" fill="#888888"/>
<circle cx="457.145" cy="101.666" r="1.4594" fill="#888888"/>
<circle cx="601.03" cy="214.966" r="1.4594" fill="#888888"/>
<circle cx="557.844" cy="8.26507" r="1.4594" fill="#888888"/>
<circle cx="427.957" cy="130.854" r="1.4594" fill="#888888"/>
<circle cx="734.459" cy="83.4594" r="1.4594" fill="#888888"/>
<circle cx="133.888" cy="106.043" r="1.4594" fill="#888888"/>
<circle cx="83.2536" cy="239.795" r="1.4594" fill="#888888"/>
<circle cx="44.1349" cy="227.173" r="1.4594" fill="#888888"/>
<circle cx="32.4594" cy="5.34612" r="1.4594" fill="#888888"/>
<circle cx="432.336" cy="281.172" r="2.9188" fill="#888888"/>
<circle cx="306.827" cy="38.911" r="2.9188" fill="#888888"/>
<circle cx="755.919" cy="199.919" r="2.9188" fill="#888888"/>
<path d="M421.405 318.36L409.815 349.92C399.478 353.419 367.26 391.792 393.936 420.876C404.066 429.858 398.388 428.337 459.619 444.743C536.995 471.744 539.972 425.535 538.252 396.871C541.063 393.338 542.355 390.862 542.598 387.686C542.788 385.206 539.724 384.091 537.374 384.904C530.755 387.195 524.804 383.102 520.919 379.69C507.117 369.771 490.412 364.715 473.425 365.316L467.99 365.508L472.95 335.306C475.832 323.348 474.938 304.496 454.47 299.015C434.003 293.533 424.278 307.639 421.405 318.36Z" fill="white"/>
<path d="M446.363 340.91C446.821 339.2 445.806 337.443 444.096 336.985L409.354 327.676C407.645 327.218 405.887 328.232 405.429 329.942L403.954 335.446C403.496 337.156 404.511 338.913 406.221 339.371L440.963 348.68C442.672 349.138 444.43 348.124 444.888 346.414L446.363 340.91Z" fill="#FF8934"/>
<path d="M454.819 321.047C453.204 320.614 451.544 321.573 451.111 323.187L449.544 329.035C449.112 330.65 450.07 332.31 451.685 332.742C453.3 333.175 454.959 332.217 455.392 330.602L456.959 324.754C457.392 323.14 456.433 321.48 454.819 321.047Z" fill="#111111"/>
<path d="M437.307 316.355C435.693 315.922 434.033 316.88 433.6 318.495L432.033 324.343C431.601 325.958 432.559 327.617 434.174 328.05C435.788 328.483 437.448 327.524 437.881 325.91L439.448 320.062C439.88 318.447 438.922 316.787 437.307 316.355Z" fill="#111111"/>
<path d="M225.652 244.461C221.774 233.218 210.273 226.485 198.571 228.608L144.414 238.433C132.712 240.556 124.309 250.899 124.628 262.788L127.261 360.933L128.941 423.588C129.733 453.114 156.657 474.987 185.719 469.715L241.142 459.66C270.204 454.388 287.728 424.451 278.098 396.528L225.652 244.461Z" fill="white"/>
<path d="M207.321 228.554C208.361 234.282 213.847 238.084 219.576 237.045C225.305 236.005 229.106 230.519 228.067 224.79C227.028 219.061 221.541 215.26 215.812 216.299C210.084 217.338 206.282 222.825 207.321 228.554Z" fill="white"/>
<path d="M112.491 245.758C113.53 251.486 119.017 255.288 124.746 254.249C130.475 253.209 134.276 247.723 133.237 241.994C132.198 236.265 126.711 232.464 120.982 233.503C115.253 234.542 111.452 240.029 112.491 245.758Z" fill="white"/>
<path d="M199.493 261.352C199.715 262.579 200.891 263.394 202.119 263.171C203.346 262.948 204.161 261.773 203.938 260.545C203.715 259.317 202.54 258.503 201.312 258.726C200.085 258.948 199.27 260.124 199.493 261.352Z" fill="#111111"/>
<path d="M169.86 266.727C170.083 267.955 171.258 268.77 172.486 268.547C173.713 268.324 174.528 267.149 174.305 265.921C174.083 264.693 172.907 263.879 171.679 264.101C170.452 264.324 169.637 265.5 169.86 266.727Z" fill="#111111"/>
<path d="M196.328 274.92L204.263 273.48C206.999 272.984 208.889 276.145 207.156 278.32L203.819 282.511C202.879 283.691 201.211 283.994 199.916 283.219L195.319 280.468C192.933 279.039 193.592 275.416 196.328 274.92Z" fill="#111111"/>
<path d="M122.594 310.884C122.629 309.572 123.735 308.545 125.045 308.607C165.883 310.509 206.639 303.408 244.427 287.806C245.639 287.305 247.027 287.897 247.504 289.12L257.155 313.861C257.72 315.309 257.004 316.941 255.556 317.506C213.872 333.78 169.349 341.538 124.616 340.321L-nan -nanC-nan -nan 121.837 338.985 121.879 337.431L122.594 310.884Z" fill="#FF3535"/>
<path d="M265.913 367.386C265.913 367.386 245.918 335.16 241.794 319.518C232.881 312.94 215.389 305.87 216.719 330.213C223.427 353.562 237.105 378.758 237.105 378.758L265.913 367.386Z" fill="#FF3535"/>
<path d="M424.81 440.917C394.942 424.733 369.444 385.973 368.815 371.587C349.698 359.479 331.361 351.103 343.861 390.699C356.36 430.295 390.843 451.639 406.523 457.362C422.461 467.271 454.678 457.102 424.81 440.917Z" fill="#8A93E2"/>
<path d="M317.238 485.548C287.37 469.364 278.646 436.544 278.018 422.157C258.9 410.05 223.789 395.734 236.288 435.33C248.787 474.926 283.271 496.27 298.95 501.993C314.888 511.902 347.106 501.733 317.238 485.548Z" fill="#8A93E2"/>
<path d="M231.923 478.829C248.474 458.236 253.567 433.577 254.045 423.821C238.399 387.78 210.58 411.217 198.626 427.442C204.958 440.739 209.275 454.415 202.656 477.395C196.036 500.376 225.531 536.34 248.466 531.235C271.4 526.13 271.679 520.253 253.933 511.367C238.833 503.806 226.428 491.849 231.923 478.829Z" fill="#E2E5FF"/>
<path d="M361.355 296.175C349.511 271.318 328.212 281.369 315.831 288.556C304.426 293.357 301.269 304.523 299.349 308.496C295.726 326.159 297.095 356.544 345.7 344.857C394.304 333.171 390.374 307.704 382.334 296.431C374.252 298.983 364.747 303.293 361.355 296.175Z" fill="#E2E5FF"/>
<path d="M379.999 301.929C382.031 303.247 384.761 302.385 385.668 300.139L386.046 299.204C387.266 296.184 384.42 293.107 381.314 294.087L380.089 294.474C376.983 295.454 376.42 299.607 379.153 301.38L379.999 301.929Z" fill="black"/>
<path d="M336.529 428.718C387.96 416.24 368.907 351.849 352.952 321.212C337.841 320.749 305.779 323.846 298.422 339.948C291.064 356.05 254.159 368.583 236.626 372.837C220.407 376.634 189.642 391.889 196.33 422.535C204.689 460.841 236.89 455.369 252.807 448.617C268.724 441.864 272.241 444.315 336.529 428.718Z" fill="#E2E5FF"/>
<path d="M400.112 467.358C370.244 451.173 361.521 418.354 360.892 403.967C341.774 391.859 306.663 377.543 319.163 417.14C331.662 456.736 366.145 478.08 381.825 483.803C397.763 493.712 429.98 483.542 400.112 467.358Z" fill="#E2E5FF"/>
<path d="M139.475 372.318C153.434 397.713 183.237 399.985 196.754 397.84C202.41 395.646 209.396 394.5 192.092 407.472C180.906 415.859 173.245 413.117 171.639 410.158C165.923 412.803 155.513 415.49 155.94 402.54C131.388 405.819 132.349 393.869 135.899 387.483C130.569 385.486 125.529 372.872 135.711 370.391C137.235 370.019 138.72 370.944 139.475 372.318Z" fill="#E2E5FF"/>
<path d="M291.219 333.468C285.707 291.666 301.796 289.22 310.53 293.222C328.181 300.457 327.181 318.914 322.784 332.041C314.559 349.934 296.73 375.27 291.219 333.468Z" fill="#8A93E2"/>
<path d="M339.074 311.154C339.582 312.762 341.297 313.654 342.905 313.146C344.513 312.639 345.405 310.924 344.897 309.316C344.39 307.708 342.675 306.816 341.067 307.323C339.459 307.831 338.567 309.546 339.074 311.154Z" fill="black"/>
<path d="M320.222 337.645C334.762 342.752 353.866 341.839 361.6 340.744C362.18 342.581 363.34 346.254 364.5 349.93C338.589 354.877 319.189 351.439 313.356 347.893C314.614 345.476 318.964 340.062 320.222 337.645Z" fill="#FF1818"/>
<path d="M134.346 448.204C125.369 445.928 113.161 403.173 114.274 394.439C113.943 383.698 101.476 386.574 91.6037 399.979C82.4168 420.187 108.503 445.502 116.212 457.876C122.379 467.775 129.362 463.815 134.544 461.052C143.178 456.446 143.584 446.809 134.346 448.204Z" fill="#DDDDDD"/>
<path d="M133.586 318.495C132.34 312.21 126.701 307.721 120.54 308.109L111.526 308.676C105.696 309.043 99.8674 307.004 95.3243 303.009L94.7358 302.492C87.1258 295.8 76.499 294.404 67.9356 298.972L57.4197 304.581C45.4589 310.96 40.2762 325.712 45.1965 339.066C46.1041 341.529 47.3386 343.884 48.8523 346.03L51.4006 349.641C59.247 360.762 73.4012 364.989 85.2625 359.754L87.8007 358.634C101.163 352.736 113.494 344.753 124.376 334.957L129.925 329.962C133.049 327.15 134.439 322.797 133.586 318.495Z" fill="white"/>
<path d="M22.4465 387.801C52.5712 365.692 53.0286 354.065 49.574 348.686C51.4321 336.566 85.6028 309.596 108.334 361.864C131.416 414.941 84.1258 456.855 41.9139 476.387C15.0172 488.833 -14.6258 508.131 -39.0517 482.406C-62.928 448.716 -44.9075 425.313 -27.2678 420.475C-18.1764 416.753 -7.67817 409.91 22.4465 387.801Z" fill="white"/>
<path d="M83.3789 348.566C78.7341 339.857 65.4341 317.743 59.3647 307.775C58.2963 306.018 56.317 306.294 52.2443 309.242C42.4709 316.319 41.8768 327.201 42.8014 331.757C42.7154 337.24 44.3287 350.284 51.4701 358.593C58.6114 366.903 71.0626 366.398 76.3955 365.108C80.6586 363.222 88.0237 357.274 83.3789 348.566Z" fill="#DDDDDD"/>
<path d="M105.288 463.564C96.1196 461.318 89.8288 431.151 91.0273 422.29C90.7623 411.402 72.0851 401.311 61.8943 414.967C52.3576 435.517 78.8698 461.002 86.6709 473.493C92.9118 483.486 100.082 479.424 105.402 476.587C114.266 471.859 114.748 462.086 105.288 463.564Z" fill="white"/>
<path d="M84.0864 323.286C84.8417 324.702 86.6019 325.238 88.018 324.483C89.434 323.728 89.9697 321.967 89.2145 320.551C88.4592 319.135 86.699 318.6 85.2829 319.355C83.8668 320.11 83.3312 321.87 84.0864 323.286Z" fill="black"/>
<path d="M129.215 309.099C128.459 307.683 126.699 307.147 125.283 307.903L122.719 309.27C121.303 310.025 120.767 311.786 121.523 313.202C122.278 314.618 124.038 315.154 125.454 314.398L128.018 313.031C129.434 312.275 129.97 310.515 129.215 309.099Z" fill="black"/>
<path d="M22.8971 295.001C42.1099 274.215 68.5653 284.915 79.3913 292.863L40.589 325.085C37.2557 321.922 36.572 320.64 33.2391 317.479C31.221 316.535 29.2726 316.69 27.3816 317.475C22.8004 319.377 17.0876 316.698 17.6429 311.769C18.3898 305.14 19.4346 298.747 22.8971 295.001Z" fill="#07BE75"/>
<path d="M83.671 288.75C81.0693 285.696 76.4842 285.329 73.4298 287.931L34.7478 320.88C31.6935 323.482 31.3265 328.067 33.9282 331.121C36.5299 334.175 41.1151 334.542 44.1694 331.941L82.8514 298.991C85.9057 296.39 86.2727 291.804 83.671 288.75Z" fill="white"/>
<path d="M82.8528 298.991L44.1708 331.94C41.1164 334.542 36.5313 334.175 33.9296 331.121L83.6724 288.75C86.2741 291.804 85.9071 296.389 82.8528 298.991Z" fill="#F2F2F2"/>
<path d="M11.4465 329.104C12.9571 331.936 16.4775 333.008 19.3096 331.497C22.1418 329.986 23.2131 326.466 21.7026 323.634C20.1921 320.802 16.6716 319.73 13.8395 321.241C11.0074 322.751 9.93601 326.272 11.4465 329.104Z" fill="white"/>
<path d="M665.123 315.659C668.448 306.396 682.401 291.631 699.437 294.902L724.481 299.771C743.846 303.575 748.907 322.036 748.52 331.869L744.329 392.941L749.835 418.975C750.904 424.035 751.588 429.269 750.395 434.301C745.576 454.622 725.374 468.327 703.99 464.17L658.238 455.277C634.246 450.614 620.057 425.663 628.314 402.659L665.123 315.659Z" fill="white"/>
<path d="M688.499 320.076C688.302 321.089 687.32 321.751 686.307 321.554C685.294 321.357 684.632 320.376 684.829 319.362C685.026 318.349 686.007 317.687 687.02 317.884C688.034 318.081 688.696 319.062 688.499 320.076Z" fill="black"/>
<path d="M712.961 324.83C712.764 325.844 711.783 326.506 710.77 326.309C709.756 326.112 709.094 325.131 709.291 324.117C709.488 323.104 710.47 322.442 711.483 322.639C712.496 322.836 713.158 323.817 712.961 324.83Z" fill="black"/>
<path d="M694.914 332.33L688.364 331.057C686.105 330.617 684.509 333.213 685.92 335.031L688.638 338.533C689.403 339.52 690.781 339.787 691.86 339.16L695.692 336.931C697.681 335.774 697.173 332.769 694.914 332.33Z" fill="black"/>
<path d="M679.404 279.56L685.88 299.961L698.647 299.892L695.389 279.287C694.52 273.789 694.835 268.169 696.313 262.803L702.739 239.472C704.172 232.099 703.162 226.801 695.297 225.272C687.432 223.743 683.873 231.554 683.077 235.65L678.29 260.274C677.042 266.695 677.425 273.326 679.404 279.56Z" fill="white"/>
<path d="M703.564 274.593C687.287 274.347 682.466 286.903 677.004 293.136L745.683 307.225L747.733 296.681C749.544 287.361 736.107 282.133 733.058 280.325C728.483 277.614 719.84 274.839 703.564 274.593Z" fill="#FFD028"/>
<path d="M731.904 284.57L727.011 296.496L738.345 303.795L745.756 294.159C751.938 286.122 761.059 280.869 771.114 279.557C778.964 278.532 787.184 272.993 786.746 264.746C786.309 256.499 774.093 255.484 768.039 256.008L766.511 256.3C750.939 259.271 737.922 269.905 731.904 284.57Z" fill="white"/>
<path d="M749.847 312.055C750.099 310.758 749.559 309.435 748.472 308.684L745.08 306.341C725.255 292.65 701.057 286.797 677.166 289.915C675.888 290.082 674.86 291.048 674.614 292.313L673.485 298.121C673.054 300.337 674.821 302.367 677.075 302.248C699.385 301.064 721.544 306.534 740.74 317.963L743.269 319.468C745.511 320.803 748.397 319.51 748.895 316.949L749.847 312.055Z" fill="#FFE587"/>
<path fill-rule="evenodd" clip-rule="evenodd" d="M299.25 136.68C301.735 133.499 306.436 132.854 309.75 135.24C322.607 144.497 333.445 144.489 343.392 142.898C347.478 142.244 351.342 144.894 352.023 148.816C352.704 152.739 349.944 156.448 345.858 157.102C333.305 159.111 317.893 159.103 300.75 146.76C297.436 144.374 296.765 139.861 299.25 136.68Z" fill="white"/>
<path d="M267.96 171.81L267.988 171.844L268.017 171.877C270.858 175.16 274.555 177 278.937 177C285.696 177 292.65 173.922 299.696 168.577C303.218 165.906 307.167 162.416 311.535 158.141C312.704 157.024 313.903 155.848 315.133 154.613C311.466 153.223 307.691 151.345 303.823 148.855C300.078 152.37 296.971 155.114 294.49 157.111L294.464 157.132L294.438 157.154C291.483 159.621 290.148 160.808 287.16 162.848C282.55 165.996 279.099 166.568 277.616 166.42C276.54 166.312 276.069 165.559 276.069 164.135C276.069 160.99 277.75 155.992 281.89 148.84C286.021 141.884 291.818 134.461 299.341 126.572C303.203 122.578 306.747 118.978 309.974 115.771C313.265 112.604 316.324 109.894 319.153 107.631L319.178 107.611C324.696 103.116 330.6 99.376 336.893 96.3812C337.482 96.1391 338.187 95.7419 338.783 95.0753C339.504 94.2669 339.882 93.2615 339.882 92.2178C339.882 90.4422 338.979 88.845 337.339 87.9095C336.006 87.1494 334.49 87 333.296 87C329.626 87 325.574 88.3309 321.298 90.508C316.965 92.7139 312.084 95.9545 306.674 100.154L306.659 100.166C301.269 104.392 296.153 109.017 291.311 114.039C286.479 119.05 281.869 124.455 277.48 130.251L277.476 130.256C268.843 141.696 264 151.885 264 160.605C264 164.799 265.305 168.588 267.96 171.81Z" fill="white"/>
<path d="M314.616 138.37C318.663 140.663 322.509 142.068 326.193 142.855C326.248 142.794 326.302 142.733 326.357 142.672C331.571 136.978 335.822 132.313 339.107 128.677C338.722 132.926 338.527 136.854 338.527 140.456C338.527 141.497 338.544 142.514 338.578 143.506C340.208 143.364 341.811 143.151 343.392 142.898C347.478 142.244 351.342 144.894 352.023 148.816C352.704 152.739 349.944 156.448 345.858 157.102C344.254 157.359 342.604 157.583 340.91 157.752C341.278 158.766 341.693 159.717 342.156 160.602C343.457 163.09 345.196 165.169 347.471 166.619C349.767 168.083 352.391 168.764 355.197 168.764C364.238 168.764 371.282 163.621 376.425 154.874L376.435 154.858C381.522 146.1 384 135.966 384 124.573C384 117.425 382.917 111.363 380.459 106.65C378.032 101.901 374.497 98.8585 368.905 98.4714C366.996 98.3392 365.417 98.591 364.034 98.9946C362.91 99.3222 360.113 100.467 360.113 103.542C360.113 104.477 360.477 105.167 360.702 105.515C360.939 105.885 361.074 106.027 361.367 106.307C361.97 106.884 362.496 107.039 363.214 107.418C365.617 108.688 366.982 109.438 368.246 112.122C369.566 114.923 370.355 119.042 370.355 124.72C370.355 131.915 370.092 138.98 366.556 147.47C364.8 151.634 362.432 155 360.766 156.73C359.234 158.32 358.585 158.577 357.227 158.577C354.831 158.577 354.182 156.025 353.732 154.253C353.692 154.097 353.653 153.946 353.616 153.804C352.831 150.852 352.645 143.671 352.645 134.28C352.645 129.995 352.953 123.427 353.582 114.522L353.59 114.4V114.278C353.59 112.86 353.067 111.245 351.552 110.113C350.819 109.566 350.214 109.309 349.25 109.092C348.932 109.02 348.424 108.961 348.424 108.961C348.09 108.926 347.771 108.913 347.477 108.913C346.2 108.913 345.155 109.479 344.742 109.708C344.151 110.036 343.53 110.463 342.911 110.928C341.66 111.868 340.091 113.21 338.235 114.905C334.506 118.311 329.367 123.371 322.84 130.052C319.927 133.034 317.186 135.807 314.616 138.37Z" fill="white"/>
<path d="M405.668 139.789C404.447 140.445 403.28 141.165 402.168 141.949C401.056 142.733 400.072 143.535 399.215 144.355C398.358 145.176 397.93 145.887 397.93 146.488C397.93 147.09 398.413 147.391 399.379 147.391C400.053 147.391 401.038 147.062 402.332 146.406L408.266 143.262C409.359 142.697 410.335 142.031 411.191 141.266L413.133 139.57C414.518 138.312 415.967 137.684 417.48 137.684C418.264 137.684 419.048 138.121 419.832 138.996C420.616 139.871 421.008 140.764 421.008 141.676C421.008 143.772 420.151 146.871 418.438 150.973L422.812 147.391L431.836 140.363C432.802 139.634 433.604 139.27 434.242 139.27C435.628 139.27 436.32 139.935 436.32 141.266C436.32 142.633 435.427 144.392 433.641 146.543C432.802 147.564 431.635 148.667 430.141 149.852L414.992 161.336C413.99 162.138 413.197 162.803 412.613 163.332C410.207 167.215 407.892 170.031 405.668 171.781C402.441 174.333 399.452 175.609 396.699 175.609C395.46 175.609 394.448 175.263 393.664 174.57C392.953 173.969 392.598 173.267 392.598 172.465C392.598 171.717 392.798 170.906 393.199 170.031C393.6 169.174 394.138 168.309 394.812 167.434C395.487 166.559 396.253 165.693 397.109 164.836C397.966 163.979 398.878 163.15 399.844 162.348C402.396 160.324 404.21 158.93 405.285 158.164L407.965 156.223C409.022 153.98 409.934 151.556 410.699 148.949C407.181 152.048 403.435 154.482 399.461 156.25C397.474 157.143 395.824 157.59 394.512 157.59C393.199 157.59 391.996 157.316 390.902 156.77C389.809 156.223 388.87 155.503 388.086 154.609C386.464 152.732 385.652 150.553 385.652 148.074C385.652 145.486 386.628 143.307 388.578 141.539C391.513 138.878 395.669 136.562 401.047 134.594C406.224 132.68 410.608 131.723 414.199 131.723C415.384 131.723 415.977 132.306 415.977 133.473C415.977 134.275 415.822 134.895 415.512 135.332C415.22 135.751 414.5 136.161 413.352 136.562C412.221 136.964 410.964 137.438 409.578 137.984C408.211 138.531 406.908 139.133 405.668 139.789ZM447.504 139.789C446.283 140.445 445.116 141.165 444.004 141.949C442.892 142.733 441.908 143.535 441.051 144.355C440.194 145.176 439.766 145.887 439.766 146.488C439.766 147.09 440.249 147.391 441.215 147.391C441.889 147.391 442.874 147.062 444.168 146.406L450.102 143.262C451.195 142.697 452.171 142.031 453.027 141.266L454.969 139.57C456.354 138.312 457.803 137.684 459.316 137.684C460.1 137.684 460.884 138.121 461.668 138.996C462.452 139.871 462.844 140.764 462.844 141.676C462.844 143.772 461.987 146.871 460.273 150.973L464.648 147.391L473.672 140.363C474.638 139.634 475.44 139.27 476.078 139.27C477.464 139.27 478.156 139.935 478.156 141.266C478.156 142.633 477.263 144.392 475.477 146.543C474.638 147.564 473.471 148.667 471.977 149.852L456.828 161.336C455.826 162.138 455.033 162.803 454.449 163.332C452.043 167.215 449.728 170.031 447.504 171.781C444.277 174.333 441.288 175.609 438.535 175.609C437.296 175.609 436.284 175.263 435.5 174.57C434.789 173.969 434.434 173.267 434.434 172.465C434.434 171.717 434.634 170.906 435.035 170.031C435.436 169.174 435.974 168.309 436.648 167.434C437.323 166.559 438.089 165.693 438.945 164.836C439.802 163.979 440.714 163.15 441.68 162.348C444.232 160.324 446.046 158.93 447.121 158.164L449.801 156.223C450.858 153.98 451.77 151.556 452.535 148.949C449.017 152.048 445.271 154.482 441.297 156.25C439.31 157.143 437.66 157.59 436.348 157.59C435.035 157.59 433.832 157.316 432.738 156.77C431.645 156.223 430.706 155.503 429.922 154.609C428.299 152.732 427.488 150.553 427.488 148.074C427.488 145.486 428.464 143.307 430.414 141.539C433.349 138.878 437.505 136.562 442.883 134.594C448.06 132.68 452.444 131.723 456.035 131.723C457.22 131.723 457.812 132.306 457.812 133.473C457.812 134.275 457.658 134.895 457.348 135.332C457.056 135.751 456.336 136.161 455.188 136.562C454.057 136.964 452.799 137.438 451.414 137.984C450.047 138.531 448.743 139.133 447.504 139.789ZM505.992 138.695C507.159 138.695 507.742 139.178 507.742 140.145C507.742 141.329 507.031 142.742 505.609 144.383C503.258 147.117 500.487 149.779 497.297 152.367C492.102 156.523 487.462 158.602 483.379 158.602C480.444 158.602 478.038 157.326 476.16 154.773C474.21 152.112 473.234 148.539 473.234 144.055C473.234 138.167 476.105 131.659 481.848 124.531C485.493 119.992 488.93 116.911 492.156 115.289C493.159 114.779 493.924 114.523 494.453 114.523C495 114.523 495.492 114.615 495.93 114.797C496.385 114.961 496.805 115.198 497.188 115.508C498.081 116.255 498.527 117.158 498.527 118.215C498.527 119.272 498.236 120.53 497.652 121.988C497.069 123.428 496.221 124.969 495.109 126.609C492.758 130.091 489.577 133.427 485.566 136.617C484.527 138.604 484.008 140.992 484.008 143.781C484.008 145.039 484.409 146.224 485.211 147.336C486.031 148.448 486.934 149.004 487.918 149.004C489.267 149.004 491.846 147.609 495.656 144.82L500.523 141.074C502.51 139.488 504.333 138.695 505.992 138.695ZM539.434 137.902C540.309 137.902 540.746 138.395 540.746 139.379C540.746 140.035 540.518 140.865 540.062 141.867C539.625 142.852 538.987 143.781 538.148 144.656C537.31 145.513 536.344 146.406 535.25 147.336C534.174 148.266 532.908 149.241 531.449 150.262C530.009 151.283 528.414 152.294 526.664 153.297C524.914 154.299 523.055 155.202 521.086 156.004C516.729 157.79 512.509 158.684 508.426 158.684C505.309 158.684 502.583 157.872 500.25 156.25C497.807 154.555 496.586 152.495 496.586 150.07C496.586 146.26 498.637 142.642 502.738 139.215C506.275 136.262 510.44 133.974 515.234 132.352C518.151 131.367 520.621 130.875 522.645 130.875C524.285 130.875 525.671 131.276 526.801 132.078C528.004 132.953 528.605 134.129 528.605 135.605C528.605 137.921 526.773 140.482 523.109 143.289C522.526 143.745 521.997 144.128 521.523 144.438L520.539 145.094C518.716 146.37 515.945 147.801 512.227 149.387C513.375 149.988 514.441 150.289 515.426 150.289C516.428 150.289 517.322 150.171 518.105 149.934C518.908 149.697 519.81 149.359 520.812 148.922C521.815 148.484 522.882 147.965 524.012 147.363C525.16 146.743 526.318 146.069 527.484 145.34C530.091 143.717 532.352 142.059 534.266 140.363C535.268 139.434 536.544 138.695 538.094 138.148C538.604 137.984 539.051 137.902 539.434 137.902ZM509.273 145.586L510.777 144.82C511.27 144.565 511.707 144.328 512.09 144.109C515.772 141.995 517.868 140.691 518.379 140.199C518.889 139.707 519.145 139.37 519.145 139.188C519.145 138.987 519.09 138.759 518.98 138.504C518.871 138.249 518.725 138.021 518.543 137.82C518.105 137.31 517.641 137.055 517.148 137.055C516.656 137.055 516.109 137.146 515.508 137.328C514.924 137.51 514.332 137.766 513.73 138.094C513.129 138.404 512.546 138.786 511.98 139.242C511.434 139.68 510.951 140.154 510.531 140.664C509.565 141.812 509.082 142.806 509.082 143.645C509.082 144.483 509.146 145.13 509.273 145.586Z" fill="white"/>
</g>
<defs>
<clipPath id="clip0_509_3701">
<rect width="800" height="400" fill="white"/>
</clipPath>
</defs>
</svg>
