<svg width="52" height="60" viewBox="0 0 52 60" fill="none" xmlns="http://www.w3.org/2000/svg">
<g filter="url(#filter0_d_1214_17984)">
<path d="M46 24C46 40 26 52 26 52C26 52 6 40 6 24C6 12.9543 14.9543 4 26 4C37.0457 4 46 12.9543 46 24Z" fill="#FC3B6A"/>
<path d="M16 14H18V34H16V14Z" fill="white"/>
<path d="M18 18H27.5V20.9333L21 27V29H36V27L29.5 20.9333V16H18V18Z" fill="white"/>
<path d="M31.5 31H25.5C25.5 32.6569 26.8431 34 28.5 34C30.1569 34 31.5 32.6569 31.5 31Z" fill="white"/>
</g>
<defs>
<filter id="filter0_d_1214_17984" x="0" y="0" width="52" height="60" filterUnits="userSpaceOnUse" color-interpolation-filters="sRGB">
<feFlood flood-opacity="0" result="BackgroundImageFix"/>
<feColorMatrix in="SourceAlpha" type="matrix" values="0 0 0 0 0 0 0 0 0 0 0 0 0 0 0 0 0 0 127 0" result="hardAlpha"/>
<feOffset dy="2"/>
<feGaussianBlur stdDeviation="3"/>
<feComposite in2="hardAlpha" operator="out"/>
<feColorMatrix type="matrix" values="0 0 0 0 0 0 0 0 0 0 0 0 0 0 0 0 0 0 0.3 0"/>
<feBlend mode="normal" in2="BackgroundImageFix" result="effect1_dropShadow_1214_17984"/>
<feBlend mode="normal" in="SourceGraphic" in2="effect1_dropShadow_1214_17984" result="shape"/>
</filter>
</defs>
</svg>
