<svg width="52" height="60" viewBox="0 0 52 60" fill="none" xmlns="http://www.w3.org/2000/svg">
<g filter="url(#filter0_d_1301_19202)">
<path d="M46 24C46 40 26 52 26 52C26 52 6 40 6 24C6 12.9543 14.9543 4 26 4C37.0457 4 46 12.9543 46 24Z" fill="#F4B000"/>
<path fill-rule="evenodd" clip-rule="evenodd" d="M37 17H15V15H37V17Z" fill="white"/>
<path fill-rule="evenodd" clip-rule="evenodd" d="M17 21V17H18.5V21H17Z" fill="white"/>
<path fill-rule="evenodd" clip-rule="evenodd" d="M21.5 21V17H23V21H21.5Z" fill="white"/>
<path fill-rule="evenodd" clip-rule="evenodd" d="M29.5 21V17H31V21H29.5Z" fill="white"/>
<path fill-rule="evenodd" clip-rule="evenodd" d="M33.5 21V17H35V21H33.5Z" fill="white"/>
<path fill-rule="evenodd" clip-rule="evenodd" d="M25.5 21V17H27V21H25.5Z" fill="white"/>
<path d="M28 33H24V27C24 25.3431 22.6569 24 21 24C19.3431 24 18 25.3431 18 27V33H15V21H37V33H34V27C34 25.3431 32.6569 24 31 24C29.3431 24 28 25.3431 28 27V33Z" fill="white"/>
</g>
<defs>
<filter id="filter0_d_1301_19202" x="0" y="0" width="52" height="60" filterUnits="userSpaceOnUse" color-interpolation-filters="sRGB">
<feFlood flood-opacity="0" result="BackgroundImageFix"/>
<feColorMatrix in="SourceAlpha" type="matrix" values="0 0 0 0 0 0 0 0 0 0 0 0 0 0 0 0 0 0 127 0" result="hardAlpha"/>
<feOffset dy="2"/>
<feGaussianBlur stdDeviation="3"/>
<feComposite in2="hardAlpha" operator="out"/>
<feColorMatrix type="matrix" values="0 0 0 0 0 0 0 0 0 0 0 0 0 0 0 0 0 0 0.3 0"/>
<feBlend mode="normal" in2="BackgroundImageFix" result="effect1_dropShadow_1301_19202"/>
<feBlend mode="normal" in="SourceGraphic" in2="effect1_dropShadow_1301_19202" result="shape"/>
</filter>
</defs>
</svg>
