<svg width="52" height="60" viewBox="0 0 52 60" fill="none" xmlns="http://www.w3.org/2000/svg">
<g filter="url(#filter0_d_1301_19197)">
<path d="M46 24C46 40 26 52 26 52C26 52 6 40 6 24C6 12.9543 14.9543 4 26 4C37.0457 4 46 12.9543 46 24Z" fill="#F4B000"/>
<path d="M34 19H18L17 33H35L34 19Z" fill="white"/>
<path d="M23 18C23 16.3431 24.3431 15 26 15C27.6569 15 29 16.3431 29 18V19H31V18C31 15.2386 28.7614 13 26 13C23.2386 13 21 15.2386 21 18V19H23V18Z" fill="white"/>
</g>
<defs>
<filter id="filter0_d_1301_19197" x="0" y="0" width="52" height="60" filterUnits="userSpaceOnUse" color-interpolation-filters="sRGB">
<feFlood flood-opacity="0" result="BackgroundImageFix"/>
<feColorMatrix in="SourceAlpha" type="matrix" values="0 0 0 0 0 0 0 0 0 0 0 0 0 0 0 0 0 0 127 0" result="hardAlpha"/>
<feOffset dy="2"/>
<feGaussianBlur stdDeviation="3"/>
<feComposite in2="hardAlpha" operator="out"/>
<feColorMatrix type="matrix" values="0 0 0 0 0 0 0 0 0 0 0 0 0 0 0 0 0 0 0.3 0"/>
<feBlend mode="normal" in2="BackgroundImageFix" result="effect1_dropShadow_1301_19197"/>
<feBlend mode="normal" in="SourceGraphic" in2="effect1_dropShadow_1301_19197" result="shape"/>
</filter>
</defs>
</svg>
