<svg width="40" height="40" viewBox="0 0 40 40" fill="none" xmlns="http://www.w3.org/2000/svg">
<rect width="40" height="40" rx="20" fill="black"/>
<path d="M23.5 16H16.5L16.6463 15.0247V15.0247C17.2763 10.8245 22.7237 10.8245 23.3537 15.0247V15.0247L23.5 16Z" fill="#D9D9D9"/>
<path d="M19 22H21V32H19V22Z" fill="white"/>
<path d="M31 15.3846H24.5833C24.5833 15.3846 24.5389 14.7555 24.4812 14.3561C24.0854 11.6184 22.8685 9.80469 21.375 8C24.8555 8.58414 27.9257 10.4963 30.0997 13.7981C30.8165 14.8867 31 15.3846 31 15.3846Z" fill="white"/>
<path d="M9 15.3846H15.4167C15.4167 15.3846 15.4611 14.7555 15.5188 14.3561C15.9146 11.6184 17.1315 9.80469 18.625 8C15.1445 8.58414 12.0743 10.4963 9.90026 13.7981C9.18353 14.8867 9 15.3846 9 15.3846Z" fill="white"/>
<path d="M16.7083 16.7692H23.125V18.4923L21 20H19L16.7083 18.4923V16.7692Z" fill="white"/>
<path d="M9 16.7692H15.4167V18.4923L13.125 20H11.2917L9 18.4923V16.7692Z" fill="white"/>
<path d="M24.5833 16.7692H31V18.4923L28.7083 20H26.875L24.5833 18.4923V16.7692Z" fill="white"/>
<path d="M16.7917 14.9231L16.8205 14.6616C17.0985 12.1419 18.2198 9.79261 20 8C21.7802 9.79261 22.9015 12.1419 23.1795 14.6616L23.2083 14.9231V15.3846H16.7917V14.9231Z" fill="white"/>
</svg>
