<svg width="40" height="40" viewBox="0 0 40 40" fill="none" xmlns="http://www.w3.org/2000/svg">
<rect width="40" height="40" rx="20" fill="black"/>
<path d="M22.9803 8.50098V11.9081H24.6839V8.50098H22.9803Z" fill="white"/>
<path d="M22.9803 20.4268V23.8339H24.6839V20.4268H22.9803Z" fill="white"/>
<path d="M16.1661 15.3161L19.5732 15.3161V17.0197H16.1661V15.3161Z" fill="white"/>
<path d="M31.499 15.3161L28.0919 15.3161V17.0197H31.499V15.3161Z" fill="white"/>
<path d="M25.832 16.168C25.832 17.2726 24.9366 18.168 23.832 18.168C22.7275 18.168 21.832 17.2726 21.832 16.168C21.832 15.0635 22.7275 14.168 23.832 14.168C24.9366 14.168 25.832 15.0635 25.832 16.168Z" fill="white"/>
<path d="M21.4227 12.5537L19.0135 10.1445L17.8089 11.3491L20.2181 13.7583L21.4227 12.5537Z" fill="white"/>
<path d="M29.8549 20.9859L28.6503 22.1905L26.2411 19.7813L27.4457 18.5767L29.8549 20.9859Z" fill="white"/>
<path d="M21.4233 19.7814L20.2187 18.5768L16.2707 22.5248L17.4753 23.7294L21.4233 19.7814Z" fill="white"/>
<path d="M29.8555 11.3493L27.4463 13.7585L26.2417 12.5539L28.6509 10.1447L29.8555 11.3493Z" fill="white"/>
<path d="M14.4625 27.2402C15.4033 27.2402 16.1661 26.4775 16.1661 25.5367C16.1661 24.5958 15.4033 23.8331 14.4625 23.8331C13.5216 23.8331 12.7589 24.5958 12.7589 25.5367C12.7589 26.4775 13.5216 27.2402 14.4625 27.2402Z" fill="white"/>
<path d="M11.4507 23.7293L9.64375 21.9224L10.8484 20.7178L12.6553 22.5247L11.4507 23.7293Z" fill="white"/>
<path d="M16.27 28.5487L18.077 30.3556L19.2816 29.151L17.4746 27.3441L16.27 28.5487Z" fill="white"/>
<path d="M9.64439 29.1511L11.4513 27.3442L12.6559 28.5488L10.849 30.3557L9.64439 29.1511Z" fill="white"/>
<path d="M8.5 24.6849H11.0554V26.3885H8.5V24.6849Z" fill="white"/>
<path d="M20.425 24.6849H17.8696V26.3885H20.425V24.6849Z" fill="white"/>
<path d="M15.3143 28.9438V31.4992H13.6107V28.9438H15.3143Z" fill="white"/>
<path d="M15.3143 22.1295V19.5742H13.6107V22.1295H15.3143Z" fill="white"/>
</svg>
