<svg width="40" height="40" viewBox="0 0 40 40" fill="none" xmlns="http://www.w3.org/2000/svg">
<rect width="40" height="40" rx="20" fill="black"/>
<path fill-rule="evenodd" clip-rule="evenodd" d="M12 10H28V25H26L29 30H27L25.9984 28.3306L14.0017 28.3306L13 30H11L14 25H12V10ZM16 25L15.0997 26.5004L24.9001 26.5002L24 25H16ZM14 12H26V18H14V12ZM15.5 23C16.3284 23 17 22.3284 17 21.5C17 20.6716 16.3284 20 15.5 20C14.6716 20 14 20.6716 14 21.5C14 22.3284 14.6716 23 15.5 23ZM26 21.5C26 22.3284 25.3284 23 24.5 23C23.6716 23 23 22.3284 23 21.5C23 20.6716 23.6716 20 24.5 20C25.3284 20 26 20.6716 26 21.5Z" fill="white"/>
</svg>
