<svg width="40" height="40" viewBox="0 0 40 40" fill="none" xmlns="http://www.w3.org/2000/svg">
<rect width="40" height="40" rx="20" fill="black"/>
<path d="M19.5 15.0415V11.9365C19.6598 11.9777 19.8274 11.9995 20 11.9995C20.1727 11.9995 20.3402 11.9777 20.5 11.9365V15.0415C20.3374 15.0142 20.1704 15 20 15C19.8297 15 19.6626 15.0142 19.5 15.0415Z" fill="white"/>
<path d="M18.262 15.5544L15.7231 13.0155C15.551 13.3067 15.3072 13.5505 15.016 13.7226L17.5548 16.2614C17.7495 15.9882 17.9887 15.749 18.262 15.5544Z" fill="white"/>
<path d="M21.738 15.5545C22.0113 15.749 22.2506 15.9883 22.4452 16.2615L24.9841 13.7227C24.6929 13.5506 24.449 13.3068 24.277 13.0156L21.738 15.5545Z" fill="white"/>
<path d="M22.9584 17.4995C22.9858 17.6623 23 17.8295 23 18C23 18.1702 22.9858 18.3371 22.9586 18.4995H27.063C27.0219 18.3397 27 18.1722 27 17.9995C27 17.8269 27.0219 17.6593 27.063 17.4995H22.9584Z" fill="white"/>
<path d="M22.4456 19.738C22.251 20.0113 22.0118 20.2505 21.7386 20.4452L24.2769 22.9835C24.449 22.6923 24.6928 22.4485 24.984 22.2764L22.4456 19.738Z" fill="white"/>
<path d="M18.2615 20.4452C17.9883 20.2506 17.749 20.0113 17.5545 19.7381L15.0161 22.2765C15.3073 22.4486 15.5511 22.6924 15.7231 22.9836L18.2615 20.4452Z" fill="white"/>
<path d="M17.0414 18.4995C17.0142 18.3371 17 18.1702 17 18C17 17.8295 17.0142 17.6623 17.0416 17.4995H12.937C12.9781 17.6593 13 17.8269 13 17.9995C13 18.1722 12.9781 18.3397 12.937 18.4995H17.0414Z" fill="white"/>
<path d="M22 18C22 19.1046 21.1046 20 20 20C18.8954 20 18 19.1046 18 18C18 16.8954 18.8954 16 20 16C21.1046 16 22 16.8954 22 18Z" fill="white"/>
<path d="M21.8272 9.1856C21.5154 8.48694 20.8145 8 20 8C19.1855 8 18.4846 8.48694 18.1728 9.1856C17.0955 9.40776 16.0886 9.82244 15.1896 10.3921C14.8571 10.1457 14.4456 10 14 10C12.8954 10 12 10.8954 12 12C12 12.4456 12.1457 12.8571 12.3921 13.1896C11.8509 14.0437 11.4495 14.9953 11.2203 16.012C11.148 16.0041 11.0745 16 11 16C9.89543 16 9 16.8954 9 18C9 19.1046 9.89543 20 11 20C11.0745 20 11.148 19.9959 11.2203 19.988C11.4495 21.0047 11.8509 21.9563 12.3921 22.8104C12.1457 23.1429 12 23.5544 12 24C12 25.1046 12.8954 26 14 26C14.4456 26 14.8571 25.8543 15.1896 25.6079C15.7178 25.9426 16.2833 26.2238 16.8785 26.4439L17.1731 25.4862C16.7 25.3075 16.2483 25.0852 15.8228 24.8242C15.9366 24.5729 16 24.2938 16 24C16 22.8954 15.1046 22 14 22C13.7062 22 13.4271 22.0634 13.1758 22.1772C12.7014 21.4037 12.3547 20.5434 12.1653 19.6256C12.6708 19.2627 13 18.6693 13 17.9995C13 17.3297 12.6708 16.7373 12.1653 16.3744C12.3547 15.4566 12.7014 14.5963 13.1758 13.8228C13.4271 13.9366 13.7062 14 14 14C15.1046 14 16 13.1046 16 12C16 11.7062 15.9366 11.4271 15.8228 11.1758C16.4945 10.7638 17.2318 10.4481 18.0152 10.2481C18.1374 11.2356 18.9795 11.9995 20 11.9995C21.0206 11.9995 21.8626 11.2356 21.9848 10.2481C22.7683 10.4481 23.5055 10.7638 24.1772 11.1758C24.0634 11.4272 24 11.7062 24 12C24 13.1046 24.8954 14 26 14C26.2938 14 26.5729 13.9366 26.8242 13.8228C27.2986 14.5963 27.6453 15.4566 27.8347 16.3744C27.3292 16.7373 27 17.3297 27 17.9995C27 18.6693 27.3292 19.2627 27.8347 19.6256C27.6453 20.5434 27.2986 21.4037 26.8242 22.1772C26.5729 22.0634 26.2938 22 26 22C24.8954 22 24 22.8954 24 24C24 24.2938 24.0634 24.5729 24.1772 24.8242C23.7517 25.0852 23.3 25.3075 22.8269 25.4862L23.1215 26.4439C23.7167 26.2238 24.2822 25.9426 24.8104 25.6079C25.1429 25.8543 25.5544 26 26 26C27.1046 26 28 25.1046 28 24C28 23.5544 27.8543 23.1429 27.6079 22.8104C28.1491 21.9563 28.5505 21.0047 28.7797 19.988C28.852 19.9959 28.9255 20 29 20C30.1046 20 31 19.1046 31 18C31 16.8954 30.1046 16 29 16C28.9255 16 28.852 16.0041 28.7797 16.012C28.5505 14.9953 28.1491 14.0437 27.6079 13.1896C27.8543 12.8571 28 12.4456 28 12C28 10.8954 27.1046 10 26 10C25.5544 10 25.1429 10.1457 24.8104 10.3921C23.9114 9.82243 22.9045 9.40776 21.8272 9.1856Z" fill="white"/>
<path d="M22.1657 26.7377L21.871 25.78C21.2708 25.9238 20.6443 26 20 26C19.3557 26 18.7292 25.9238 18.129 25.78L17.8343 26.7377C18.528 26.9091 19.2534 27 20 27C20.7466 27 21.472 26.9091 22.1657 26.7377Z" fill="white"/>
<path d="M21.3482 20.6807C21.0541 20.8289 20.7322 20.9302 20.3924 20.9746L23.1694 30H16.8306L19.6076 20.9746C19.2678 20.9302 18.9459 20.8289 18.6518 20.6807L15.7843 30H11V31H29V30H24.2157L21.3482 20.6807Z" fill="white"/>
</svg>
