<svg width="40" height="40" viewBox="0 0 40 40" fill="none" xmlns="http://www.w3.org/2000/svg">
<path d="M6.83887 16.4518L11.4518 11.8389L29.0163 11.8389L32.3873 16.4518V31.0002H6.83887V16.4518Z" fill="#E4844D"/>
<path d="M10.4068 11.8389L4 18.226H35.2258L30.5439 11.8389H10.4068Z" fill="#DDDDDD"/>
<path d="M10.4068 11.8389L4 18.226H5.84319L11.4516 12.5485L10.4068 11.8389Z" fill="#395447"/>
<path d="M6.83887 17.1617L11.4518 12.5488L16.0647 17.1617V31.0004H6.83887V17.1617Z" fill="#ED9969"/>
<rect x="8.61279" y="21.7744" width="4.96774" height="9.22581" fill="#874824"/>
<rect x="18.5483" y="19.6455" width="5.32258" height="2.12903" fill="#D9CFB5"/>
<rect x="18.5483" y="22.4844" width="5.32258" height="2.12903" fill="#D9CFB5"/>
<rect x="24.5806" y="19.6455" width="5.32258" height="2.12903" fill="#D9CFB5"/>
<rect x="24.5806" y="22.4844" width="5.32258" height="2.12903" fill="#D9CFB5"/>
<rect x="26" y="9" width="3.54839" height="2.83871" fill="#E1793D"/>
</svg>
