<svg width="20" height="20" viewBox="0 0 20 20" fill="none" xmlns="http://www.w3.org/2000/svg">
<path d="M10 1.66675C5.39169 1.66675 1.66669 5.39175 1.66669 10.0001C1.66669 14.6084 5.39169 18.3334 10 18.3334C14.6084 18.3334 18.3334 14.6084 18.3334 10.0001C18.3334 5.39175 14.6084 1.66675 10 1.66675ZM12.5834 5.89175C12.7 5.89175 12.8167 5.93341 12.9167 6.02508L13.975 7.08341C14.1667 7.26675 14.1667 7.55841 13.975 7.73341L13.1417 8.56675L11.4334 6.85841L12.2667 6.02508C12.35 5.93341 12.4667 5.89175 12.5834 5.89175ZM10.9417 7.34175L12.6584 9.05841L7.60835 14.1084H5.89169V12.3917L10.9417 7.34175Z" fill="#333333"/>
</svg>
