<svg width="20" height="20" viewBox="0 0 20 20" fill="none" xmlns="http://www.w3.org/2000/svg">
<path d="M11.0938 6.8809V7.59519H8.90625V6.8809C8.90625 6.58329 9.01259 6.33031 9.22526 6.12198C9.43793 5.91364 9.69618 5.80948 10 5.80948C10.3038 5.80948 10.5621 5.91364 10.7747 6.12198C10.9874 6.33031 11.0938 6.58329 11.0938 6.8809Z" fill="#333333"/>
<path fill-rule="evenodd" clip-rule="evenodd" d="M2.5 4.43182L10 1.25L17.5 4.43182V9.20455C17.5 13.6193 14.3 17.7477 10 18.75C5.7 17.7477 2.5 13.6193 2.5 9.20455V4.43182ZM7.08333 7.59519V12.5952H12.9167V7.59519H11.8229V6.8809C11.8232 6.38709 11.6455 5.96602 11.2899 5.61769C10.9343 5.26936 10.5043 5.09519 10 5.09519C9.4959 5.09495 9.06606 5.269 8.71047 5.61733C8.35488 5.96567 8.17708 6.38686 8.17708 6.8809V7.59519H7.08333Z" fill="#333333"/>
</svg>
