<svg width="20" height="20" viewBox="0 0 20 20" fill="none" xmlns="http://www.w3.org/2000/svg">
<path fill-rule="evenodd" clip-rule="evenodd" d="M18.3334 10.0001C18.3334 14.6025 14.6024 18.3334 10 18.3334C5.39765 18.3334 1.66669 14.6025 1.66669 10.0001C1.66669 5.39771 5.39765 1.66675 10 1.66675C14.6024 1.66675 18.3334 5.39771 18.3334 10.0001ZM10.357 9.29598C10.0652 9.55383 9.76939 9.8152 9.57373 10.1536C9.32731 10.5794 9.34113 11.0632 9.35093 11.4061C9.35223 11.4518 9.35347 11.495 9.354 11.5352H10.677C10.677 10.886 10.7227 10.7545 10.8372 10.5527C10.9749 10.3102 11.1696 10.1296 11.3964 9.91928C11.6371 9.69602 11.9139 9.43932 12.1968 9.03956C12.6912 8.3378 12.5035 7.39482 12.183 6.89043C11.8077 6.30271 11.0707 5.83342 9.99489 5.83342C8.70854 5.83342 7.82504 6.63605 7.50002 7.57026L8.68565 8.04833C8.84588 7.58342 9.22583 7.02201 9.99946 7.02201C11.1805 7.02201 11.414 8.07903 10.9974 8.64482C10.8222 8.88485 10.5909 9.08928 10.357 9.29598ZM9.99946 14.1667C10.503 14.1667 10.915 13.772 10.915 13.2896C10.915 12.8071 10.503 12.4124 9.99946 12.4124C9.49591 12.4124 9.08392 12.8071 9.08392 13.2896C9.08392 13.772 9.49591 14.1667 9.99946 14.1667Z" fill="#333333"/>
</svg>
