<svg width="48" height="48" viewBox="0 0 48 48" fill="none" xmlns="http://www.w3.org/2000/svg">
<path d="M11.1621 33.8269C10.8687 34.7816 10.6602 36.3334 10.6602 36.3334H37.3268C37.3268 36.3334 37.1183 34.7816 36.8249 33.8269C35.2383 28.6637 31.1589 25.6648 26.2171 24.849C24.7449 24.606 23.2422 24.606 21.7699 24.849C16.8281 25.6648 12.7488 28.6637 11.1621 33.8269Z" fill="#605CFF"/>
<path d="M30.6667 16.3334C30.6667 20.0153 27.6819 23.0001 24 23.0001C20.3181 23.0001 17.3333 20.0153 17.3333 16.3334C17.3333 12.6515 20.3181 9.66675 24 9.66675C27.6819 9.66675 30.6667 12.6515 30.6667 16.3334Z" fill="#605CFF"/>
<path d="M30.6667 16.3334C30.6667 20.0153 27.6819 23.0001 24 23.0001C20.3181 23.0001 17.3333 20.0153 17.3333 16.3334C17.3333 12.6515 20.3181 9.66675 24 9.66675C27.6819 9.66675 30.6667 12.6515 30.6667 16.3334Z" fill="#605CFF"/>
<path d="M30.6667 16.3334C30.6667 20.0153 27.6819 23.0001 24 23.0001C20.3181 23.0001 17.3333 20.0153 17.3333 16.3334C17.3333 12.6515 20.3181 9.66675 24 9.66675C27.6819 9.66675 30.6667 12.6515 30.6667 16.3334Z" fill="#605CFF"/>
<ellipse cx="24" cy="39" rx="24" ry="9" fill="#605CFF" fill-opacity="0.2"/>
</svg>
